<svg width="20" height="25" viewBox="0 0 20 25" fill="none" xmlns="http://www.w3.org/2000/svg">
<path d="M17 9.81245H3C1.89543 9.81245 1 10.9521 1 12.3579V21.267C1 22.6728 1.89543 23.8125 3 23.8125H17C18.1046 23.8125 19 22.6728 19 21.267V12.3579C19 10.9521 18.1046 9.81245 17 9.81245Z" stroke="#8E8E8E" stroke-width="2" stroke-linecap="round" stroke-linejoin="round"/>
<path d="M5.37512 10V6C5.37512 4.67392 5.90191 3.40215 6.83959 2.46447C7.77727 1.52678 9.04904 1 10.3751 1C11.7012 1 12.973 1.52678 13.9107 2.46447C14.8483 3.40215 15.3751 4.67392 15.3751 6V10" stroke="#8E8E8E" stroke-width="2" stroke-linecap="round" stroke-linejoin="round"/>
</svg>
