<svg width="569" height="153" viewBox="0 0 569 153" fill="none" xmlns="http://www.w3.org/2000/svg">
<g clip-path="url(#clip0_2_105)">
<path d="M530.749 47.8486C530.651 41.6191 538.002 36.4527 547.169 36.3091C556.335 36.1655 563.845 41.0991 563.943 47.3286C564.042 53.558 556.69 58.7244 547.524 58.8681C538.358 59.0117 530.847 54.0781 530.749 47.8486Z" fill="url(#paint0_linear_2_105)"/>
<path d="M563.91 44.8349V47.3272C563.804 41.0965 556.294 36.1644 547.126 36.3086C537.959 36.4529 530.619 41.5556 530.711 47.8387V45.3596C530.619 39.1289 537.972 33.9607 547.126 33.8164C556.281 33.6721 563.804 38.6173 563.91 44.8349Z" fill="url(#paint1_linear_2_105)"/>
<path d="M532.406 48.2359C532.318 42.6294 538.935 37.9796 547.186 37.8503C555.438 37.7211 562.198 42.1613 562.286 47.7678C562.375 53.3743 555.757 58.0241 547.506 58.1534C539.255 58.2826 532.495 53.8424 532.406 48.2359Z" fill="url(#paint2_linear_2_105)"/>
<path d="M547.508 57.7292C555.65 57.598 562.2 53.0725 562.279 47.5502C562.279 47.6289 562.279 47.6945 562.279 47.76C562.371 53.3742 555.702 58.0178 547.495 58.1489C539.287 58.2801 532.487 53.8333 532.408 48.2323V47.9962C532.671 53.5316 539.353 57.8603 547.508 57.7292Z" fill="#A86314"/>
<path d="M419.411 90.6536C426.5 84.8557 429.039 76.2245 425.08 71.4367C421.121 66.6489 412.163 67.4097 405.074 73.2076C397.984 79.0054 395.446 87.6366 399.405 92.4244C403.364 97.2122 412.321 96.4514 419.411 90.6536Z" fill="url(#paint3_linear_2_105)"/>
<path d="M423.501 69.5216L425.08 71.4367C421.134 66.6227 412.163 67.4097 405.074 73.2076C397.984 79.0054 395.446 87.6366 399.405 92.4244L397.827 90.5093C393.881 85.6952 396.406 77.0903 403.495 71.2924C410.585 65.4946 419.542 64.6945 423.501 69.5216Z" fill="url(#paint4_linear_2_105)"/>
<path d="M400.941 91.6956C397.376 87.3596 399.659 79.6144 406.041 74.3963C412.422 69.1782 420.485 68.4631 424.05 72.7991C427.615 77.1351 425.332 84.8803 418.951 90.0984C412.569 95.3165 404.506 96.0316 400.941 91.6956Z" fill="url(#paint5_linear_2_105)"/>
<path d="M418.7 89.7878C425.001 84.6327 427.303 77.0116 423.962 72.6566L424.093 72.8009C427.658 77.1428 425.408 84.882 419.003 90.1026C412.597 95.3233 404.535 96.0316 400.996 91.7029C400.949 91.6494 400.905 91.5924 400.865 91.5324C404.456 95.6906 412.426 94.9298 418.7 89.7878Z" fill="#A86314"/>
<path d="M556.518 98.642C559.938 107.129 564.265 113.373 566.172 112.612C568.079 111.851 566.869 104.348 563.436 95.8611C560.003 87.3742 555.689 81.1304 553.782 81.8912C551.875 82.652 553.085 90.1682 556.518 98.642Z" fill="url(#paint6_linear_2_105)"/>
<path d="M556.663 98.5764C559.754 106.211 563.647 111.838 565.37 111.156C567.093 110.474 565.988 103.718 562.897 96.0841C559.806 88.4499 555.926 82.8225 554.203 83.5046C552.48 84.1867 553.585 90.9552 556.663 98.5764Z" fill="url(#paint7_linear_2_105)"/>
<path d="M556.86 98.5108C559.885 106.001 563.686 111.549 565.462 111.103H565.37C563.647 111.785 559.753 106.158 556.663 98.5239C553.572 90.8897 552.48 84.0949 554.203 83.4521H554.308C552.717 84.3835 553.835 91.0208 556.86 98.5108Z" fill="#A86314"/>
<path d="M568.106 111.838L566.172 112.612C568.093 111.838 566.869 104.348 563.436 95.8611C560.003 87.3742 555.689 81.1304 553.782 81.8912L555.702 81.1173C557.61 80.3565 561.937 86.6134 565.37 95.0872C568.803 103.561 570.013 111.064 568.106 111.838Z" fill="url(#paint8_linear_2_105)"/>
<path d="M469.221 51.0394C478.178 49.0718 485.005 45.7924 484.623 43.838C484.242 41.8835 476.561 41.7917 467.617 43.7593C458.673 45.7269 451.754 49.0062 452.201 50.9607C452.648 52.9151 460.264 52.9938 469.221 51.0394Z" fill="url(#paint9_linear_2_105)"/>
<path d="M453.856 50.7936C453.456 48.9824 459.666 46.0803 467.725 44.3117C475.784 42.5431 482.642 42.5777 483.041 44.3889C483.441 46.2002 477.232 49.1022 469.172 50.8709C461.113 52.6395 454.255 52.6049 453.856 50.7936Z" fill="url(#paint10_linear_2_105)"/>
<path d="M469.142 50.6196C477.034 48.8881 483.163 46.0548 483.019 44.2446V44.3495C483.413 46.1466 477.205 49.0455 469.142 50.8164C461.079 52.5872 454.227 52.561 453.832 50.8164C453.826 50.7817 453.826 50.7461 453.832 50.7114C454.516 52.4036 461.237 52.4036 469.142 50.6196Z" fill="#A86314"/>
<path d="M484.176 41.8179L484.623 43.838C484.189 41.831 476.56 41.7917 467.616 43.7592C458.672 45.7268 451.754 49.0062 452.201 50.9606L451.754 48.9406C451.32 46.9205 458.212 43.6937 467.169 41.7392C476.126 39.7847 483.742 39.811 484.176 41.8179Z" fill="url(#paint11_linear_2_105)"/>
<path d="M405.521 74.6636C406.915 65.6258 406.389 58.044 404.351 57.7292C402.312 57.4144 399.523 64.4846 398.129 73.4699C396.735 82.4553 397.261 90.0895 399.3 90.4043C401.338 90.7191 404.127 83.7014 405.521 74.6636Z" fill="url(#paint12_linear_2_105)"/>
<path d="M405.35 74.6373C406.665 66.5046 406.139 59.6836 404.298 59.395C402.456 59.1065 399.957 65.4815 398.708 73.6142C397.458 81.7469 397.918 88.5679 399.76 88.8434C401.601 89.1188 404.1 82.77 405.35 74.6373Z" fill="url(#paint13_linear_2_105)"/>
<path d="M405.153 74.598C406.376 66.6227 405.955 59.9067 404.193 59.3951H404.298C406.139 59.6837 406.613 66.5046 405.35 74.6374C404.087 82.7701 401.588 89.132 399.76 88.8434H399.655C401.483 88.8565 403.916 82.5864 405.153 74.598Z" fill="#7E470D"/>
<path d="M402.298 57.4143L404.35 57.7292C402.312 57.4143 399.523 64.4846 398.129 73.4699C396.735 82.4552 397.261 90.0895 399.3 90.4043L397.248 90.0895C395.209 89.7747 394.617 82.2191 396.077 73.1551C397.537 64.091 400.26 57.0995 402.298 57.4143Z" fill="url(#paint14_linear_2_105)"/>
<path d="M522.583 123.407C517.651 131.133 518.966 140.735 525.542 144.854C532.119 148.973 541.326 146.035 546.219 138.296C551.112 130.556 549.81 120.968 543.286 116.849C536.762 112.73 527.476 115.681 522.583 123.407Z" fill="url(#paint15_linear_2_105)"/>
<path d="M523.754 124.155C519.347 131.107 520.531 139.752 526.384 143.451C532.237 147.15 540.589 144.513 544.996 137.561C549.402 130.609 548.231 121.965 542.365 118.265C536.499 114.566 528.173 117.203 523.754 124.155Z" fill="url(#paint16_linear_2_105)"/>
<path d="M527.621 146.179L525.516 144.867C532.093 148.973 541.3 146.048 546.193 138.309C551.086 130.569 549.783 120.981 543.26 116.862L545.364 118.174C551.941 122.279 553.256 131.881 548.297 139.607C543.339 147.333 534.145 150.311 527.621 146.179Z" fill="url(#paint17_linear_2_105)"/>
<path d="M524.109 124.378C519.742 131.265 520.86 139.791 526.582 143.556L526.397 143.451C520.531 139.752 519.347 131.107 523.767 124.155C528.186 117.203 536.512 114.566 542.392 118.265L542.562 118.383C536.683 114.894 528.476 117.518 524.109 124.378Z" fill="#7E470D"/>
<path d="M309.144 64.0822C307.596 58.0464 313.54 51.3164 322.422 49.0505C331.303 46.7846 339.758 49.8407 341.307 55.8766C342.855 61.9125 336.91 68.6424 328.029 70.9083C319.147 73.1742 310.692 70.1181 309.144 64.0822Z" fill="url(#paint18_linear_2_105)"/>
<path d="M308.517 61.7037L309.136 64.1042C307.583 58.0702 313.529 51.3411 322.407 49.0718C331.285 46.8025 339.743 49.8588 341.295 55.8928L340.676 53.4923C339.124 47.4583 330.667 44.402 321.789 46.6713C312.91 48.9406 306.965 55.6698 308.517 61.7037Z" fill="url(#paint19_linear_2_105)"/>
<path d="M310.854 64.0718C309.461 58.6395 314.812 52.5823 322.807 50.5426C330.802 48.5029 338.412 51.2532 339.806 56.6854C341.199 62.1177 335.848 68.1749 327.853 70.2146C319.859 72.2543 312.248 69.5041 310.854 64.0718Z" fill="url(#paint20_linear_2_105)"/>
<path d="M327.734 69.8364C319.842 71.8565 312.332 69.1937 310.793 63.8943C310.793 63.8943 310.793 64.0255 310.793 64.1042C312.187 69.5347 319.79 72.2762 327.787 70.2431C335.784 68.2099 341.124 62.1366 339.743 56.706C339.743 56.706 339.743 56.5748 339.677 56.5092C340.94 61.8873 335.626 67.8163 327.734 69.8364Z" fill="#A86314"/>
<path d="M216.591 76.5262C219.393 85.2361 216.841 93.8279 210.883 95.7299C204.924 97.6319 197.848 92.1096 195.099 83.4128C192.35 74.716 194.849 66.098 200.794 64.196C206.739 62.294 213.816 67.8163 216.591 76.5262Z" fill="url(#paint21_linear_2_105)"/>
<path d="M208.554 96.5301L210.922 95.7693C204.977 97.6713 197.887 92.1489 195.138 83.4522C192.389 74.7554 194.888 66.1374 200.834 64.2354L198.466 64.9962C192.521 66.8982 189.969 75.49 192.758 84.1999C195.546 92.9097 202.57 98.3927 208.554 96.5301Z" fill="url(#paint22_linear_2_105)"/>
<path d="M196.507 82.9484C193.99 75.1109 196.29 67.3707 201.645 65.6604C206.999 63.95 213.381 68.917 215.898 76.7546C218.415 84.5921 216.115 92.3322 210.76 94.0425C205.406 95.7529 199.024 90.7859 196.507 82.9484Z" fill="url(#paint23_linear_2_105)"/>
<path d="M215.512 76.8542C217.998 84.5934 215.789 92.2408 210.58 94.0772H210.777C216.131 92.3719 218.432 84.6327 215.907 76.8017C213.382 68.9707 207.015 63.9992 201.662 65.7045H201.465C206.779 64.196 213.026 69.1281 215.512 76.8542Z" fill="#A86314"/>
<path d="M357.026 59.8017C364.562 65.0486 369.732 70.5841 368.561 72.2762C367.39 73.9683 360.327 71.135 352.777 65.9406C345.227 60.7461 340.058 55.1713 341.229 53.4792C342.4 51.787 349.476 54.5548 357.026 59.8017Z" fill="url(#paint24_linear_2_105)"/>
<path d="M356.921 59.9197C363.721 64.5895 368.364 69.6134 367.311 71.135C366.259 72.6566 359.906 70.1119 353.106 65.4421C346.306 60.7724 341.663 55.7485 342.715 54.2137C343.768 52.679 350.134 55.25 356.921 59.9197Z" fill="url(#paint25_linear_2_105)"/>
<path d="M356.802 60.0903C363.471 64.6682 368.074 69.5872 367.246 71.2137V71.135C368.298 69.6134 363.655 64.5764 356.855 59.9198C350.055 55.2631 343.702 52.6921 342.65 54.2137C342.656 54.244 342.656 54.2753 342.65 54.3056C343.899 52.9676 350.147 55.4992 356.802 60.0903Z" fill="#A86314"/>
<path d="M367.39 73.9552L368.561 72.25C367.39 73.9421 360.327 71.1088 352.777 65.9144C345.228 60.7199 340.058 55.1451 341.229 53.4529L340.058 55.1582C338.888 56.8503 344.004 62.4252 351.607 67.6196C359.209 72.8141 366.22 75.6474 367.39 73.9552Z" fill="url(#paint26_linear_2_105)"/>
<path d="M299.81 69.2986C291.458 73.0764 284.027 74.5455 283.145 72.7353C282.264 70.9251 288.406 66.2816 296.732 62.517C305.058 58.7523 312.516 57.27 313.397 59.0802C314.278 60.8904 308.162 65.5339 299.81 69.2986Z" fill="url(#paint27_linear_2_105)"/>
<path d="M299.744 69.1543C292.221 72.5517 285.513 73.929 284.75 72.25C283.987 70.571 289.446 66.439 296.969 63.0679C304.493 59.6968 311.201 58.2932 311.964 59.9853C312.726 61.6775 307.202 65.7569 299.744 69.1543Z" fill="url(#paint28_linear_2_105)"/>
<path d="M299.652 68.9838C292.273 72.3025 285.684 73.706 284.71 72.1582C284.705 72.1929 284.705 72.2283 284.71 72.2631C285.473 73.9421 292.181 72.5648 299.705 69.1674C307.228 65.7701 312.687 61.6512 311.924 59.9853C311.926 59.9548 311.926 59.9241 311.924 59.8935C312.463 61.6119 307.031 65.6389 299.652 68.9838Z" fill="#A86314"/>
<path d="M282.29 70.8596L283.145 72.7353C282.29 70.8596 288.406 66.2816 296.732 62.517C305.058 58.7523 312.516 57.27 313.397 59.0802L312.463 57.1782C311.622 55.3156 304.164 56.8503 295.812 60.615C287.459 64.3796 281.435 68.9838 282.29 70.8596Z" fill="url(#paint29_linear_2_105)"/>
<path d="M203.911 61.3627C211.146 66.9769 215.973 72.8534 214.697 74.4799C213.421 76.1065 206.542 72.8534 199.321 67.2261C192.1 61.5988 187.26 55.7354 188.522 54.1088C189.785 52.4823 196.717 55.7353 203.911 61.3627Z" fill="url(#paint30_linear_2_105)"/>
<path d="M203.806 61.4938C210.317 66.544 214.658 71.8302 213.526 73.2994C212.395 74.7685 206.174 71.8302 199.676 66.7407C193.179 61.6512 188.825 56.3912 189.956 54.9352C191.087 53.4792 197.296 56.4305 203.806 61.4938Z" fill="url(#paint31_linear_2_105)"/>
<path d="M203.675 61.6512C210.067 66.6227 214.368 71.804 213.447 73.365L213.526 73.2994C214.658 71.8302 210.317 66.544 203.806 61.4938C197.296 56.4437 191.1 53.5054 189.956 54.9352V55.0139C191.206 53.7809 197.296 56.6798 203.675 61.6512Z" fill="#7E470D"/>
<path d="M213.421 76.1065L214.736 74.4799C213.421 76.0934 206.581 72.8534 199.36 67.2261C192.139 61.5988 187.299 55.7353 188.562 54.1088L187.246 55.7485C185.931 57.3619 190.811 63.2384 198.045 68.8657C205.279 74.493 212.158 77.733 213.421 76.1065Z" fill="url(#paint32_linear_2_105)"/>
<path d="M206.656 19.8833C204.361 11.032 208.555 2.29495 216.024 0.368621C223.492 -1.55771 231.408 4.05609 233.703 12.9074C235.999 21.7587 231.805 30.4958 224.336 32.4221C216.867 34.3484 208.951 28.7346 206.656 19.8833Z" fill="url(#paint33_linear_2_105)"/>
<path d="M208.019 19.5351C205.953 11.5675 209.728 3.70282 216.452 1.96876C223.175 0.234701 230.301 5.28796 232.367 13.2555C234.433 21.2231 230.658 29.0879 223.934 30.822C217.211 32.556 210.085 27.5027 208.019 19.5351Z" fill="url(#paint34_linear_2_105)"/>
<path d="M221.918 33.0556L224.325 32.439C216.854 34.3673 208.936 28.7531 206.647 19.8989C204.359 11.0448 208.554 2.30864 216.012 0.380402L213.605 0.996916C206.134 2.92516 201.939 11.6744 204.24 20.5154C206.542 29.3565 214.447 34.9838 221.918 33.0556Z" fill="url(#paint35_linear_2_105)"/>
<path d="M231.941 13.3665C233.992 21.2369 230.31 29.1072 223.707 30.8781H223.917C230.638 29.1335 234.44 21.2762 232.348 13.3009C230.257 5.3256 223.141 0.288557 216.433 2.02004H216.236C222.891 0.459082 229.902 5.483 231.941 13.3665Z" fill="#7E470D"/>
<path d="M48.3351 100.093C46.4773 94.1445 52.0668 87.1184 60.8195 84.3997C69.5722 81.6809 78.1737 84.299 80.0315 90.2474C81.8892 96.1958 76.2998 103.222 67.5471 105.941C58.7944 108.659 50.1929 106.041 48.3351 100.093Z" fill="url(#paint36_linear_2_105)"/>
<path d="M49.0739 102.472L48.3373 100.098C50.1919 106.04 58.794 108.664 67.5539 105.948C76.3138 103.233 81.8907 96.2022 80.0362 90.2076L80.7727 92.5818C82.6405 98.537 77.0504 105.555 68.2905 108.323C59.5305 111.09 50.9416 108.414 49.0739 102.472Z" fill="url(#paint37_linear_2_105)"/>
<path d="M61.0431 85.0918C53.1513 87.5316 48.1268 93.8541 49.7973 99.206C51.4677 104.558 59.2149 106.919 67.0936 104.453C74.9722 101.987 79.9967 95.6906 78.3262 90.3387C76.6558 84.9869 68.9218 82.6389 61.0431 85.0918Z" fill="url(#paint38_linear_2_105)"/>
<path d="M61.1615 85.4853C53.375 87.8989 48.3768 94.1034 49.8762 99.4028L49.7973 99.206C48.1269 93.8542 53.1645 87.5316 61.0432 85.0918C68.9218 82.652 76.6558 85 78.3262 90.3387C78.3322 90.4042 78.3322 90.47 78.3262 90.5355C76.59 85.341 68.9481 83.0718 61.1615 85.4853Z" fill="#A86314"/>
<path d="M164.257 105.756C161.616 100.11 166.209 92.3999 174.517 88.5347C182.825 84.6694 191.701 86.1131 194.342 91.7592C196.983 97.4052 192.39 105.116 184.082 108.981C175.774 112.846 166.898 111.403 164.257 105.756Z" fill="url(#paint39_linear_2_105)"/>
<path d="M193.284 89.5123L194.336 91.7685C191.705 86.1149 182.814 84.6721 174.514 88.5417C166.215 92.4113 161.611 100.124 164.242 105.765L163.19 103.508C160.559 97.868 165.149 90.1551 173.462 86.2986C181.775 82.4421 190.64 83.8719 193.284 89.5123Z" fill="url(#paint40_linear_2_105)"/>
<path d="M165.925 105.437C163.548 100.356 167.683 93.416 175.162 89.9367C182.64 86.4574 190.629 87.7562 193.006 92.8376C195.384 97.9191 191.248 104.859 183.77 108.338C176.291 111.818 168.302 110.519 165.925 105.437Z" fill="url(#paint41_linear_2_105)"/>
<path d="M183.564 107.968C190.956 104.532 195.073 97.7106 192.889 92.6605C192.889 92.6605 192.955 92.7785 192.981 92.8441C195.362 97.9205 191.219 104.86 183.774 108.336C176.329 111.812 168.306 110.513 165.925 105.437L165.846 105.253C168.332 110.172 176.211 111.392 183.564 107.968Z" fill="#A86314"/>
<path d="M17.3093 102.931C26.3586 101.528 33.4481 98.7469 33.0929 96.7137C32.7378 94.6805 25.2011 94.169 16.1124 95.5594C7.02366 96.9498 -0.0395088 99.7438 0.328773 101.777C0.69706 103.81 8.24689 104.322 17.3093 102.931Z" fill="url(#paint42_linear_2_105)"/>
<path d="M17.2831 102.761C25.438 101.449 31.8173 99.0093 31.5279 97.1728C31.2385 95.3364 24.4121 94.8773 16.2572 96.1366C8.10228 97.3958 1.72307 99.8881 2.0519 101.777C2.38072 103.666 9.12822 104.02 17.2831 102.761Z" fill="url(#paint43_linear_2_105)"/>
<path d="M17.2436 102.564C25.2538 101.331 31.541 98.8912 31.5015 97.081C31.5072 97.1113 31.5072 97.1425 31.5015 97.1728C31.7909 99.0092 25.4117 101.502 17.2568 102.761C9.10194 104.02 2.26239 103.548 1.97302 101.725V101.62C2.5123 103.364 9.24661 103.797 17.2436 102.564Z" fill="#A86314"/>
<path d="M32.8168 94.6674L33.1456 96.7137C32.83 94.6806 25.2538 94.169 16.1651 95.5594C7.07634 96.9498 0.0131645 99.7438 0.381451 101.777L0.0657501 99.7307C-0.249924 97.6975 6.83956 94.9167 15.8494 93.5131C24.8592 92.1096 32.5011 92.5949 32.8168 94.6674Z" fill="url(#paint44_linear_2_105)"/>
<path d="M75.7089 31.875C84.1268 28.2546 90.2956 23.7948 89.4801 21.9059C88.6646 20.017 81.1806 21.4205 72.7626 25.0278C64.3447 28.635 58.1627 33.0949 58.9782 34.9838C59.7937 36.8727 67.3304 35.4823 75.7089 31.875Z" fill="url(#paint45_linear_2_105)"/>
<path d="M75.7088 31.7176C83.285 28.4645 88.8619 24.4506 88.099 22.7585C87.3361 21.0664 80.6281 22.3125 73.0519 25.5525C65.4758 28.7924 59.8989 32.8195 60.6486 34.5247C61.3983 36.23 68.1064 34.9707 75.7088 31.7176Z" fill="url(#paint46_linear_2_105)"/>
<path d="M75.6167 31.5208C83.0482 28.3333 88.533 24.4113 88.0463 22.6667V22.7585C88.7829 24.4506 83.2323 28.4645 75.6562 31.7176C68.08 34.9707 61.3325 36.2168 60.596 34.5247C60.596 34.5247 60.596 34.5247 60.596 34.4197C61.543 35.9807 68.1721 34.7214 75.6167 31.5208Z" fill="#A86314"/>
<path d="M88.7171 20.0039L89.5326 21.9059C88.7171 20.017 81.233 21.4205 72.8151 25.0278C64.3972 28.635 58.2153 33.0949 59.0308 34.9838L58.2153 33.0818C57.3998 31.1929 63.5686 26.733 71.9865 23.1258C80.4044 19.5185 87.9016 18.115 88.7171 20.0039Z" fill="url(#paint47_linear_2_105)"/>
<path d="M310.596 125.388C318.856 121.453 324.827 116.691 323.933 114.894C323.038 113.097 315.607 114.763 307.36 118.725C299.113 122.686 293.128 127.421 294.023 129.218C294.917 131.015 302.336 129.402 310.596 125.388Z" fill="url(#paint48_linear_2_105)"/>
<path d="M310.53 125.283C317.961 121.715 323.328 117.413 322.525 115.799C321.723 114.186 315.041 115.681 307.61 119.249C300.178 122.817 294.799 127.12 295.614 128.733C296.43 130.346 303.098 128.864 310.53 125.283Z" fill="url(#paint49_linear_2_105)"/>
<path d="M310.438 125.1C317.725 121.597 323.038 117.439 322.473 115.708V115.799C323.275 117.465 317.909 121.715 310.477 125.283C303.046 128.851 296.364 130.412 295.562 128.733C295.562 128.733 295.562 128.667 295.562 128.641C296.575 130.163 303.138 128.615 310.438 125.1Z" fill="#7E470D"/>
<path d="M322.986 113.032L323.893 114.894C322.999 113.045 315.567 114.763 307.32 118.725C299.074 122.686 293.089 127.421 293.983 129.218L293.076 127.356C292.181 125.506 298.153 120.797 306.413 116.862C314.673 112.927 322.131 111.182 322.986 113.032Z" fill="url(#paint50_linear_2_105)"/>
<path d="M94.1629 106.317C88.1045 101.553 87.7941 91.8718 93.4696 84.6921C99.1451 77.5123 108.657 75.5531 114.716 80.3162C120.774 85.0793 121.085 94.7609 115.409 101.941C109.734 109.12 100.221 111.08 94.1629 106.317Z" fill="url(#paint51_linear_2_105)"/>
<path d="M94.5703 85.5247C89.4669 91.9784 89.7432 100.701 95.2017 104.991C100.66 109.28 109.21 107.509 114.326 101.056C119.443 94.6018 119.153 85.8789 113.695 81.5895C108.236 77.3002 99.6868 79.0579 94.5703 85.5247Z" fill="url(#paint52_linear_2_105)"/>
<path d="M96.1223 107.824L94.1757 106.289C100.226 111.051 109.749 109.096 115.418 101.908C121.087 94.7199 120.784 85.0525 114.721 80.2909L116.681 81.8256C122.744 86.5872 123.047 96.2546 117.378 103.456C111.709 110.657 102.186 112.586 96.1223 107.824Z" fill="url(#paint53_linear_2_105)"/>
<path d="M94.899 85.7739C89.8351 92.1752 90.0718 100.78 95.3593 105.109L95.2015 104.991C89.743 100.701 89.4668 91.9784 94.5702 85.5247C99.6735 79.071 108.249 77.3001 113.695 81.5895L113.853 81.7207C108.394 77.5887 99.9629 79.3858 94.899 85.7739Z" fill="#7E470D"/>
<path d="M265.467 146.231C259.272 152.974 250.512 155.02 245.909 150.809C241.305 146.599 242.608 137.692 248.803 130.989C254.998 124.286 263.744 122.201 268.348 126.411C272.952 130.622 271.689 139.502 265.467 146.231Z" fill="url(#paint54_linear_2_105)"/>
<path d="M244.068 149.13L245.896 150.809C241.292 146.599 242.594 137.692 248.79 130.989C254.985 124.286 263.731 122.201 268.335 126.411L266.507 124.732C261.903 120.522 253.143 122.568 246.948 129.31C240.753 136.052 239.477 144.933 244.068 149.13Z" fill="url(#paint55_linear_2_105)"/>
<path d="M264.942 145.759C259.365 151.819 251.486 153.63 247.343 149.878C243.2 146.127 244.357 138.073 249.973 132.039C255.59 126.005 263.429 124.168 267.572 127.907C271.715 131.645 270.518 139.686 264.942 145.759Z" fill="url(#paint56_linear_2_105)"/>
<path d="M264.639 145.471C259.128 151.465 251.381 153.341 247.198 149.734L247.343 149.878C251.486 153.669 259.365 151.819 264.941 145.759C270.518 139.699 271.676 131.698 267.572 127.907L267.414 127.775C271.334 131.619 270.137 139.489 264.639 145.471Z" fill="#A86314"/>
<path d="M353.698 59.8017C347.99 52.6528 347.319 43.7068 352.199 39.8241C357.078 35.9414 365.681 38.591 371.389 45.74C377.097 52.8889 377.781 61.8349 372.888 65.7176C367.995 69.6003 359.42 66.885 353.698 59.8017Z" fill="url(#paint57_linear_2_105)"/>
<path d="M354.145 38.2107L352.199 39.7585C357.092 35.8233 365.68 38.5255 371.389 45.6744C377.097 52.8233 377.781 61.7693 372.888 65.652L374.835 64.1042C379.728 60.169 379.057 51.2886 373.335 44.1266C367.614 36.9645 359.038 34.3279 354.145 38.2107Z" fill="url(#paint58_linear_2_105)"/>
<path d="M354.264 59.2901C349.121 52.8627 348.516 44.8611 352.948 41.3195C357.381 37.7778 365.075 40.2045 370.218 46.6451C375.361 53.0857 375.966 61.0741 371.534 64.6158C367.101 68.1574 359.406 65.7307 354.264 59.2901Z" fill="url(#paint59_linear_2_105)"/>
<path d="M354.553 59.0409C349.476 52.679 348.818 44.7562 353.04 41.1883L352.869 41.3194C348.476 44.8086 349.081 52.8626 354.185 59.2901C359.288 65.7176 367.062 68.118 371.455 64.6157L371.613 64.4846C367.272 67.7901 359.67 65.3896 354.553 59.0409Z" fill="#A86314"/>
<path d="M334.258 122.174C341.571 116.665 348.503 113.517 349.752 115.17C351.002 116.823 346.069 122.607 338.756 128.117C331.443 133.626 324.512 136.774 323.262 135.134C322.013 133.495 326.932 127.697 334.258 122.174Z" fill="url(#paint60_linear_2_105)"/>
<path d="M334.35 122.306C340.926 117.347 347.174 114.527 348.292 115.996C349.41 117.465 344.991 122.699 338.414 127.657C331.838 132.616 325.577 135.449 324.459 133.967C323.341 132.485 327.773 127.277 334.35 122.306Z" fill="url(#paint61_linear_2_105)"/>
<path d="M334.481 122.476C340.94 117.61 347.069 114.789 348.358 116.088V115.996C347.24 114.527 341.005 117.308 334.416 122.306C327.826 127.303 323.407 132.498 324.525 133.967L324.604 134.046C323.643 132.458 328.023 127.343 334.481 122.476Z" fill="#A86314"/>
<path d="M351.002 116.809L349.686 115.17C350.923 116.809 346.003 122.607 338.69 128.117C331.377 133.626 324.446 136.774 323.196 135.134L324.446 136.787C325.761 138.427 332.627 135.279 339.94 129.769C347.253 124.26 352.238 118.462 351.002 116.809Z" fill="url(#paint62_linear_2_105)"/>
<path d="M286.407 41.267C294.602 37.1613 301.994 35.3249 302.914 37.1613C303.835 38.9977 297.956 43.8249 289.761 47.9306C281.567 52.0363 274.175 53.8727 273.254 52.0363C272.334 50.1999 278.266 45.3727 286.407 41.267Z" fill="url(#paint63_linear_2_105)"/>
<path d="M286.486 41.4375C293.852 37.7384 300.507 36.0857 301.336 37.7384C302.165 39.3912 296.877 43.733 289.498 47.419C282.119 51.1049 275.477 52.7708 274.648 51.1181C273.82 49.4653 279.107 45.1104 286.486 41.4375Z" fill="url(#paint64_linear_2_105)"/>
<path d="M286.578 41.608C293.812 37.9745 300.35 36.3611 301.375 37.8171C301.375 37.8171 301.375 37.8171 301.375 37.7253C300.547 36.0725 293.891 37.7253 286.526 41.4244C279.16 45.1235 273.846 49.4522 274.688 51.1049C274.69 51.1355 274.69 51.1662 274.688 51.1968C274.109 49.4653 279.344 45.2284 286.578 41.608Z" fill="#A86314"/>
<path d="M303.848 39.0108L302.914 37.1613C303.848 38.9977 297.955 43.8248 289.761 47.9305C281.567 52.0363 274.175 53.8727 273.254 52.0363L274.188 53.8858C275.109 55.7222 282.501 53.8858 290.695 49.7801C298.889 45.6744 304.782 40.8472 303.848 39.0108Z" fill="url(#paint65_linear_2_105)"/>
<path d="M486.699 72.2768C486.306 70.2571 493.283 67.2069 502.282 65.464C511.281 63.7211 518.896 63.9455 519.289 65.9652C519.682 67.9849 512.706 71.0351 503.706 72.778C494.707 74.5209 487.093 74.2965 486.699 72.2768Z" fill="url(#paint66_linear_2_105)"/>
<path d="M502.327 65.6389C510.416 64.0648 517.269 64.3272 517.624 66.0849C517.979 67.8426 511.705 70.6497 503.603 72.2238C495.501 73.7978 488.648 73.5355 488.293 71.7647C487.938 69.9938 494.225 67.1998 502.327 65.6389Z" fill="url(#paint67_linear_2_105)"/>
<path d="M502.367 65.8357C510.259 64.301 517.046 64.5239 517.638 66.1898C517.644 66.1551 517.644 66.1196 517.638 66.0849C517.282 64.2747 510.43 64.0648 502.341 65.6389C494.251 67.213 487.951 69.9545 488.306 71.7647V71.8696C488.227 70.0463 494.409 67.3835 502.367 65.8357Z" fill="#7E470D"/>
<path d="M519.689 68L519.295 65.9799C519.689 67.9869 512.718 71.0432 503.708 72.7878C494.699 74.5324 487.096 74.3094 486.702 72.2894L487.096 74.3225C487.491 76.3426 495.106 76.5656 504.103 74.821C513.1 73.0764 520.084 70.0201 519.689 68Z" fill="url(#paint68_linear_2_105)"/>
<path d="M425.983 100.653C418.142 95.9169 415.025 86.7427 419.021 80.1618C423.018 73.581 432.614 72.0855 440.456 76.8215C448.297 81.5576 451.414 90.7318 447.418 97.3127C443.421 103.894 433.825 105.389 425.983 100.653Z" fill="url(#paint69_linear_2_105)"/>
<path d="M426.706 99.4636C419.647 95.2004 416.841 86.942 420.439 81.018C424.036 75.094 432.675 73.7476 439.733 78.0109C446.792 82.2741 449.598 90.5325 446 96.4565C442.403 102.38 433.764 103.727 426.706 99.4636Z" fill="url(#paint70_linear_2_105)"/>
<path d="M446.124 99.429L447.44 97.304C443.494 103.863 433.853 105.384 426 100.649C418.148 95.9136 415.044 86.7446 419.042 80.1597L417.727 82.2847C413.781 88.8434 416.846 98.0255 424.685 102.774C432.524 107.522 442.126 106.014 446.124 99.429Z" fill="url(#paint71_linear_2_105)"/>
<path d="M439.522 78.3627C446.506 82.5864 449.321 90.7192 445.888 96.6219C445.93 96.5701 445.966 96.5127 445.993 96.4514C449.597 90.5224 446.795 82.2716 439.732 78.0085C432.669 73.7454 424.041 75.0965 420.437 81.0124L420.331 81.196C424.001 75.4244 432.524 74.1389 439.522 78.3627Z" fill="#7E470D"/>
</g>
<defs>
<linearGradient id="paint0_linear_2_105" x1="547.333" y1="35.8998" x2="547.721" y2="60.6229" gradientUnits="userSpaceOnUse">
<stop stop-color="#FFEE7A"/>
<stop offset="1" stop-color="#D3912F"/>
</linearGradient>
<linearGradient id="paint1_linear_2_105" x1="565.164" y1="40.2136" x2="534.706" y2="40.688" gradientUnits="userSpaceOnUse">
<stop stop-color="#FFBF4A"/>
<stop offset="0.12" stop-color="#FFEE7A"/>
<stop offset="0.2" stop-color="#FFFFE1"/>
<stop offset="0.28" stop-color="#FFFFA6"/>
<stop offset="0.37" stop-color="#FFCF5A"/>
<stop offset="0.48" stop-color="#9A5A12"/>
<stop offset="0.65" stop-color="#FFBF4A"/>
<stop offset="1" stop-color="#A86314"/>
</linearGradient>
<linearGradient id="paint2_linear_2_105" x1="546.668" y1="6.60922" x2="547.878" y2="66.3206" gradientUnits="userSpaceOnUse">
<stop stop-color="#FFDF6A"/>
<stop offset="0.05" stop-color="#FFDF6A"/>
<stop offset="1" stop-color="#BE7A22"/>
</linearGradient>
<linearGradient id="paint3_linear_2_105" x1="404.769" y1="72.8335" x2="420.439" y2="91.9956" gradientUnits="userSpaceOnUse">
<stop stop-color="#FFEE7A"/>
<stop offset="1" stop-color="#D3912F"/>
</linearGradient>
<linearGradient id="paint4_linear_2_105" x1="421.889" y1="64.941" x2="398.374" y2="84.2744" gradientUnits="userSpaceOnUse">
<stop stop-color="#FFBF4A"/>
<stop offset="0.12" stop-color="#FFEE7A"/>
<stop offset="0.2" stop-color="#FFFFE1"/>
<stop offset="0.28" stop-color="#FFFFA6"/>
<stop offset="0.37" stop-color="#FFCF5A"/>
<stop offset="0.48" stop-color="#9A5A12"/>
<stop offset="0.65" stop-color="#FFBF4A"/>
<stop offset="1" stop-color="#A86314"/>
</linearGradient>
<linearGradient id="paint5_linear_2_105" x1="406.572" y1="74.98" x2="416.796" y2="87.4837" gradientUnits="userSpaceOnUse">
<stop stop-color="#FFFFA6"/>
<stop offset="1" stop-color="#E9A83D"/>
</linearGradient>
<linearGradient id="paint6_linear_2_105" x1="563.182" y1="95.7483" x2="555.599" y2="98.8098" gradientUnits="userSpaceOnUse">
<stop stop-color="#FFEE7A"/>
<stop offset="1" stop-color="#D3912F"/>
</linearGradient>
<linearGradient id="paint7_linear_2_105" x1="576.274" y1="90.4918" x2="552.122" y2="100.242" gradientUnits="userSpaceOnUse">
<stop stop-color="#FFDF6A"/>
<stop offset="0.05" stop-color="#FFDF6A"/>
<stop offset="1" stop-color="#BE7A22"/>
</linearGradient>
<linearGradient id="paint8_linear_2_105" x1="568.834" y1="112.243" x2="555.418" y2="78.8286" gradientUnits="userSpaceOnUse">
<stop stop-color="#FFBF4A"/>
<stop offset="0.12" stop-color="#FFEE7A"/>
<stop offset="0.2" stop-color="#FFFFE1"/>
<stop offset="0.28" stop-color="#FFFFA6"/>
<stop offset="0.37" stop-color="#FFCF5A"/>
<stop offset="0.48" stop-color="#9A5A12"/>
<stop offset="0.65" stop-color="#FFBF4A"/>
<stop offset="1" stop-color="#A86314"/>
</linearGradient>
<linearGradient id="paint9_linear_2_105" x1="439.503" y1="50.5503" x2="441.215" y2="58.5609" gradientUnits="userSpaceOnUse">
<stop stop-color="#FFEE7A"/>
<stop offset="1" stop-color="#D3912F"/>
</linearGradient>
<linearGradient id="paint10_linear_2_105" x1="466.389" y1="39.7831" x2="469.695" y2="51.9792" gradientUnits="userSpaceOnUse">
<stop stop-color="#FFFFA6"/>
<stop offset="1" stop-color="#E9A83D"/>
</linearGradient>
<linearGradient id="paint11_linear_2_105" x1="456.807" y1="47.8205" x2="421.445" y2="55.4186" gradientUnits="userSpaceOnUse">
<stop stop-color="#FFBF4A"/>
<stop offset="0.12" stop-color="#FFEE7A"/>
<stop offset="0.2" stop-color="#FFFFE1"/>
<stop offset="0.28" stop-color="#FFFFA6"/>
<stop offset="0.37" stop-color="#FFCF5A"/>
<stop offset="0.48" stop-color="#9A5A12"/>
<stop offset="0.65" stop-color="#FFBF4A"/>
<stop offset="1" stop-color="#A86314"/>
</linearGradient>
<linearGradient id="paint12_linear_2_105" x1="396.547" y1="73.0524" x2="410.058" y2="75.698" gradientUnits="userSpaceOnUse">
<stop stop-color="#BE7A22"/>
<stop offset="1" stop-color="#FFCF5A"/>
</linearGradient>
<linearGradient id="paint13_linear_2_105" x1="418.861" y1="76.69" x2="395.738" y2="73.1212" gradientUnits="userSpaceOnUse">
<stop stop-color="#E9A83D"/>
<stop offset="1" stop-color="#8C5110"/>
</linearGradient>
<linearGradient id="paint14_linear_2_105" x1="401.588" y1="56.4269" x2="396.126" y2="92.0063" gradientUnits="userSpaceOnUse">
<stop stop-color="#BE7A22"/>
<stop offset="0.12" stop-color="#E9A83D"/>
<stop offset="0.22" stop-color="#FFFFE1"/>
<stop offset="0.28" stop-color="#FFFFA6"/>
<stop offset="0.37" stop-color="#FFCF5A"/>
<stop offset="0.38" stop-color="#E6B248"/>
<stop offset="0.4" stop-color="#CB9235"/>
<stop offset="0.42" stop-color="#B57925"/>
<stop offset="0.44" stop-color="#A6681B"/>
<stop offset="0.46" stop-color="#9D5D14"/>
<stop offset="0.48" stop-color="#9A5A12"/>
<stop offset="0.54" stop-color="#9F5F15"/>
<stop offset="0.6" stop-color="#AD6D1C"/>
<stop offset="0.67" stop-color="#C48429"/>
<stop offset="0.75" stop-color="#E4A43B"/>
<stop offset="0.8" stop-color="#FFBF4A"/>
<stop offset="1" stop-color="#8C5110"/>
</linearGradient>
<linearGradient id="paint15_linear_2_105" x1="530.101" y1="176.75" x2="545.473" y2="186.36" gradientUnits="userSpaceOnUse">
<stop stop-color="#BE7A22"/>
<stop offset="1" stop-color="#FFCF5A"/>
</linearGradient>
<linearGradient id="paint16_linear_2_105" x1="556.676" y1="193.275" x2="525.096" y2="173.53" gradientUnits="userSpaceOnUse">
<stop stop-color="#E9A83D"/>
<stop offset="1" stop-color="#8C5110"/>
</linearGradient>
<linearGradient id="paint17_linear_2_105" x1="533.091" y1="199.111" x2="550.305" y2="171.428" gradientUnits="userSpaceOnUse">
<stop stop-color="#BE7A22"/>
<stop offset="0.12" stop-color="#E9A83D"/>
<stop offset="0.22" stop-color="#FFFFE1"/>
<stop offset="0.28" stop-color="#FFFFA6"/>
<stop offset="0.37" stop-color="#FFCF5A"/>
<stop offset="0.38" stop-color="#E6B248"/>
<stop offset="0.4" stop-color="#CB9235"/>
<stop offset="0.42" stop-color="#B57925"/>
<stop offset="0.44" stop-color="#A6681B"/>
<stop offset="0.46" stop-color="#9D5D14"/>
<stop offset="0.48" stop-color="#9A5A12"/>
<stop offset="0.54" stop-color="#9F5F15"/>
<stop offset="0.6" stop-color="#AD6D1C"/>
<stop offset="0.67" stop-color="#C48429"/>
<stop offset="0.75" stop-color="#E4A43B"/>
<stop offset="0.8" stop-color="#FFBF4A"/>
<stop offset="1" stop-color="#8C5110"/>
</linearGradient>
<linearGradient id="paint18_linear_2_105" x1="322.478" y1="48.7384" x2="328.588" y2="72.6883" gradientUnits="userSpaceOnUse">
<stop stop-color="#FFEE7A"/>
<stop offset="1" stop-color="#D3912F"/>
</linearGradient>
<linearGradient id="paint19_linear_2_105" x1="308.099" y1="74.8318" x2="337.651" y2="67.1947" gradientUnits="userSpaceOnUse">
<stop stop-color="#FFBF4A"/>
<stop offset="0.12" stop-color="#FFEE7A"/>
<stop offset="0.2" stop-color="#FFFFE1"/>
<stop offset="0.28" stop-color="#FFFFA6"/>
<stop offset="0.37" stop-color="#FFCF5A"/>
<stop offset="0.48" stop-color="#9A5A12"/>
<stop offset="0.65" stop-color="#FFBF4A"/>
<stop offset="1" stop-color="#A86314"/>
</linearGradient>
<linearGradient id="paint20_linear_2_105" x1="315.396" y1="20.2765" x2="329.899" y2="78.2358" gradientUnits="userSpaceOnUse">
<stop stop-color="#FFDF6A"/>
<stop offset="0.05" stop-color="#FFDF6A"/>
<stop offset="1" stop-color="#BE7A22"/>
</linearGradient>
<linearGradient id="paint21_linear_2_105" x1="182.158" y1="72.5189" x2="205.7" y2="65.0643" gradientUnits="userSpaceOnUse">
<stop stop-color="#FFEE7A"/>
<stop offset="1" stop-color="#D3912F"/>
</linearGradient>
<linearGradient id="paint22_linear_2_105" x1="192.145" y1="88.3948" x2="183.052" y2="59.5199" gradientUnits="userSpaceOnUse">
<stop stop-color="#FFBF4A"/>
<stop offset="0.12" stop-color="#FFEE7A"/>
<stop offset="0.2" stop-color="#FFFFE1"/>
<stop offset="0.28" stop-color="#FFFFA6"/>
<stop offset="0.37" stop-color="#FFCF5A"/>
<stop offset="0.48" stop-color="#9A5A12"/>
<stop offset="0.65" stop-color="#FFBF4A"/>
<stop offset="1" stop-color="#A86314"/>
</linearGradient>
<linearGradient id="paint23_linear_2_105" x1="197.398" y1="82.5398" x2="212.81" y2="77.59" gradientUnits="userSpaceOnUse">
<stop stop-color="#FFFFA6"/>
<stop offset="1" stop-color="#E9A83D"/>
</linearGradient>
<linearGradient id="paint24_linear_2_105" x1="350.427" y1="65.2569" x2="355.08" y2="58.5439" gradientUnits="userSpaceOnUse">
<stop stop-color="#FFEE7A"/>
<stop offset="1" stop-color="#D3912F"/>
</linearGradient>
<linearGradient id="paint25_linear_2_105" x1="342.39" y1="76.7875" x2="357.18" y2="55.4526" gradientUnits="userSpaceOnUse">
<stop stop-color="#FFDF6A"/>
<stop offset="0.05" stop-color="#FFDF6A"/>
<stop offset="1" stop-color="#BE7A22"/>
</linearGradient>
<linearGradient id="paint26_linear_2_105" x1="365.279" y1="74.4043" x2="335.747" y2="53.8199" gradientUnits="userSpaceOnUse">
<stop stop-color="#FFBF4A"/>
<stop offset="0.12" stop-color="#FFEE7A"/>
<stop offset="0.2" stop-color="#FFFFE1"/>
<stop offset="0.28" stop-color="#FFFFA6"/>
<stop offset="0.37" stop-color="#FFCF5A"/>
<stop offset="0.48" stop-color="#9A5A12"/>
<stop offset="0.65" stop-color="#FFBF4A"/>
<stop offset="1" stop-color="#A86314"/>
</linearGradient>
<linearGradient id="paint27_linear_2_105" x1="293.424" y1="44.3516" x2="296.763" y2="51.7831" gradientUnits="userSpaceOnUse">
<stop stop-color="#FFEE7A"/>
<stop offset="1" stop-color="#D3912F"/>
</linearGradient>
<linearGradient id="paint28_linear_2_105" x1="292.053" y1="40.3294" x2="296.645" y2="52.0791" gradientUnits="userSpaceOnUse">
<stop stop-color="#FFFFA6"/>
<stop offset="1" stop-color="#E9A83D"/>
</linearGradient>
<linearGradient id="paint29_linear_2_105" x1="277.911" y1="52.3412" x2="310.725" y2="37.5168" gradientUnits="userSpaceOnUse">
<stop stop-color="#FFBF4A"/>
<stop offset="0.12" stop-color="#FFEE7A"/>
<stop offset="0.2" stop-color="#FFFFE1"/>
<stop offset="0.28" stop-color="#FFFFA6"/>
<stop offset="0.37" stop-color="#FFCF5A"/>
<stop offset="0.48" stop-color="#9A5A12"/>
<stop offset="0.65" stop-color="#FFBF4A"/>
<stop offset="1" stop-color="#A86314"/>
</linearGradient>
<linearGradient id="paint30_linear_2_105" x1="203.111" y1="66.7209" x2="211.038" y2="55.5252" gradientUnits="userSpaceOnUse">
<stop stop-color="#BE7A22"/>
<stop offset="1" stop-color="#FFCF5A"/>
</linearGradient>
<linearGradient id="paint31_linear_2_105" x1="216.737" y1="48.7795" x2="202.512" y2="67.2521" gradientUnits="userSpaceOnUse">
<stop stop-color="#E9A83D"/>
<stop offset="1" stop-color="#8C5110"/>
</linearGradient>
<linearGradient id="paint32_linear_2_105" x1="218.226" y1="75.2835" x2="189.771" y2="53.2523" gradientUnits="userSpaceOnUse">
<stop stop-color="#BE7A22"/>
<stop offset="0.12" stop-color="#E9A83D"/>
<stop offset="0.22" stop-color="#FFFFE1"/>
<stop offset="0.28" stop-color="#FFFFA6"/>
<stop offset="0.37" stop-color="#FFCF5A"/>
<stop offset="0.38" stop-color="#E6B248"/>
<stop offset="0.4" stop-color="#CB9235"/>
<stop offset="0.42" stop-color="#B57925"/>
<stop offset="0.44" stop-color="#A6681B"/>
<stop offset="0.46" stop-color="#9D5D14"/>
<stop offset="0.48" stop-color="#9A5A12"/>
<stop offset="0.54" stop-color="#9F5F15"/>
<stop offset="0.6" stop-color="#AD6D1C"/>
<stop offset="0.67" stop-color="#C48429"/>
<stop offset="0.75" stop-color="#E4A43B"/>
<stop offset="0.8" stop-color="#FFBF4A"/>
<stop offset="1" stop-color="#8C5110"/>
</linearGradient>
<linearGradient id="paint33_linear_2_105" x1="226.201" y1="14.9914" x2="208.672" y2="19.537" gradientUnits="userSpaceOnUse">
<stop stop-color="#BE7A22"/>
<stop offset="1" stop-color="#FFCF5A"/>
</linearGradient>
<linearGradient id="paint34_linear_2_105" x1="195.996" y1="22.7851" x2="232.009" y2="13.4463" gradientUnits="userSpaceOnUse">
<stop stop-color="#E9A83D"/>
<stop offset="1" stop-color="#8C5110"/>
</linearGradient>
<linearGradient id="paint35_linear_2_105" x1="213.89" y1="40.8534" x2="205.78" y2="9.30051" gradientUnits="userSpaceOnUse">
<stop stop-color="#BE7A22"/>
<stop offset="0.12" stop-color="#E9A83D"/>
<stop offset="0.22" stop-color="#FFFFE1"/>
<stop offset="0.28" stop-color="#FFFFA6"/>
<stop offset="0.37" stop-color="#FFCF5A"/>
<stop offset="0.38" stop-color="#E6B248"/>
<stop offset="0.4" stop-color="#CB9235"/>
<stop offset="0.42" stop-color="#B57925"/>
<stop offset="0.44" stop-color="#A6681B"/>
<stop offset="0.46" stop-color="#9D5D14"/>
<stop offset="0.48" stop-color="#9A5A12"/>
<stop offset="0.54" stop-color="#9F5F15"/>
<stop offset="0.6" stop-color="#AD6D1C"/>
<stop offset="0.67" stop-color="#C48429"/>
<stop offset="0.75" stop-color="#E4A43B"/>
<stop offset="0.8" stop-color="#FFBF4A"/>
<stop offset="1" stop-color="#8C5110"/>
</linearGradient>
<linearGradient id="paint36_linear_2_105" x1="67.9156" y1="106.238" x2="60.583" y2="82.6321" gradientUnits="userSpaceOnUse">
<stop stop-color="#FFEE7A"/>
<stop offset="1" stop-color="#D3912F"/>
</linearGradient>
<linearGradient id="paint37_linear_2_105" x1="49.0723" y1="107.104" x2="78.1552" y2="98.0207" gradientUnits="userSpaceOnUse">
<stop stop-color="#FFBF4A"/>
<stop offset="0.12" stop-color="#FFEE7A"/>
<stop offset="0.2" stop-color="#FFFFE1"/>
<stop offset="0.28" stop-color="#FFFFA6"/>
<stop offset="0.37" stop-color="#FFCF5A"/>
<stop offset="0.48" stop-color="#9A5A12"/>
<stop offset="0.65" stop-color="#FFBF4A"/>
<stop offset="1" stop-color="#A86314"/>
</linearGradient>
<linearGradient id="paint38_linear_2_105" x1="76.8413" y1="134.13" x2="58.8544" y2="77.1503" gradientUnits="userSpaceOnUse">
<stop stop-color="#FFDF6A"/>
<stop offset="0.05" stop-color="#FFDF6A"/>
<stop offset="1" stop-color="#BE7A22"/>
</linearGradient>
<linearGradient id="paint39_linear_2_105" x1="174.3" y1="88.3175" x2="184.735" y2="110.747" gradientUnits="userSpaceOnUse">
<stop stop-color="#FFEE7A"/>
<stop offset="1" stop-color="#D3912F"/>
</linearGradient>
<linearGradient id="paint40_linear_2_105" x1="192.774" y1="84.9083" x2="165.195" y2="97.8096" gradientUnits="userSpaceOnUse">
<stop stop-color="#FFBF4A"/>
<stop offset="0.12" stop-color="#FFEE7A"/>
<stop offset="0.2" stop-color="#FFFFE1"/>
<stop offset="0.28" stop-color="#FFFFA6"/>
<stop offset="0.37" stop-color="#FFCF5A"/>
<stop offset="0.48" stop-color="#9A5A12"/>
<stop offset="0.65" stop-color="#FFBF4A"/>
<stop offset="1" stop-color="#A86314"/>
</linearGradient>
<linearGradient id="paint41_linear_2_105" x1="175.508" y1="90.8322" x2="182.323" y2="105.48" gradientUnits="userSpaceOnUse">
<stop stop-color="#FFFFA6"/>
<stop offset="1" stop-color="#E9A83D"/>
</linearGradient>
<linearGradient id="paint42_linear_2_105" x1="15.9071" y1="95.2771" x2="17.1492" y2="103.341" gradientUnits="userSpaceOnUse">
<stop stop-color="#FFEE7A"/>
<stop offset="1" stop-color="#D3912F"/>
</linearGradient>
<linearGradient id="paint43_linear_2_105" x1="13.7529" y1="81.3672" x2="17.7091" y2="107.051" gradientUnits="userSpaceOnUse">
<stop stop-color="#FFDF6A"/>
<stop offset="0.05" stop-color="#FFDF6A"/>
<stop offset="1" stop-color="#BE7A22"/>
</linearGradient>
<linearGradient id="paint44_linear_2_105" x1="33.2992" y1="93.5406" x2="-2.35224" y2="99.062" gradientUnits="userSpaceOnUse">
<stop stop-color="#FFBF4A"/>
<stop offset="0.12" stop-color="#FFEE7A"/>
<stop offset="0.2" stop-color="#FFFFE1"/>
<stop offset="0.28" stop-color="#FFFFA6"/>
<stop offset="0.37" stop-color="#FFCF5A"/>
<stop offset="0.48" stop-color="#9A5A12"/>
<stop offset="0.65" stop-color="#FFBF4A"/>
<stop offset="1" stop-color="#A86314"/>
</linearGradient>
<linearGradient id="paint45_linear_2_105" x1="72.7309" y1="25.0122" x2="75.952" y2="32.5264" gradientUnits="userSpaceOnUse">
<stop stop-color="#FFEE7A"/>
<stop offset="1" stop-color="#D3912F"/>
</linearGradient>
<linearGradient id="paint46_linear_2_105" x1="70.6785" y1="21.2802" x2="76.2309" y2="32.6367" gradientUnits="userSpaceOnUse">
<stop stop-color="#FFFFA6"/>
<stop offset="1" stop-color="#E9A83D"/>
</linearGradient>
<linearGradient id="paint47_linear_2_105" x1="89.1522" y1="19.0007" x2="56.022" y2="33.2802" gradientUnits="userSpaceOnUse">
<stop stop-color="#FFBF4A"/>
<stop offset="0.12" stop-color="#FFEE7A"/>
<stop offset="0.2" stop-color="#FFFFE1"/>
<stop offset="0.28" stop-color="#FFFFA6"/>
<stop offset="0.37" stop-color="#FFCF5A"/>
<stop offset="0.48" stop-color="#9A5A12"/>
<stop offset="0.65" stop-color="#FFBF4A"/>
<stop offset="1" stop-color="#A86314"/>
</linearGradient>
<linearGradient id="paint48_linear_2_105" x1="306.525" y1="117.203" x2="311.976" y2="129.813" gradientUnits="userSpaceOnUse">
<stop stop-color="#BE7A22"/>
<stop offset="1" stop-color="#FFCF5A"/>
</linearGradient>
<linearGradient id="paint49_linear_2_105" x1="316.151" y1="137.607" x2="306.038" y2="116.564" gradientUnits="userSpaceOnUse">
<stop stop-color="#E9A83D"/>
<stop offset="1" stop-color="#8C5110"/>
</linearGradient>
<linearGradient id="paint50_linear_2_105" x1="323.121" y1="111.935" x2="290.653" y2="127.625" gradientUnits="userSpaceOnUse">
<stop stop-color="#BE7A22"/>
<stop offset="0.12" stop-color="#E9A83D"/>
<stop offset="0.22" stop-color="#FFFFE1"/>
<stop offset="0.28" stop-color="#FFFFA6"/>
<stop offset="0.37" stop-color="#FFCF5A"/>
<stop offset="0.38" stop-color="#E6B248"/>
<stop offset="0.4" stop-color="#CB9235"/>
<stop offset="0.42" stop-color="#B57925"/>
<stop offset="0.44" stop-color="#A6681B"/>
<stop offset="0.46" stop-color="#9D5D14"/>
<stop offset="0.48" stop-color="#9A5A12"/>
<stop offset="0.54" stop-color="#9F5F15"/>
<stop offset="0.6" stop-color="#AD6D1C"/>
<stop offset="0.67" stop-color="#C48429"/>
<stop offset="0.75" stop-color="#E4A43B"/>
<stop offset="0.8" stop-color="#FFBF4A"/>
<stop offset="1" stop-color="#8C5110"/>
</linearGradient>
<linearGradient id="paint51_linear_2_105" x1="100.036" y1="89.6705" x2="114.229" y2="100.89" gradientUnits="userSpaceOnUse">
<stop stop-color="#BE7A22"/>
<stop offset="1" stop-color="#FFCF5A"/>
</linearGradient>
<linearGradient id="paint52_linear_2_105" x1="99.9044" y1="131.748" x2="70.5799" y2="108.671" gradientUnits="userSpaceOnUse">
<stop stop-color="#E9A83D"/>
<stop offset="1" stop-color="#8C5110"/>
</linearGradient>
<linearGradient id="paint53_linear_2_105" x1="75.7758" y1="135.034" x2="95.9237" y2="109.291" gradientUnits="userSpaceOnUse">
<stop stop-color="#BE7A22"/>
<stop offset="0.12" stop-color="#E9A83D"/>
<stop offset="0.22" stop-color="#FFFFE1"/>
<stop offset="0.28" stop-color="#FFFFA6"/>
<stop offset="0.37" stop-color="#FFCF5A"/>
<stop offset="0.38" stop-color="#E6B248"/>
<stop offset="0.4" stop-color="#CB9235"/>
<stop offset="0.42" stop-color="#B57925"/>
<stop offset="0.44" stop-color="#A6681B"/>
<stop offset="0.46" stop-color="#9D5D14"/>
<stop offset="0.48" stop-color="#9A5A12"/>
<stop offset="0.54" stop-color="#9F5F15"/>
<stop offset="0.6" stop-color="#AD6D1C"/>
<stop offset="0.67" stop-color="#C48429"/>
<stop offset="0.75" stop-color="#E4A43B"/>
<stop offset="0.8" stop-color="#FFBF4A"/>
<stop offset="1" stop-color="#8C5110"/>
</linearGradient>
<linearGradient id="paint54_linear_2_105" x1="230.885" y1="155.226" x2="249.176" y2="172.08" gradientUnits="userSpaceOnUse">
<stop stop-color="#FFEE7A"/>
<stop offset="1" stop-color="#D3912F"/>
</linearGradient>
<linearGradient id="paint55_linear_2_105" x1="221.974" y1="171.91" x2="242.637" y2="149.363" gradientUnits="userSpaceOnUse">
<stop stop-color="#FFBF4A"/>
<stop offset="0.12" stop-color="#FFEE7A"/>
<stop offset="0.2" stop-color="#FFFFE1"/>
<stop offset="0.28" stop-color="#FFFFA6"/>
<stop offset="0.37" stop-color="#FFCF5A"/>
<stop offset="0.48" stop-color="#9A5A12"/>
<stop offset="0.65" stop-color="#FFBF4A"/>
<stop offset="1" stop-color="#A86314"/>
</linearGradient>
<linearGradient id="paint56_linear_2_105" x1="209.265" y1="135.144" x2="253.292" y2="176.088" gradientUnits="userSpaceOnUse">
<stop stop-color="#FFDF6A"/>
<stop offset="0.05" stop-color="#FFDF6A"/>
<stop offset="1" stop-color="#BE7A22"/>
</linearGradient>
<linearGradient id="paint57_linear_2_105" x1="392.38" y1="28.9818" x2="373.082" y2="44.3632" gradientUnits="userSpaceOnUse">
<stop stop-color="#FFEE7A"/>
<stop offset="1" stop-color="#D3912F"/>
</linearGradient>
<linearGradient id="paint58_linear_2_105" x1="377.368" y1="17.7083" x2="396.191" y2="41.4543" gradientUnits="userSpaceOnUse">
<stop stop-color="#FFBF4A"/>
<stop offset="0.12" stop-color="#FFEE7A"/>
<stop offset="0.2" stop-color="#FFFFE1"/>
<stop offset="0.28" stop-color="#FFFFA6"/>
<stop offset="0.37" stop-color="#FFCF5A"/>
<stop offset="0.48" stop-color="#9A5A12"/>
<stop offset="0.65" stop-color="#FFBF4A"/>
<stop offset="1" stop-color="#A86314"/>
</linearGradient>
<linearGradient id="paint59_linear_2_105" x1="390.205" y1="30.706" x2="377.613" y2="40.7426" gradientUnits="userSpaceOnUse">
<stop stop-color="#FFFFA6"/>
<stop offset="1" stop-color="#E9A83D"/>
</linearGradient>
<linearGradient id="paint60_linear_2_105" x1="343.657" y1="114.826" x2="338.758" y2="108.276" gradientUnits="userSpaceOnUse">
<stop stop-color="#FFEE7A"/>
<stop offset="1" stop-color="#D3912F"/>
</linearGradient>
<linearGradient id="paint61_linear_2_105" x1="352.117" y1="126.075" x2="336.546" y2="105.257" gradientUnits="userSpaceOnUse">
<stop stop-color="#FFDF6A"/>
<stop offset="0.05" stop-color="#FFDF6A"/>
<stop offset="1" stop-color="#BE7A22"/>
</linearGradient>
<linearGradient id="paint62_linear_2_105" x1="357.063" y1="103.619" x2="328.246" y2="125.29" gradientUnits="userSpaceOnUse">
<stop stop-color="#FFBF4A"/>
<stop offset="0.12" stop-color="#FFEE7A"/>
<stop offset="0.2" stop-color="#FFFFE1"/>
<stop offset="0.28" stop-color="#FFFFA6"/>
<stop offset="0.37" stop-color="#FFCF5A"/>
<stop offset="0.48" stop-color="#9A5A12"/>
<stop offset="0.65" stop-color="#FFBF4A"/>
<stop offset="1" stop-color="#A86314"/>
</linearGradient>
<linearGradient id="paint63_linear_2_105" x1="294.468" y1="58.2143" x2="290.803" y2="50.9448" gradientUnits="userSpaceOnUse">
<stop stop-color="#FFEE7A"/>
<stop offset="1" stop-color="#D3912F"/>
</linearGradient>
<linearGradient id="paint64_linear_2_105" x1="296.023" y1="62.1797" x2="290.914" y2="50.6553" gradientUnits="userSpaceOnUse">
<stop stop-color="#FFFFA6"/>
<stop offset="1" stop-color="#E9A83D"/>
</linearGradient>
<linearGradient id="paint65_linear_2_105" x1="309.594" y1="49.5465" x2="277.507" y2="65.814" gradientUnits="userSpaceOnUse">
<stop stop-color="#FFBF4A"/>
<stop offset="0.12" stop-color="#FFEE7A"/>
<stop offset="0.2" stop-color="#FFFFE1"/>
<stop offset="0.28" stop-color="#FFFFA6"/>
<stop offset="0.37" stop-color="#FFCF5A"/>
<stop offset="0.48" stop-color="#9A5A12"/>
<stop offset="0.65" stop-color="#FFBF4A"/>
<stop offset="1" stop-color="#A86314"/>
</linearGradient>
<linearGradient id="paint66_linear_2_105" x1="504.363" y1="74.2943" x2="501.212" y2="60.9136" gradientUnits="userSpaceOnUse">
<stop stop-color="#BE7A22"/>
<stop offset="1" stop-color="#FFCF5A"/>
</linearGradient>
<linearGradient id="paint67_linear_2_105" x1="503.572" y1="53.0253" x2="507.995" y2="75.8987" gradientUnits="userSpaceOnUse">
<stop stop-color="#E9A83D"/>
<stop offset="1" stop-color="#8C5110"/>
</linearGradient>
<linearGradient id="paint68_linear_2_105" x1="524.521" y1="69.4222" x2="489.158" y2="76.297" gradientUnits="userSpaceOnUse">
<stop stop-color="#BE7A22"/>
<stop offset="0.12" stop-color="#E9A83D"/>
<stop offset="0.22" stop-color="#FFFFE1"/>
<stop offset="0.28" stop-color="#FFFFA6"/>
<stop offset="0.37" stop-color="#FFCF5A"/>
<stop offset="0.38" stop-color="#E6B248"/>
<stop offset="0.4" stop-color="#CB9235"/>
<stop offset="0.42" stop-color="#B57925"/>
<stop offset="0.44" stop-color="#A6681B"/>
<stop offset="0.46" stop-color="#9D5D14"/>
<stop offset="0.48" stop-color="#9A5A12"/>
<stop offset="0.54" stop-color="#9F5F15"/>
<stop offset="0.6" stop-color="#AD6D1C"/>
<stop offset="0.67" stop-color="#C48429"/>
<stop offset="0.75" stop-color="#E4A43B"/>
<stop offset="0.8" stop-color="#FFBF4A"/>
<stop offset="1" stop-color="#8C5110"/>
</linearGradient>
<linearGradient id="paint69_linear_2_105" x1="436.464" y1="83.5202" x2="427.119" y2="98.9928" gradientUnits="userSpaceOnUse">
<stop stop-color="#BE7A22"/>
<stop offset="1" stop-color="#FFCF5A"/>
</linearGradient>
<linearGradient id="paint70_linear_2_105" x1="420.269" y1="110.19" x2="439.468" y2="78.4025" gradientUnits="userSpaceOnUse">
<stop stop-color="#E9A83D"/>
<stop offset="1" stop-color="#8C5110"/>
</linearGradient>
<linearGradient id="paint71_linear_2_105" x1="442.892" y1="108.984" x2="414.892" y2="92.0077" gradientUnits="userSpaceOnUse">
<stop stop-color="#BE7A22"/>
<stop offset="0.12" stop-color="#E9A83D"/>
<stop offset="0.22" stop-color="#FFFFE1"/>
<stop offset="0.28" stop-color="#FFFFA6"/>
<stop offset="0.37" stop-color="#FFCF5A"/>
<stop offset="0.38" stop-color="#E6B248"/>
<stop offset="0.4" stop-color="#CB9235"/>
<stop offset="0.42" stop-color="#B57925"/>
<stop offset="0.44" stop-color="#A6681B"/>
<stop offset="0.46" stop-color="#9D5D14"/>
<stop offset="0.48" stop-color="#9A5A12"/>
<stop offset="0.54" stop-color="#9F5F15"/>
<stop offset="0.6" stop-color="#AD6D1C"/>
<stop offset="0.67" stop-color="#C48429"/>
<stop offset="0.75" stop-color="#E4A43B"/>
<stop offset="0.8" stop-color="#FFBF4A"/>
<stop offset="1" stop-color="#8C5110"/>
</linearGradient>
<clipPath id="clip0_2_105">
<rect width="569" height="153" fill="white" transform="matrix(-1 0 0 1 569 0)"/>
</clipPath>
</defs>
</svg>
