<svg width="569" height="153" viewBox="0 0 569 153" fill="none" xmlns="http://www.w3.org/2000/svg">
<g clip-path="url(#clip0_2_8)">
<path d="M38.2508 47.8486C38.3489 41.6191 30.9977 36.4527 21.8314 36.3091C12.6651 36.1655 5.15477 41.0991 5.05664 47.3286C4.95852 53.558 12.3097 58.7244 21.476 58.8681C30.6424 59.0117 38.1527 54.0781 38.2508 47.8486Z" fill="url(#paint0_linear_2_8)"/>
<path d="M5.09021 44.8349V47.3272C5.19543 41.0965 12.7058 36.1644 21.8735 36.3086C31.0411 36.4529 38.3805 41.5556 38.2885 47.8387V45.3596C38.3805 39.1289 31.028 33.9607 21.8735 33.8164C12.719 33.6721 5.19543 38.6173 5.09021 44.8349Z" fill="url(#paint1_linear_2_8)"/>
<path d="M36.5937 48.2359C36.682 42.6294 30.0647 37.9796 21.8136 37.8503C13.5625 37.7211 6.80199 42.1613 6.71368 47.7678C6.62536 53.3743 13.2426 58.0241 21.4938 58.1534C29.7449 58.2826 36.5054 53.8424 36.5937 48.2359Z" fill="url(#paint2_linear_2_8)"/>
<path d="M21.4921 57.7292C13.3503 57.598 6.80014 53.0725 6.72122 47.5502C6.72122 47.6289 6.72122 47.6945 6.72122 47.76C6.62915 53.3742 13.2977 58.0178 21.5052 58.1489C29.7127 58.2801 36.5128 53.8333 36.5917 48.2323V47.9962C36.3287 53.5316 29.6469 57.8603 21.4921 57.7292Z" fill="#A86314"/>
<path d="M149.589 90.6536C142.5 84.8557 139.961 76.2245 143.92 71.4367C147.879 66.6489 156.837 67.4097 163.926 73.2076C171.016 79.0054 173.554 87.6366 169.595 92.4244C165.636 97.2122 156.679 96.4514 149.589 90.6536Z" fill="url(#paint3_linear_2_8)"/>
<path d="M145.499 69.5216L143.92 71.4367C147.866 66.6227 156.837 67.4097 163.926 73.2076C171.016 79.0054 173.554 87.6366 169.595 92.4244L171.173 90.5093C175.119 85.6952 172.594 77.0903 165.505 71.2924C158.415 65.4946 149.458 64.6945 145.499 69.5216Z" fill="url(#paint4_linear_2_8)"/>
<path d="M168.059 91.6956C171.624 87.3596 169.341 79.6144 162.959 74.3963C156.578 69.1782 148.515 68.4631 144.95 72.7991C141.385 77.1351 143.668 84.8803 150.049 90.0984C156.431 95.3165 164.494 96.0316 168.059 91.6956Z" fill="url(#paint5_linear_2_8)"/>
<path d="M150.3 89.7878C143.999 84.6327 141.698 77.0116 145.038 72.6566L144.907 72.8009C141.342 77.1428 143.592 84.882 149.997 90.1026C156.403 95.3233 164.465 96.0316 168.004 91.7029C168.052 91.6494 168.096 91.5924 168.135 91.5324C164.544 95.6906 156.574 94.9298 150.3 89.7878Z" fill="#A86314"/>
<path d="M12.4822 98.642C9.06242 107.129 4.73507 113.373 2.82788 112.612C0.920692 111.851 2.13077 104.348 5.56371 95.8611C8.99665 87.3742 13.3108 81.1304 15.218 81.8912C17.1252 82.652 15.9151 90.1682 12.4822 98.642Z" fill="url(#paint6_linear_2_8)"/>
<path d="M12.3375 98.5764C9.24658 106.211 5.35328 111.838 3.63024 111.156C1.90719 110.474 3.01205 103.718 6.10301 96.0841C9.19397 88.4499 13.0741 82.8225 14.7972 83.5046C16.5202 84.1867 15.4154 90.9552 12.3375 98.5764Z" fill="url(#paint7_linear_2_8)"/>
<path d="M12.1402 98.5108C9.11503 106.001 5.31381 111.549 3.53815 111.103H3.63022C5.35326 111.785 9.24656 106.158 12.3375 98.5239C15.4285 90.8897 16.5202 84.0949 14.7971 83.4521H14.6919C16.2834 84.3835 15.1654 91.0208 12.1402 98.5108Z" fill="#A86314"/>
<path d="M0.89441 111.838L2.82791 112.612C0.907564 111.838 2.1308 104.348 5.56374 95.8611C8.99668 87.3742 13.3109 81.1304 15.2181 81.8912L13.2977 81.1173C11.3905 80.3565 7.06318 86.6134 3.63024 95.0872C0.197298 103.561 -1.01278 111.064 0.89441 111.838Z" fill="url(#paint8_linear_2_8)"/>
<path d="M99.7789 51.0394C90.8217 49.0718 83.9952 45.7924 84.3767 43.838C84.7581 41.8835 92.4395 41.7917 101.384 43.7593C110.328 45.7269 117.246 49.0062 116.799 50.9607C116.352 52.9151 108.736 52.9938 99.7789 51.0394Z" fill="url(#paint9_linear_2_8)"/>
<path d="M115.144 50.7936C115.544 48.9824 109.334 46.0803 101.275 44.3117C93.2156 42.5431 86.3583 42.5777 85.9586 44.3889C85.559 46.2002 91.7684 49.1022 99.8277 50.8709C107.887 52.6395 114.744 52.6049 115.144 50.7936Z" fill="url(#paint10_linear_2_8)"/>
<path d="M99.8578 50.6196C91.9659 48.8881 85.8366 46.0548 85.9813 44.2446V44.3495C85.5867 46.1466 91.7949 49.0455 99.8578 50.8164C107.921 52.5872 114.773 52.561 115.168 50.8164C115.174 50.7817 115.174 50.7461 115.168 50.7114C114.484 52.4036 107.763 52.4036 99.8578 50.6196Z" fill="#A86314"/>
<path d="M84.8239 41.8179L84.3767 43.838C84.8108 41.831 92.4395 41.7917 101.384 43.7592C110.328 45.7268 117.246 49.0062 116.799 50.9606L117.246 48.9406C117.68 46.9205 110.788 43.6937 101.831 41.7392C92.8736 39.7847 85.258 39.811 84.8239 41.8179Z" fill="url(#paint11_linear_2_8)"/>
<path d="M163.479 74.6636C162.085 65.6258 162.611 58.044 164.65 57.7292C166.688 57.4144 169.477 64.4846 170.871 73.4699C172.265 82.4553 171.739 90.0895 169.7 90.4043C167.662 90.7191 164.873 83.7014 163.479 74.6636Z" fill="url(#paint12_linear_2_8)"/>
<path d="M163.65 74.6373C162.335 66.5046 162.861 59.6836 164.702 59.395C166.544 59.1065 169.043 65.4815 170.292 73.6142C171.542 81.7469 171.081 88.5679 169.24 88.8434C167.399 89.1188 164.899 82.77 163.65 74.6373Z" fill="url(#paint13_linear_2_8)"/>
<path d="M163.847 74.598C162.624 66.6227 163.045 59.9067 164.807 59.3951H164.702C162.861 59.6837 162.387 66.5046 163.65 74.6374C164.913 82.7701 167.412 89.132 169.24 88.8434H169.345C167.517 88.8565 165.084 82.5864 163.847 74.598Z" fill="#7E470D"/>
<path d="M166.702 57.4143L164.65 57.7292C166.688 57.4143 169.477 64.4846 170.871 73.4699C172.265 82.4552 171.739 90.0895 169.7 90.4043L171.752 90.0895C173.791 89.7747 174.383 82.2191 172.923 73.1551C171.463 64.091 168.74 57.0995 166.702 57.4143Z" fill="url(#paint14_linear_2_8)"/>
<path d="M46.417 123.407C51.3494 131.133 50.0341 140.735 43.4576 144.854C36.8811 148.973 27.674 146.035 22.781 138.296C17.8881 130.556 19.1903 120.968 25.7142 116.849C32.2381 112.73 41.5241 115.681 46.417 123.407Z" fill="url(#paint15_linear_2_8)"/>
<path d="M45.2464 124.155C49.6527 131.107 48.4689 139.752 42.6158 143.451C36.7627 147.15 28.4105 144.513 24.0043 137.561C19.598 130.609 20.7686 121.965 26.6349 118.265C32.5011 114.566 40.827 117.203 45.2464 124.155Z" fill="url(#paint16_linear_2_8)"/>
<path d="M41.3794 146.179L43.4839 144.867C36.9074 148.973 27.7003 146.048 22.8073 138.309C17.9144 130.569 19.2166 120.981 25.7405 116.862L23.636 118.174C17.0595 122.279 15.7442 131.881 20.7029 139.607C25.6616 147.333 34.8555 150.311 41.3794 146.179Z" fill="url(#paint17_linear_2_8)"/>
<path d="M44.8913 124.378C49.2581 131.265 48.1401 139.791 42.4185 143.556L42.6026 143.451C48.4689 139.752 49.6527 131.107 45.2332 124.155C40.8138 117.203 32.488 114.566 26.6085 118.265L26.4376 118.383C32.317 114.894 40.5245 117.518 44.8913 124.378Z" fill="#7E470D"/>
<path d="M259.856 64.0822C261.404 58.0464 255.459 51.3164 246.578 49.0505C237.697 46.7846 229.242 49.8407 227.693 55.8766C226.145 61.9125 232.09 68.6424 240.971 70.9083C249.852 73.1742 258.307 70.1181 259.856 64.0822Z" fill="url(#paint18_linear_2_8)"/>
<path d="M260.483 61.7037L259.864 64.1042C261.416 58.0702 255.471 51.3411 246.593 49.0718C237.715 46.8025 229.257 49.8588 227.705 55.8928L228.323 53.4923C229.875 47.4583 238.333 44.402 247.211 46.6713C256.089 48.9406 262.035 55.6698 260.483 61.7037Z" fill="url(#paint19_linear_2_8)"/>
<path d="M258.146 64.0718C259.539 58.6395 254.188 52.5823 246.193 50.5426C238.198 48.5029 230.588 51.2532 229.194 56.6854C227.801 62.1177 233.152 68.1749 241.147 70.2146C249.141 72.2543 256.752 69.5041 258.146 64.0718Z" fill="url(#paint20_linear_2_8)"/>
<path d="M241.266 69.8364C249.158 71.8565 256.668 69.1937 258.207 63.8943C258.207 63.8943 258.207 64.0255 258.207 64.1042C256.813 69.5347 249.21 72.2762 241.213 70.2431C233.216 68.2099 227.876 62.1366 229.257 56.706C229.257 56.706 229.257 56.5748 229.323 56.5092C228.06 61.8873 233.374 67.8163 241.266 69.8364Z" fill="#A86314"/>
<path d="M352.409 76.5262C349.608 85.2361 352.159 93.8279 358.118 95.7299C364.076 97.6319 371.152 92.1096 373.901 83.4128C376.65 74.716 374.151 66.098 368.206 64.196C362.261 62.294 355.184 67.8163 352.409 76.5262Z" fill="url(#paint21_linear_2_8)"/>
<path d="M360.446 96.5301L358.078 95.7693C364.023 97.6713 371.113 92.1489 373.862 83.4522C376.611 74.7554 374.112 66.1374 368.166 64.2354L370.534 64.9962C376.479 66.8982 379.031 75.49 376.242 84.1999C373.454 92.9097 366.43 98.3927 360.446 96.5301Z" fill="url(#paint22_linear_2_8)"/>
<path d="M372.493 82.9484C375.01 75.1109 372.71 67.3707 367.355 65.6604C362.001 63.95 355.619 68.917 353.102 76.7546C350.585 84.5921 352.885 92.3322 358.24 94.0425C363.594 95.7529 369.976 90.7859 372.493 82.9484Z" fill="url(#paint23_linear_2_8)"/>
<path d="M353.488 76.8542C351.002 84.5934 353.211 92.2408 358.42 94.0772H358.223C352.869 92.3719 350.568 84.6327 353.093 76.8017C355.618 68.9707 361.985 63.9992 367.338 65.7045H367.535C362.221 64.196 355.974 69.1281 353.488 76.8542Z" fill="#A86314"/>
<path d="M211.974 59.8017C204.438 65.0486 199.268 70.5841 200.439 72.2762C201.61 73.9683 208.673 71.135 216.223 65.9406C223.773 60.7461 228.942 55.1713 227.771 53.4792C226.6 51.787 219.524 54.5548 211.974 59.8017Z" fill="url(#paint24_linear_2_8)"/>
<path d="M212.079 59.9197C205.279 64.5895 200.636 69.6134 201.689 71.135C202.741 72.6566 209.094 70.1119 215.894 65.4421C222.694 60.7724 227.337 55.7485 226.285 54.2137C225.232 52.679 218.866 55.25 212.079 59.9197Z" fill="url(#paint25_linear_2_8)"/>
<path d="M212.198 60.0903C205.529 64.6682 200.926 69.5872 201.754 71.2137V71.135C200.702 69.6134 205.345 64.5764 212.145 59.9198C218.945 55.2631 225.298 52.6921 226.35 54.2137C226.344 54.244 226.344 54.2753 226.35 54.3056C225.101 52.9676 218.853 55.4992 212.198 60.0903Z" fill="#A86314"/>
<path d="M201.61 73.9552L200.439 72.25C201.61 73.9421 208.673 71.1088 216.223 65.9144C223.772 60.7199 228.942 55.1451 227.771 53.4529L228.942 55.1582C230.112 56.8503 224.996 62.4252 217.393 67.6196C209.791 72.8141 202.78 75.6474 201.61 73.9552Z" fill="url(#paint26_linear_2_8)"/>
<path d="M269.19 69.2986C277.542 73.0764 284.973 74.5455 285.855 72.7353C286.736 70.9251 280.594 66.2816 272.268 62.517C263.942 58.7523 256.484 57.27 255.603 59.0802C254.722 60.8904 260.838 65.5339 269.19 69.2986Z" fill="url(#paint27_linear_2_8)"/>
<path d="M269.256 69.1543C276.779 72.5517 283.487 73.929 284.25 72.25C285.013 70.571 279.554 66.439 272.031 63.0679C264.507 59.6968 257.799 58.2932 257.036 59.9853C256.274 61.6775 261.798 65.7569 269.256 69.1543Z" fill="url(#paint28_linear_2_8)"/>
<path d="M269.348 68.9838C276.726 72.3025 283.316 73.706 284.289 72.1582C284.295 72.1929 284.295 72.2283 284.289 72.2631C283.527 73.9421 276.819 72.5648 269.295 69.1674C261.772 65.7701 256.313 61.6512 257.076 59.9853C257.073 59.9548 257.073 59.9241 257.076 59.8935C256.537 61.6119 261.969 65.6389 269.348 68.9838Z" fill="#A86314"/>
<path d="M286.71 70.8596L285.855 72.7353C286.71 70.8596 280.594 66.2816 272.268 62.517C263.942 58.7523 256.484 57.27 255.603 59.0802L256.537 57.1782C257.378 55.3156 264.836 56.8503 273.188 60.615C281.541 64.3796 287.565 68.9838 286.71 70.8596Z" fill="url(#paint29_linear_2_8)"/>
<path d="M365.089 61.3627C357.854 66.9769 353.027 72.8534 354.303 74.4799C355.579 76.1065 362.458 72.8534 369.679 67.2261C376.9 61.5988 381.74 55.7354 380.478 54.1088C379.215 52.4823 372.283 55.7353 365.089 61.3627Z" fill="url(#paint30_linear_2_8)"/>
<path d="M365.194 61.4938C358.683 66.544 354.343 71.8302 355.474 73.2994C356.605 74.7685 362.826 71.8302 369.324 66.7407C375.821 61.6512 380.175 56.3912 379.044 54.9352C377.913 53.4792 371.705 56.4305 365.194 61.4938Z" fill="url(#paint31_linear_2_8)"/>
<path d="M365.325 61.6512C358.933 66.6227 354.632 71.804 355.553 73.365L355.474 73.2994C354.343 71.8302 358.683 66.544 365.194 61.4938C371.705 56.4437 377.9 53.5054 379.044 54.9352V55.0139C377.794 53.7809 371.705 56.6798 365.325 61.6512Z" fill="#7E470D"/>
<path d="M355.579 76.1065L354.264 74.4799C355.579 76.0934 362.419 72.8534 369.64 67.2261C376.861 61.5988 381.701 55.7353 380.438 54.1088L381.754 55.7485C383.069 57.3619 378.189 63.2384 370.955 68.8657C363.721 74.493 356.842 77.733 355.579 76.1065Z" fill="url(#paint32_linear_2_8)"/>
<path d="M362.344 19.8833C364.639 11.032 360.445 2.29495 352.976 0.368621C345.507 -1.55771 337.592 4.05609 335.297 12.9074C333.001 21.7587 337.195 30.4958 344.664 32.4221C352.133 34.3484 360.048 28.7346 362.344 19.8833Z" fill="url(#paint33_linear_2_8)"/>
<path d="M360.981 19.5351C363.047 11.5675 359.272 3.70282 352.548 1.96876C345.825 0.234701 338.699 5.28796 336.633 13.2555C334.567 21.2231 338.342 29.0879 345.066 30.822C351.789 32.556 358.915 27.5027 360.981 19.5351Z" fill="url(#paint34_linear_2_8)"/>
<path d="M347.082 33.0556L344.675 32.439C352.146 34.3673 360.064 28.7531 362.353 19.8989C364.641 11.0448 360.446 2.30864 352.988 0.380402L355.395 0.996916C362.866 2.92516 367.061 11.6744 364.76 20.5154C362.458 29.3565 354.553 34.9838 347.082 33.0556Z" fill="url(#paint35_linear_2_8)"/>
<path d="M337.059 13.3665C335.008 21.2369 338.69 29.1072 345.293 30.8781H345.083C338.362 29.1335 334.56 21.2762 336.652 13.3009C338.743 5.3256 345.859 0.288557 352.567 2.02004H352.764C346.109 0.459082 339.098 5.483 337.059 13.3665Z" fill="#7E470D"/>
<path d="M520.665 100.093C522.523 94.1445 516.933 87.1184 508.18 84.3997C499.428 81.6809 490.826 84.299 488.969 90.2474C487.111 96.1958 492.7 103.222 501.453 105.941C510.206 108.659 518.807 106.041 520.665 100.093Z" fill="url(#paint36_linear_2_8)"/>
<path d="M519.926 102.472L520.663 100.098C518.808 106.04 510.206 108.664 501.446 105.948C492.686 103.233 487.109 96.2022 488.964 90.2076L488.227 92.5818C486.36 98.537 491.95 105.555 500.71 108.323C509.469 111.09 518.058 108.414 519.926 102.472Z" fill="url(#paint37_linear_2_8)"/>
<path d="M507.957 85.0918C515.849 87.5316 520.873 93.8541 519.203 99.206C517.532 104.558 509.785 106.919 501.906 104.453C494.028 101.987 489.003 95.6906 490.674 90.3387C492.344 84.9869 500.078 82.6389 507.957 85.0918Z" fill="url(#paint38_linear_2_8)"/>
<path d="M507.838 85.4853C515.625 87.8989 520.623 94.1034 519.124 99.4028L519.203 99.206C520.873 93.8542 515.835 87.5316 507.957 85.0918C500.078 82.652 492.344 85 490.674 90.3387C490.668 90.4042 490.668 90.47 490.674 90.5355C492.41 85.341 500.052 83.0718 507.838 85.4853Z" fill="#A86314"/>
<path d="M404.743 105.756C407.384 100.11 402.791 92.3999 394.483 88.5347C386.175 84.6694 377.299 86.1131 374.658 91.7592C372.017 97.4052 376.61 105.116 384.918 108.981C393.226 112.846 402.102 111.403 404.743 105.756Z" fill="url(#paint39_linear_2_8)"/>
<path d="M375.716 89.5123L374.664 91.7685C377.295 86.1149 386.186 84.6721 394.486 88.5417C402.785 92.4113 407.389 100.124 404.758 105.765L405.81 103.508C408.441 97.868 403.851 90.1551 395.538 86.2986C387.225 82.4421 378.36 83.8719 375.716 89.5123Z" fill="url(#paint40_linear_2_8)"/>
<path d="M403.075 105.437C405.452 100.356 401.317 93.416 393.838 89.9367C386.36 86.4574 378.371 87.7562 375.994 92.8376C373.616 97.9191 377.752 104.859 385.23 108.338C392.709 111.818 400.698 110.519 403.075 105.437Z" fill="url(#paint41_linear_2_8)"/>
<path d="M385.436 107.968C378.044 104.532 373.927 97.7106 376.111 92.6605C376.111 92.6605 376.045 92.7785 376.019 92.8441C373.638 97.9205 377.781 104.86 385.226 108.336C392.671 111.812 400.694 110.513 403.075 105.437L403.154 105.253C400.668 110.172 392.789 111.392 385.436 107.968Z" fill="#A86314"/>
<path d="M551.691 102.931C542.641 101.528 535.552 98.7469 535.907 96.7137C536.262 94.6805 543.799 94.169 552.888 95.5594C561.976 96.9498 569.04 99.7438 568.671 101.777C568.303 103.81 560.753 104.322 551.691 102.931Z" fill="url(#paint42_linear_2_8)"/>
<path d="M551.717 102.761C543.562 101.449 537.183 99.0093 537.472 97.1728C537.761 95.3364 544.588 94.8773 552.743 96.1366C560.898 97.3958 567.277 99.8881 566.948 101.777C566.619 103.666 559.872 104.02 551.717 102.761Z" fill="url(#paint43_linear_2_8)"/>
<path d="M551.756 102.564C543.746 101.331 537.459 98.8912 537.498 97.081C537.493 97.1113 537.493 97.1425 537.498 97.1728C537.209 99.0092 543.588 101.502 551.743 102.761C559.898 104.02 566.738 103.548 567.027 101.725V101.62C566.488 103.364 559.753 103.797 551.756 102.564Z" fill="#A86314"/>
<path d="M536.183 94.6674L535.854 96.7137C536.17 94.6806 543.746 94.169 552.835 95.5594C561.924 96.9498 568.987 99.7438 568.619 101.777L568.934 99.7307C569.25 97.6975 562.16 94.9167 553.151 93.5131C544.141 92.1096 536.499 92.5949 536.183 94.6674Z" fill="url(#paint44_linear_2_8)"/>
<path d="M493.291 31.875C484.873 28.2546 478.704 23.7948 479.52 21.9059C480.335 20.017 487.819 21.4205 496.237 25.0278C504.655 28.635 510.837 33.0949 510.022 34.9838C509.206 36.8727 501.67 35.4823 493.291 31.875Z" fill="url(#paint45_linear_2_8)"/>
<path d="M493.291 31.7176C485.715 28.4645 480.138 24.4506 480.901 22.7585C481.664 21.0664 488.372 22.3125 495.948 25.5525C503.524 28.7924 509.101 32.8195 508.351 34.5247C507.602 36.23 500.894 34.9707 493.291 31.7176Z" fill="url(#paint46_linear_2_8)"/>
<path d="M493.383 31.5208C485.952 28.3333 480.467 24.4113 480.954 22.6667V22.7585C480.217 24.4506 485.768 28.4645 493.344 31.7176C500.92 34.9707 507.667 36.2168 508.404 34.5247C508.404 34.5247 508.404 34.5247 508.404 34.4197C507.457 35.9807 500.828 34.7214 493.383 31.5208Z" fill="#A86314"/>
<path d="M480.283 20.0039L479.467 21.9059C480.283 20.017 487.767 21.4205 496.185 25.0278C504.603 28.635 510.785 33.0949 509.969 34.9838L510.785 33.0818C511.6 31.1929 505.431 26.733 497.014 23.1258C488.596 19.5185 481.098 18.115 480.283 20.0039Z" fill="url(#paint47_linear_2_8)"/>
<path d="M258.404 125.388C250.144 121.453 244.173 116.691 245.067 114.894C245.962 113.097 253.393 114.763 261.64 118.725C269.887 122.686 275.872 127.421 274.977 129.218C274.083 131.015 266.664 129.402 258.404 125.388Z" fill="url(#paint48_linear_2_8)"/>
<path d="M258.47 125.283C251.039 121.715 245.672 117.413 246.475 115.799C247.277 114.186 253.959 115.681 261.39 119.249C268.822 122.817 274.201 127.12 273.386 128.733C272.57 130.346 265.902 128.864 258.47 125.283Z" fill="url(#paint49_linear_2_8)"/>
<path d="M258.562 125.1C251.275 121.597 245.962 117.439 246.527 115.708V115.799C245.725 117.465 251.091 121.715 258.523 125.283C265.954 128.851 272.636 130.412 273.438 128.733C273.438 128.733 273.438 128.667 273.438 128.641C272.425 130.163 265.862 128.615 258.562 125.1Z" fill="#7E470D"/>
<path d="M246.014 113.032L245.107 114.894C246.001 113.045 253.433 114.763 261.68 118.725C269.926 122.686 275.911 127.421 275.017 129.218L275.924 127.356C276.819 125.506 270.847 120.797 262.587 116.862C254.327 112.927 246.869 111.182 246.014 113.032Z" fill="url(#paint50_linear_2_8)"/>
<path d="M474.837 106.317C480.896 101.553 481.206 91.8718 475.53 84.6921C469.855 77.5123 460.343 75.5531 454.284 80.3162C448.226 85.0793 447.915 94.7609 453.591 101.941C459.266 109.12 468.779 111.08 474.837 106.317Z" fill="url(#paint51_linear_2_8)"/>
<path d="M474.43 85.5247C479.533 91.9784 479.257 100.701 473.798 104.991C468.34 109.28 459.79 107.509 454.674 101.056C449.557 94.6018 449.847 85.8789 455.305 81.5895C460.764 77.3002 469.313 79.0579 474.43 85.5247Z" fill="url(#paint52_linear_2_8)"/>
<path d="M472.878 107.824L474.824 106.289C468.774 111.051 459.251 109.096 453.582 101.908C447.913 94.7199 448.216 85.0525 454.279 80.2909L452.319 81.8256C446.256 86.5872 445.953 96.2546 451.622 103.456C457.291 110.657 466.814 112.586 472.878 107.824Z" fill="url(#paint53_linear_2_8)"/>
<path d="M474.101 85.7739C479.165 92.1752 478.928 100.78 473.641 105.109L473.798 104.991C479.257 100.701 479.533 91.9784 474.43 85.5247C469.326 79.071 460.751 77.3001 455.305 81.5895L455.147 81.7207C460.606 77.5887 469.037 79.3858 474.101 85.7739Z" fill="#7E470D"/>
<path d="M303.532 146.231C309.727 152.974 318.487 155.02 323.091 150.809C327.695 146.599 326.392 137.692 320.197 130.989C314.002 124.286 305.255 122.201 300.652 126.411C296.048 130.622 297.311 139.502 303.532 146.231Z" fill="url(#paint54_linear_2_8)"/>
<path d="M324.932 149.13L323.104 150.809C327.708 146.599 326.406 137.692 320.21 130.989C314.015 124.286 305.269 122.201 300.665 126.411L302.493 124.732C307.097 120.522 315.857 122.568 322.052 129.31C328.247 136.052 329.523 144.933 324.932 149.13Z" fill="url(#paint55_linear_2_8)"/>
<path d="M304.058 145.759C309.635 151.819 317.514 153.63 321.657 149.878C325.8 146.127 324.643 138.073 319.027 132.039C313.41 126.005 305.571 124.168 301.428 127.907C297.285 131.645 298.482 139.686 304.058 145.759Z" fill="url(#paint56_linear_2_8)"/>
<path d="M304.361 145.471C309.872 151.465 317.619 153.341 321.802 149.734L321.657 149.878C317.514 153.669 309.635 151.819 304.059 145.759C298.482 139.699 297.324 131.698 301.428 127.907L301.586 127.775C297.666 131.619 298.863 139.489 304.361 145.471Z" fill="#A86314"/>
<path d="M215.302 59.8017C221.01 52.6528 221.681 43.7068 216.801 39.8241C211.922 35.9414 203.319 38.591 197.611 45.74C191.903 52.8889 191.219 61.8349 196.112 65.7176C201.005 69.6003 209.58 66.885 215.302 59.8017Z" fill="url(#paint57_linear_2_8)"/>
<path d="M214.855 38.2107L216.801 39.7585C211.908 35.8233 203.319 38.5255 197.611 45.6744C191.903 52.8233 191.219 61.7693 196.112 65.652L194.165 64.1042C189.272 60.169 189.943 51.2886 195.664 44.1266C201.386 36.9645 209.962 34.3279 214.855 38.2107Z" fill="url(#paint58_linear_2_8)"/>
<path d="M214.736 59.2901C219.879 52.8627 220.484 44.8611 216.052 41.3195C211.619 37.7778 203.924 40.2045 198.782 46.6451C193.639 53.0857 193.034 61.0741 197.466 64.6158C201.899 68.1574 209.593 65.7307 214.736 59.2901Z" fill="url(#paint59_linear_2_8)"/>
<path d="M214.447 59.0409C219.524 52.679 220.182 44.7562 215.96 41.1883L216.131 41.3194C220.524 44.8086 219.919 52.8626 214.815 59.2901C209.712 65.7176 201.938 68.118 197.545 64.6157L197.387 64.4846C201.728 67.7901 209.33 65.3896 214.447 59.0409Z" fill="#A86314"/>
<path d="M234.742 122.174C227.429 116.665 220.497 113.517 219.248 115.17C217.998 116.823 222.931 122.607 230.244 128.117C237.557 133.626 244.489 136.774 245.738 135.134C246.988 133.495 242.068 127.697 234.742 122.174Z" fill="url(#paint60_linear_2_8)"/>
<path d="M234.65 122.306C228.073 117.347 221.826 114.527 220.708 115.996C219.59 117.465 224.009 122.699 230.586 127.657C237.162 132.616 243.423 135.449 244.541 133.967C245.659 132.485 241.226 127.277 234.65 122.306Z" fill="url(#paint61_linear_2_8)"/>
<path d="M234.519 122.476C228.06 117.61 221.931 114.789 220.642 116.088V115.996C221.76 114.527 227.995 117.308 234.584 122.306C241.174 127.303 245.593 132.498 244.475 133.967L244.396 134.046C245.357 132.458 240.977 127.343 234.519 122.476Z" fill="#A86314"/>
<path d="M217.998 116.809L219.314 115.17C218.077 116.809 222.996 122.607 230.309 128.117C237.623 133.626 244.554 136.774 245.804 135.134L244.554 136.787C243.239 138.427 236.373 135.279 229.06 129.769C221.747 124.26 216.762 118.462 217.998 116.809Z" fill="url(#paint62_linear_2_8)"/>
<path d="M282.593 41.267C274.398 37.1613 267.006 35.3249 266.086 37.1613C265.165 38.9977 271.044 43.8249 279.239 47.9306C287.433 52.0363 294.825 53.8727 295.746 52.0363C296.667 50.1999 290.735 45.3727 282.593 41.267Z" fill="url(#paint63_linear_2_8)"/>
<path d="M282.514 41.4375C275.148 37.7384 268.493 36.0857 267.664 37.7384C266.835 39.3912 272.123 43.733 279.502 47.419C286.881 51.1049 293.523 52.7708 294.352 51.1181C295.18 49.4653 289.893 45.1104 282.514 41.4375Z" fill="url(#paint64_linear_2_8)"/>
<path d="M282.422 41.608C275.188 37.9745 268.651 36.3611 267.625 37.8171C267.625 37.8171 267.625 37.8171 267.625 37.7253C268.453 36.0725 275.109 37.7253 282.474 41.4244C289.84 45.1235 295.154 49.4522 294.312 51.1049C294.31 51.1355 294.31 51.1662 294.312 51.1968C294.891 49.4653 289.656 45.2284 282.422 41.608Z" fill="#A86314"/>
<path d="M265.152 39.0108L266.086 37.1613C265.152 38.9977 271.044 43.8248 279.239 47.9305C287.433 52.0363 294.825 53.8727 295.746 52.0363L294.812 53.8858C293.891 55.7222 286.499 53.8858 278.305 49.7801C270.111 45.6744 264.218 40.8472 265.152 39.0108Z" fill="url(#paint65_linear_2_8)"/>
<path d="M82.3005 72.2768C82.6938 70.2571 75.7172 67.2069 66.7179 65.464C57.7186 63.7211 50.1044 63.9455 49.7111 65.9652C49.3178 67.9849 56.2944 71.0351 65.2937 72.778C74.293 74.5209 81.9072 74.2965 82.3005 72.2768Z" fill="url(#paint66_linear_2_8)"/>
<path d="M66.6727 65.6389C58.5836 64.0648 51.7309 64.3272 51.3758 66.0849C51.0206 67.8426 57.2946 70.6497 65.3969 72.2238C73.4991 73.7978 80.3519 73.5355 80.707 71.7647C81.0621 69.9938 74.775 67.1998 66.6727 65.6389Z" fill="url(#paint67_linear_2_8)"/>
<path d="M66.6332 65.8357C58.7414 64.301 51.9544 64.5239 51.3626 66.1898C51.3561 66.1551 51.3561 66.1196 51.3626 66.0849C51.7177 64.2747 58.5704 64.0648 66.6595 65.6389C74.7486 67.213 81.0489 69.9545 80.6938 71.7647V71.8696C80.7727 70.0463 74.5908 67.3835 66.6332 65.8357Z" fill="#7E470D"/>
<path d="M49.3107 68L49.7053 65.9799C49.3107 67.9869 56.2818 71.0432 65.2917 72.7878C74.3015 74.5324 81.9039 74.3094 82.2985 72.2894L81.9039 74.3225C81.5093 76.3426 73.8937 76.5656 64.8971 74.821C55.9004 73.0764 48.9161 70.0201 49.3107 68Z" fill="url(#paint68_linear_2_8)"/>
<path d="M143.017 100.653C150.858 95.9169 153.975 86.7427 149.979 80.1618C145.982 73.581 136.386 72.0855 128.544 76.8215C120.703 81.5576 117.586 90.7318 121.582 97.3127C125.579 103.894 135.175 105.389 143.017 100.653Z" fill="url(#paint69_linear_2_8)"/>
<path d="M142.294 99.4636C149.353 95.2004 152.159 86.942 148.561 81.018C144.964 75.094 136.325 73.7476 129.267 78.0109C122.208 82.2741 119.402 90.5325 123 96.4565C126.597 102.38 135.236 103.727 142.294 99.4636Z" fill="url(#paint70_linear_2_8)"/>
<path d="M122.876 99.429L121.56 97.304C125.506 103.863 135.147 105.384 143 100.649C150.852 95.9136 153.956 86.7446 149.958 80.1597L151.273 82.2847C155.219 88.8434 152.154 98.0255 144.315 102.774C136.476 107.522 126.874 106.014 122.876 99.429Z" fill="url(#paint71_linear_2_8)"/>
<path d="M129.478 78.3627C122.494 82.5864 119.679 90.7192 123.112 96.6219C123.07 96.5701 123.034 96.5127 123.007 96.4514C119.403 90.5224 122.205 82.2716 129.268 78.0085C136.331 73.7454 144.96 75.0965 148.563 81.0124L148.669 81.196C144.999 75.4244 136.476 74.1389 129.478 78.3627Z" fill="#7E470D"/>
</g>
<defs>
<linearGradient id="paint0_linear_2_8" x1="21.6668" y1="35.8998" x2="21.2795" y2="60.6229" gradientUnits="userSpaceOnUse">
<stop stop-color="#FFEE7A"/>
<stop offset="1" stop-color="#D3912F"/>
</linearGradient>
<linearGradient id="paint1_linear_2_8" x1="3.83561" y1="40.2136" x2="34.2943" y2="40.688" gradientUnits="userSpaceOnUse">
<stop stop-color="#FFBF4A"/>
<stop offset="0.12" stop-color="#FFEE7A"/>
<stop offset="0.2" stop-color="#FFFFE1"/>
<stop offset="0.28" stop-color="#FFFFA6"/>
<stop offset="0.37" stop-color="#FFCF5A"/>
<stop offset="0.48" stop-color="#9A5A12"/>
<stop offset="0.65" stop-color="#FFBF4A"/>
<stop offset="1" stop-color="#A86314"/>
</linearGradient>
<linearGradient id="paint2_linear_2_8" x1="22.332" y1="6.60922" x2="21.1218" y2="66.3206" gradientUnits="userSpaceOnUse">
<stop stop-color="#FFDF6A"/>
<stop offset="0.05" stop-color="#FFDF6A"/>
<stop offset="1" stop-color="#BE7A22"/>
</linearGradient>
<linearGradient id="paint3_linear_2_8" x1="164.231" y1="72.8335" x2="148.561" y2="91.9956" gradientUnits="userSpaceOnUse">
<stop stop-color="#FFEE7A"/>
<stop offset="1" stop-color="#D3912F"/>
</linearGradient>
<linearGradient id="paint4_linear_2_8" x1="147.111" y1="64.941" x2="170.626" y2="84.2744" gradientUnits="userSpaceOnUse">
<stop stop-color="#FFBF4A"/>
<stop offset="0.12" stop-color="#FFEE7A"/>
<stop offset="0.2" stop-color="#FFFFE1"/>
<stop offset="0.28" stop-color="#FFFFA6"/>
<stop offset="0.37" stop-color="#FFCF5A"/>
<stop offset="0.48" stop-color="#9A5A12"/>
<stop offset="0.65" stop-color="#FFBF4A"/>
<stop offset="1" stop-color="#A86314"/>
</linearGradient>
<linearGradient id="paint5_linear_2_8" x1="162.428" y1="74.98" x2="152.204" y2="87.4837" gradientUnits="userSpaceOnUse">
<stop stop-color="#FFFFA6"/>
<stop offset="1" stop-color="#E9A83D"/>
</linearGradient>
<linearGradient id="paint6_linear_2_8" x1="5.81799" y1="95.7483" x2="13.4014" y2="98.8098" gradientUnits="userSpaceOnUse">
<stop stop-color="#FFEE7A"/>
<stop offset="1" stop-color="#D3912F"/>
</linearGradient>
<linearGradient id="paint7_linear_2_8" x1="-7.27397" y1="90.4918" x2="16.8784" y2="100.242" gradientUnits="userSpaceOnUse">
<stop stop-color="#FFDF6A"/>
<stop offset="0.05" stop-color="#FFDF6A"/>
<stop offset="1" stop-color="#BE7A22"/>
</linearGradient>
<linearGradient id="paint8_linear_2_8" x1="0.165673" y1="112.243" x2="13.582" y2="78.8286" gradientUnits="userSpaceOnUse">
<stop stop-color="#FFBF4A"/>
<stop offset="0.12" stop-color="#FFEE7A"/>
<stop offset="0.2" stop-color="#FFFFE1"/>
<stop offset="0.28" stop-color="#FFFFA6"/>
<stop offset="0.37" stop-color="#FFCF5A"/>
<stop offset="0.48" stop-color="#9A5A12"/>
<stop offset="0.65" stop-color="#FFBF4A"/>
<stop offset="1" stop-color="#A86314"/>
</linearGradient>
<linearGradient id="paint9_linear_2_8" x1="129.497" y1="50.5503" x2="127.785" y2="58.5609" gradientUnits="userSpaceOnUse">
<stop stop-color="#FFEE7A"/>
<stop offset="1" stop-color="#D3912F"/>
</linearGradient>
<linearGradient id="paint10_linear_2_8" x1="102.611" y1="39.7831" x2="99.3047" y2="51.9792" gradientUnits="userSpaceOnUse">
<stop stop-color="#FFFFA6"/>
<stop offset="1" stop-color="#E9A83D"/>
</linearGradient>
<linearGradient id="paint11_linear_2_8" x1="112.193" y1="47.8205" x2="147.555" y2="55.4186" gradientUnits="userSpaceOnUse">
<stop stop-color="#FFBF4A"/>
<stop offset="0.12" stop-color="#FFEE7A"/>
<stop offset="0.2" stop-color="#FFFFE1"/>
<stop offset="0.28" stop-color="#FFFFA6"/>
<stop offset="0.37" stop-color="#FFCF5A"/>
<stop offset="0.48" stop-color="#9A5A12"/>
<stop offset="0.65" stop-color="#FFBF4A"/>
<stop offset="1" stop-color="#A86314"/>
</linearGradient>
<linearGradient id="paint12_linear_2_8" x1="172.453" y1="73.0524" x2="158.942" y2="75.698" gradientUnits="userSpaceOnUse">
<stop stop-color="#BE7A22"/>
<stop offset="1" stop-color="#FFCF5A"/>
</linearGradient>
<linearGradient id="paint13_linear_2_8" x1="150.138" y1="76.69" x2="173.262" y2="73.1212" gradientUnits="userSpaceOnUse">
<stop stop-color="#E9A83D"/>
<stop offset="1" stop-color="#8C5110"/>
</linearGradient>
<linearGradient id="paint14_linear_2_8" x1="167.412" y1="56.4269" x2="172.874" y2="92.0063" gradientUnits="userSpaceOnUse">
<stop stop-color="#BE7A22"/>
<stop offset="0.12" stop-color="#E9A83D"/>
<stop offset="0.22" stop-color="#FFFFE1"/>
<stop offset="0.28" stop-color="#FFFFA6"/>
<stop offset="0.37" stop-color="#FFCF5A"/>
<stop offset="0.38" stop-color="#E6B248"/>
<stop offset="0.4" stop-color="#CB9235"/>
<stop offset="0.42" stop-color="#B57925"/>
<stop offset="0.44" stop-color="#A6681B"/>
<stop offset="0.46" stop-color="#9D5D14"/>
<stop offset="0.48" stop-color="#9A5A12"/>
<stop offset="0.54" stop-color="#9F5F15"/>
<stop offset="0.6" stop-color="#AD6D1C"/>
<stop offset="0.67" stop-color="#C48429"/>
<stop offset="0.75" stop-color="#E4A43B"/>
<stop offset="0.8" stop-color="#FFBF4A"/>
<stop offset="1" stop-color="#8C5110"/>
</linearGradient>
<linearGradient id="paint15_linear_2_8" x1="38.8988" y1="176.75" x2="23.5273" y2="186.36" gradientUnits="userSpaceOnUse">
<stop stop-color="#BE7A22"/>
<stop offset="1" stop-color="#FFCF5A"/>
</linearGradient>
<linearGradient id="paint16_linear_2_8" x1="12.3237" y1="193.275" x2="43.9039" y2="173.53" gradientUnits="userSpaceOnUse">
<stop stop-color="#E9A83D"/>
<stop offset="1" stop-color="#8C5110"/>
</linearGradient>
<linearGradient id="paint17_linear_2_8" x1="35.9087" y1="199.111" x2="18.695" y2="171.428" gradientUnits="userSpaceOnUse">
<stop stop-color="#BE7A22"/>
<stop offset="0.12" stop-color="#E9A83D"/>
<stop offset="0.22" stop-color="#FFFFE1"/>
<stop offset="0.28" stop-color="#FFFFA6"/>
<stop offset="0.37" stop-color="#FFCF5A"/>
<stop offset="0.38" stop-color="#E6B248"/>
<stop offset="0.4" stop-color="#CB9235"/>
<stop offset="0.42" stop-color="#B57925"/>
<stop offset="0.44" stop-color="#A6681B"/>
<stop offset="0.46" stop-color="#9D5D14"/>
<stop offset="0.48" stop-color="#9A5A12"/>
<stop offset="0.54" stop-color="#9F5F15"/>
<stop offset="0.6" stop-color="#AD6D1C"/>
<stop offset="0.67" stop-color="#C48429"/>
<stop offset="0.75" stop-color="#E4A43B"/>
<stop offset="0.8" stop-color="#FFBF4A"/>
<stop offset="1" stop-color="#8C5110"/>
</linearGradient>
<linearGradient id="paint18_linear_2_8" x1="246.522" y1="48.7384" x2="240.412" y2="72.6883" gradientUnits="userSpaceOnUse">
<stop stop-color="#FFEE7A"/>
<stop offset="1" stop-color="#D3912F"/>
</linearGradient>
<linearGradient id="paint19_linear_2_8" x1="260.901" y1="74.8318" x2="231.349" y2="67.1947" gradientUnits="userSpaceOnUse">
<stop stop-color="#FFBF4A"/>
<stop offset="0.12" stop-color="#FFEE7A"/>
<stop offset="0.2" stop-color="#FFFFE1"/>
<stop offset="0.28" stop-color="#FFFFA6"/>
<stop offset="0.37" stop-color="#FFCF5A"/>
<stop offset="0.48" stop-color="#9A5A12"/>
<stop offset="0.65" stop-color="#FFBF4A"/>
<stop offset="1" stop-color="#A86314"/>
</linearGradient>
<linearGradient id="paint20_linear_2_8" x1="253.604" y1="20.2765" x2="239.101" y2="78.2358" gradientUnits="userSpaceOnUse">
<stop stop-color="#FFDF6A"/>
<stop offset="0.05" stop-color="#FFDF6A"/>
<stop offset="1" stop-color="#BE7A22"/>
</linearGradient>
<linearGradient id="paint21_linear_2_8" x1="386.842" y1="72.5189" x2="363.3" y2="65.0643" gradientUnits="userSpaceOnUse">
<stop stop-color="#FFEE7A"/>
<stop offset="1" stop-color="#D3912F"/>
</linearGradient>
<linearGradient id="paint22_linear_2_8" x1="376.855" y1="88.3948" x2="385.948" y2="59.5199" gradientUnits="userSpaceOnUse">
<stop stop-color="#FFBF4A"/>
<stop offset="0.12" stop-color="#FFEE7A"/>
<stop offset="0.2" stop-color="#FFFFE1"/>
<stop offset="0.28" stop-color="#FFFFA6"/>
<stop offset="0.37" stop-color="#FFCF5A"/>
<stop offset="0.48" stop-color="#9A5A12"/>
<stop offset="0.65" stop-color="#FFBF4A"/>
<stop offset="1" stop-color="#A86314"/>
</linearGradient>
<linearGradient id="paint23_linear_2_8" x1="371.602" y1="82.5398" x2="356.19" y2="77.59" gradientUnits="userSpaceOnUse">
<stop stop-color="#FFFFA6"/>
<stop offset="1" stop-color="#E9A83D"/>
</linearGradient>
<linearGradient id="paint24_linear_2_8" x1="218.573" y1="65.2569" x2="213.92" y2="58.5439" gradientUnits="userSpaceOnUse">
<stop stop-color="#FFEE7A"/>
<stop offset="1" stop-color="#D3912F"/>
</linearGradient>
<linearGradient id="paint25_linear_2_8" x1="226.61" y1="76.7875" x2="211.82" y2="55.4526" gradientUnits="userSpaceOnUse">
<stop stop-color="#FFDF6A"/>
<stop offset="0.05" stop-color="#FFDF6A"/>
<stop offset="1" stop-color="#BE7A22"/>
</linearGradient>
<linearGradient id="paint26_linear_2_8" x1="203.721" y1="74.4043" x2="233.253" y2="53.8199" gradientUnits="userSpaceOnUse">
<stop stop-color="#FFBF4A"/>
<stop offset="0.12" stop-color="#FFEE7A"/>
<stop offset="0.2" stop-color="#FFFFE1"/>
<stop offset="0.28" stop-color="#FFFFA6"/>
<stop offset="0.37" stop-color="#FFCF5A"/>
<stop offset="0.48" stop-color="#9A5A12"/>
<stop offset="0.65" stop-color="#FFBF4A"/>
<stop offset="1" stop-color="#A86314"/>
</linearGradient>
<linearGradient id="paint27_linear_2_8" x1="275.576" y1="44.3516" x2="272.237" y2="51.7831" gradientUnits="userSpaceOnUse">
<stop stop-color="#FFEE7A"/>
<stop offset="1" stop-color="#D3912F"/>
</linearGradient>
<linearGradient id="paint28_linear_2_8" x1="276.947" y1="40.3294" x2="272.355" y2="52.0791" gradientUnits="userSpaceOnUse">
<stop stop-color="#FFFFA6"/>
<stop offset="1" stop-color="#E9A83D"/>
</linearGradient>
<linearGradient id="paint29_linear_2_8" x1="291.089" y1="52.3412" x2="258.275" y2="37.5168" gradientUnits="userSpaceOnUse">
<stop stop-color="#FFBF4A"/>
<stop offset="0.12" stop-color="#FFEE7A"/>
<stop offset="0.2" stop-color="#FFFFE1"/>
<stop offset="0.28" stop-color="#FFFFA6"/>
<stop offset="0.37" stop-color="#FFCF5A"/>
<stop offset="0.48" stop-color="#9A5A12"/>
<stop offset="0.65" stop-color="#FFBF4A"/>
<stop offset="1" stop-color="#A86314"/>
</linearGradient>
<linearGradient id="paint30_linear_2_8" x1="365.889" y1="66.7209" x2="357.962" y2="55.5252" gradientUnits="userSpaceOnUse">
<stop stop-color="#BE7A22"/>
<stop offset="1" stop-color="#FFCF5A"/>
</linearGradient>
<linearGradient id="paint31_linear_2_8" x1="352.263" y1="48.7795" x2="366.488" y2="67.2521" gradientUnits="userSpaceOnUse">
<stop stop-color="#E9A83D"/>
<stop offset="1" stop-color="#8C5110"/>
</linearGradient>
<linearGradient id="paint32_linear_2_8" x1="350.774" y1="75.2835" x2="379.229" y2="53.2523" gradientUnits="userSpaceOnUse">
<stop stop-color="#BE7A22"/>
<stop offset="0.12" stop-color="#E9A83D"/>
<stop offset="0.22" stop-color="#FFFFE1"/>
<stop offset="0.28" stop-color="#FFFFA6"/>
<stop offset="0.37" stop-color="#FFCF5A"/>
<stop offset="0.38" stop-color="#E6B248"/>
<stop offset="0.4" stop-color="#CB9235"/>
<stop offset="0.42" stop-color="#B57925"/>
<stop offset="0.44" stop-color="#A6681B"/>
<stop offset="0.46" stop-color="#9D5D14"/>
<stop offset="0.48" stop-color="#9A5A12"/>
<stop offset="0.54" stop-color="#9F5F15"/>
<stop offset="0.6" stop-color="#AD6D1C"/>
<stop offset="0.67" stop-color="#C48429"/>
<stop offset="0.75" stop-color="#E4A43B"/>
<stop offset="0.8" stop-color="#FFBF4A"/>
<stop offset="1" stop-color="#8C5110"/>
</linearGradient>
<linearGradient id="paint33_linear_2_8" x1="342.799" y1="14.9914" x2="360.328" y2="19.537" gradientUnits="userSpaceOnUse">
<stop stop-color="#BE7A22"/>
<stop offset="1" stop-color="#FFCF5A"/>
</linearGradient>
<linearGradient id="paint34_linear_2_8" x1="373.004" y1="22.7851" x2="336.991" y2="13.4463" gradientUnits="userSpaceOnUse">
<stop stop-color="#E9A83D"/>
<stop offset="1" stop-color="#8C5110"/>
</linearGradient>
<linearGradient id="paint35_linear_2_8" x1="355.11" y1="40.8534" x2="363.22" y2="9.30051" gradientUnits="userSpaceOnUse">
<stop stop-color="#BE7A22"/>
<stop offset="0.12" stop-color="#E9A83D"/>
<stop offset="0.22" stop-color="#FFFFE1"/>
<stop offset="0.28" stop-color="#FFFFA6"/>
<stop offset="0.37" stop-color="#FFCF5A"/>
<stop offset="0.38" stop-color="#E6B248"/>
<stop offset="0.4" stop-color="#CB9235"/>
<stop offset="0.42" stop-color="#B57925"/>
<stop offset="0.44" stop-color="#A6681B"/>
<stop offset="0.46" stop-color="#9D5D14"/>
<stop offset="0.48" stop-color="#9A5A12"/>
<stop offset="0.54" stop-color="#9F5F15"/>
<stop offset="0.6" stop-color="#AD6D1C"/>
<stop offset="0.67" stop-color="#C48429"/>
<stop offset="0.75" stop-color="#E4A43B"/>
<stop offset="0.8" stop-color="#FFBF4A"/>
<stop offset="1" stop-color="#8C5110"/>
</linearGradient>
<linearGradient id="paint36_linear_2_8" x1="501.084" y1="106.238" x2="508.417" y2="82.6321" gradientUnits="userSpaceOnUse">
<stop stop-color="#FFEE7A"/>
<stop offset="1" stop-color="#D3912F"/>
</linearGradient>
<linearGradient id="paint37_linear_2_8" x1="519.928" y1="107.104" x2="490.845" y2="98.0207" gradientUnits="userSpaceOnUse">
<stop stop-color="#FFBF4A"/>
<stop offset="0.12" stop-color="#FFEE7A"/>
<stop offset="0.2" stop-color="#FFFFE1"/>
<stop offset="0.28" stop-color="#FFFFA6"/>
<stop offset="0.37" stop-color="#FFCF5A"/>
<stop offset="0.48" stop-color="#9A5A12"/>
<stop offset="0.65" stop-color="#FFBF4A"/>
<stop offset="1" stop-color="#A86314"/>
</linearGradient>
<linearGradient id="paint38_linear_2_8" x1="492.159" y1="134.13" x2="510.146" y2="77.1503" gradientUnits="userSpaceOnUse">
<stop stop-color="#FFDF6A"/>
<stop offset="0.05" stop-color="#FFDF6A"/>
<stop offset="1" stop-color="#BE7A22"/>
</linearGradient>
<linearGradient id="paint39_linear_2_8" x1="394.7" y1="88.3175" x2="384.265" y2="110.747" gradientUnits="userSpaceOnUse">
<stop stop-color="#FFEE7A"/>
<stop offset="1" stop-color="#D3912F"/>
</linearGradient>
<linearGradient id="paint40_linear_2_8" x1="376.226" y1="84.9083" x2="403.805" y2="97.8096" gradientUnits="userSpaceOnUse">
<stop stop-color="#FFBF4A"/>
<stop offset="0.12" stop-color="#FFEE7A"/>
<stop offset="0.2" stop-color="#FFFFE1"/>
<stop offset="0.28" stop-color="#FFFFA6"/>
<stop offset="0.37" stop-color="#FFCF5A"/>
<stop offset="0.48" stop-color="#9A5A12"/>
<stop offset="0.65" stop-color="#FFBF4A"/>
<stop offset="1" stop-color="#A86314"/>
</linearGradient>
<linearGradient id="paint41_linear_2_8" x1="393.492" y1="90.8322" x2="386.677" y2="105.48" gradientUnits="userSpaceOnUse">
<stop stop-color="#FFFFA6"/>
<stop offset="1" stop-color="#E9A83D"/>
</linearGradient>
<linearGradient id="paint42_linear_2_8" x1="553.093" y1="95.2771" x2="551.851" y2="103.341" gradientUnits="userSpaceOnUse">
<stop stop-color="#FFEE7A"/>
<stop offset="1" stop-color="#D3912F"/>
</linearGradient>
<linearGradient id="paint43_linear_2_8" x1="555.247" y1="81.3672" x2="551.291" y2="107.051" gradientUnits="userSpaceOnUse">
<stop stop-color="#FFDF6A"/>
<stop offset="0.05" stop-color="#FFDF6A"/>
<stop offset="1" stop-color="#BE7A22"/>
</linearGradient>
<linearGradient id="paint44_linear_2_8" x1="535.701" y1="93.5406" x2="571.352" y2="99.062" gradientUnits="userSpaceOnUse">
<stop stop-color="#FFBF4A"/>
<stop offset="0.12" stop-color="#FFEE7A"/>
<stop offset="0.2" stop-color="#FFFFE1"/>
<stop offset="0.28" stop-color="#FFFFA6"/>
<stop offset="0.37" stop-color="#FFCF5A"/>
<stop offset="0.48" stop-color="#9A5A12"/>
<stop offset="0.65" stop-color="#FFBF4A"/>
<stop offset="1" stop-color="#A86314"/>
</linearGradient>
<linearGradient id="paint45_linear_2_8" x1="496.269" y1="25.0122" x2="493.048" y2="32.5264" gradientUnits="userSpaceOnUse">
<stop stop-color="#FFEE7A"/>
<stop offset="1" stop-color="#D3912F"/>
</linearGradient>
<linearGradient id="paint46_linear_2_8" x1="498.322" y1="21.2802" x2="492.769" y2="32.6367" gradientUnits="userSpaceOnUse">
<stop stop-color="#FFFFA6"/>
<stop offset="1" stop-color="#E9A83D"/>
</linearGradient>
<linearGradient id="paint47_linear_2_8" x1="479.848" y1="19.0007" x2="512.978" y2="33.2802" gradientUnits="userSpaceOnUse">
<stop stop-color="#FFBF4A"/>
<stop offset="0.12" stop-color="#FFEE7A"/>
<stop offset="0.2" stop-color="#FFFFE1"/>
<stop offset="0.28" stop-color="#FFFFA6"/>
<stop offset="0.37" stop-color="#FFCF5A"/>
<stop offset="0.48" stop-color="#9A5A12"/>
<stop offset="0.65" stop-color="#FFBF4A"/>
<stop offset="1" stop-color="#A86314"/>
</linearGradient>
<linearGradient id="paint48_linear_2_8" x1="262.475" y1="117.203" x2="257.024" y2="129.813" gradientUnits="userSpaceOnUse">
<stop stop-color="#BE7A22"/>
<stop offset="1" stop-color="#FFCF5A"/>
</linearGradient>
<linearGradient id="paint49_linear_2_8" x1="252.848" y1="137.607" x2="262.962" y2="116.564" gradientUnits="userSpaceOnUse">
<stop stop-color="#E9A83D"/>
<stop offset="1" stop-color="#8C5110"/>
</linearGradient>
<linearGradient id="paint50_linear_2_8" x1="245.879" y1="111.935" x2="278.347" y2="127.625" gradientUnits="userSpaceOnUse">
<stop stop-color="#BE7A22"/>
<stop offset="0.12" stop-color="#E9A83D"/>
<stop offset="0.22" stop-color="#FFFFE1"/>
<stop offset="0.28" stop-color="#FFFFA6"/>
<stop offset="0.37" stop-color="#FFCF5A"/>
<stop offset="0.38" stop-color="#E6B248"/>
<stop offset="0.4" stop-color="#CB9235"/>
<stop offset="0.42" stop-color="#B57925"/>
<stop offset="0.44" stop-color="#A6681B"/>
<stop offset="0.46" stop-color="#9D5D14"/>
<stop offset="0.48" stop-color="#9A5A12"/>
<stop offset="0.54" stop-color="#9F5F15"/>
<stop offset="0.6" stop-color="#AD6D1C"/>
<stop offset="0.67" stop-color="#C48429"/>
<stop offset="0.75" stop-color="#E4A43B"/>
<stop offset="0.8" stop-color="#FFBF4A"/>
<stop offset="1" stop-color="#8C5110"/>
</linearGradient>
<linearGradient id="paint51_linear_2_8" x1="468.964" y1="89.6705" x2="454.771" y2="100.89" gradientUnits="userSpaceOnUse">
<stop stop-color="#BE7A22"/>
<stop offset="1" stop-color="#FFCF5A"/>
</linearGradient>
<linearGradient id="paint52_linear_2_8" x1="469.096" y1="131.748" x2="498.42" y2="108.671" gradientUnits="userSpaceOnUse">
<stop stop-color="#E9A83D"/>
<stop offset="1" stop-color="#8C5110"/>
</linearGradient>
<linearGradient id="paint53_linear_2_8" x1="493.224" y1="135.034" x2="473.076" y2="109.291" gradientUnits="userSpaceOnUse">
<stop stop-color="#BE7A22"/>
<stop offset="0.12" stop-color="#E9A83D"/>
<stop offset="0.22" stop-color="#FFFFE1"/>
<stop offset="0.28" stop-color="#FFFFA6"/>
<stop offset="0.37" stop-color="#FFCF5A"/>
<stop offset="0.38" stop-color="#E6B248"/>
<stop offset="0.4" stop-color="#CB9235"/>
<stop offset="0.42" stop-color="#B57925"/>
<stop offset="0.44" stop-color="#A6681B"/>
<stop offset="0.46" stop-color="#9D5D14"/>
<stop offset="0.48" stop-color="#9A5A12"/>
<stop offset="0.54" stop-color="#9F5F15"/>
<stop offset="0.6" stop-color="#AD6D1C"/>
<stop offset="0.67" stop-color="#C48429"/>
<stop offset="0.75" stop-color="#E4A43B"/>
<stop offset="0.8" stop-color="#FFBF4A"/>
<stop offset="1" stop-color="#8C5110"/>
</linearGradient>
<linearGradient id="paint54_linear_2_8" x1="338.115" y1="155.226" x2="319.823" y2="172.08" gradientUnits="userSpaceOnUse">
<stop stop-color="#FFEE7A"/>
<stop offset="1" stop-color="#D3912F"/>
</linearGradient>
<linearGradient id="paint55_linear_2_8" x1="347.026" y1="171.91" x2="326.363" y2="149.363" gradientUnits="userSpaceOnUse">
<stop stop-color="#FFBF4A"/>
<stop offset="0.12" stop-color="#FFEE7A"/>
<stop offset="0.2" stop-color="#FFFFE1"/>
<stop offset="0.28" stop-color="#FFFFA6"/>
<stop offset="0.37" stop-color="#FFCF5A"/>
<stop offset="0.48" stop-color="#9A5A12"/>
<stop offset="0.65" stop-color="#FFBF4A"/>
<stop offset="1" stop-color="#A86314"/>
</linearGradient>
<linearGradient id="paint56_linear_2_8" x1="359.735" y1="135.144" x2="315.708" y2="176.088" gradientUnits="userSpaceOnUse">
<stop stop-color="#FFDF6A"/>
<stop offset="0.05" stop-color="#FFDF6A"/>
<stop offset="1" stop-color="#BE7A22"/>
</linearGradient>
<linearGradient id="paint57_linear_2_8" x1="176.62" y1="28.9818" x2="195.918" y2="44.3632" gradientUnits="userSpaceOnUse">
<stop stop-color="#FFEE7A"/>
<stop offset="1" stop-color="#D3912F"/>
</linearGradient>
<linearGradient id="paint58_linear_2_8" x1="191.632" y1="17.7083" x2="172.808" y2="41.4543" gradientUnits="userSpaceOnUse">
<stop stop-color="#FFBF4A"/>
<stop offset="0.12" stop-color="#FFEE7A"/>
<stop offset="0.2" stop-color="#FFFFE1"/>
<stop offset="0.28" stop-color="#FFFFA6"/>
<stop offset="0.37" stop-color="#FFCF5A"/>
<stop offset="0.48" stop-color="#9A5A12"/>
<stop offset="0.65" stop-color="#FFBF4A"/>
<stop offset="1" stop-color="#A86314"/>
</linearGradient>
<linearGradient id="paint59_linear_2_8" x1="178.795" y1="30.706" x2="191.387" y2="40.7426" gradientUnits="userSpaceOnUse">
<stop stop-color="#FFFFA6"/>
<stop offset="1" stop-color="#E9A83D"/>
</linearGradient>
<linearGradient id="paint60_linear_2_8" x1="225.343" y1="114.826" x2="230.242" y2="108.276" gradientUnits="userSpaceOnUse">
<stop stop-color="#FFEE7A"/>
<stop offset="1" stop-color="#D3912F"/>
</linearGradient>
<linearGradient id="paint61_linear_2_8" x1="216.883" y1="126.075" x2="232.454" y2="105.257" gradientUnits="userSpaceOnUse">
<stop stop-color="#FFDF6A"/>
<stop offset="0.05" stop-color="#FFDF6A"/>
<stop offset="1" stop-color="#BE7A22"/>
</linearGradient>
<linearGradient id="paint62_linear_2_8" x1="211.937" y1="103.619" x2="240.754" y2="125.29" gradientUnits="userSpaceOnUse">
<stop stop-color="#FFBF4A"/>
<stop offset="0.12" stop-color="#FFEE7A"/>
<stop offset="0.2" stop-color="#FFFFE1"/>
<stop offset="0.28" stop-color="#FFFFA6"/>
<stop offset="0.37" stop-color="#FFCF5A"/>
<stop offset="0.48" stop-color="#9A5A12"/>
<stop offset="0.65" stop-color="#FFBF4A"/>
<stop offset="1" stop-color="#A86314"/>
</linearGradient>
<linearGradient id="paint63_linear_2_8" x1="274.532" y1="58.2143" x2="278.197" y2="50.9448" gradientUnits="userSpaceOnUse">
<stop stop-color="#FFEE7A"/>
<stop offset="1" stop-color="#D3912F"/>
</linearGradient>
<linearGradient id="paint64_linear_2_8" x1="272.977" y1="62.1797" x2="278.086" y2="50.6553" gradientUnits="userSpaceOnUse">
<stop stop-color="#FFFFA6"/>
<stop offset="1" stop-color="#E9A83D"/>
</linearGradient>
<linearGradient id="paint65_linear_2_8" x1="259.406" y1="49.5465" x2="291.492" y2="65.814" gradientUnits="userSpaceOnUse">
<stop stop-color="#FFBF4A"/>
<stop offset="0.12" stop-color="#FFEE7A"/>
<stop offset="0.2" stop-color="#FFFFE1"/>
<stop offset="0.28" stop-color="#FFFFA6"/>
<stop offset="0.37" stop-color="#FFCF5A"/>
<stop offset="0.48" stop-color="#9A5A12"/>
<stop offset="0.65" stop-color="#FFBF4A"/>
<stop offset="1" stop-color="#A86314"/>
</linearGradient>
<linearGradient id="paint66_linear_2_8" x1="64.6366" y1="74.2943" x2="67.7879" y2="60.9136" gradientUnits="userSpaceOnUse">
<stop stop-color="#BE7A22"/>
<stop offset="1" stop-color="#FFCF5A"/>
</linearGradient>
<linearGradient id="paint67_linear_2_8" x1="65.4278" y1="53.0253" x2="61.0052" y2="75.8987" gradientUnits="userSpaceOnUse">
<stop stop-color="#E9A83D"/>
<stop offset="1" stop-color="#8C5110"/>
</linearGradient>
<linearGradient id="paint68_linear_2_8" x1="44.4788" y1="69.4222" x2="79.8419" y2="76.297" gradientUnits="userSpaceOnUse">
<stop stop-color="#BE7A22"/>
<stop offset="0.12" stop-color="#E9A83D"/>
<stop offset="0.22" stop-color="#FFFFE1"/>
<stop offset="0.28" stop-color="#FFFFA6"/>
<stop offset="0.37" stop-color="#FFCF5A"/>
<stop offset="0.38" stop-color="#E6B248"/>
<stop offset="0.4" stop-color="#CB9235"/>
<stop offset="0.42" stop-color="#B57925"/>
<stop offset="0.44" stop-color="#A6681B"/>
<stop offset="0.46" stop-color="#9D5D14"/>
<stop offset="0.48" stop-color="#9A5A12"/>
<stop offset="0.54" stop-color="#9F5F15"/>
<stop offset="0.6" stop-color="#AD6D1C"/>
<stop offset="0.67" stop-color="#C48429"/>
<stop offset="0.75" stop-color="#E4A43B"/>
<stop offset="0.8" stop-color="#FFBF4A"/>
<stop offset="1" stop-color="#8C5110"/>
</linearGradient>
<linearGradient id="paint69_linear_2_8" x1="132.535" y1="83.5202" x2="141.88" y2="98.9928" gradientUnits="userSpaceOnUse">
<stop stop-color="#BE7A22"/>
<stop offset="1" stop-color="#FFCF5A"/>
</linearGradient>
<linearGradient id="paint70_linear_2_8" x1="148.731" y1="110.19" x2="129.532" y2="78.4025" gradientUnits="userSpaceOnUse">
<stop stop-color="#E9A83D"/>
<stop offset="1" stop-color="#8C5110"/>
</linearGradient>
<linearGradient id="paint71_linear_2_8" x1="126.108" y1="108.984" x2="154.108" y2="92.0077" gradientUnits="userSpaceOnUse">
<stop stop-color="#BE7A22"/>
<stop offset="0.12" stop-color="#E9A83D"/>
<stop offset="0.22" stop-color="#FFFFE1"/>
<stop offset="0.28" stop-color="#FFFFA6"/>
<stop offset="0.37" stop-color="#FFCF5A"/>
<stop offset="0.38" stop-color="#E6B248"/>
<stop offset="0.4" stop-color="#CB9235"/>
<stop offset="0.42" stop-color="#B57925"/>
<stop offset="0.44" stop-color="#A6681B"/>
<stop offset="0.46" stop-color="#9D5D14"/>
<stop offset="0.48" stop-color="#9A5A12"/>
<stop offset="0.54" stop-color="#9F5F15"/>
<stop offset="0.6" stop-color="#AD6D1C"/>
<stop offset="0.67" stop-color="#C48429"/>
<stop offset="0.75" stop-color="#E4A43B"/>
<stop offset="0.8" stop-color="#FFBF4A"/>
<stop offset="1" stop-color="#8C5110"/>
</linearGradient>
<clipPath id="clip0_2_8">
<rect width="569" height="153" fill="white"/>
</clipPath>
</defs>
</svg>
