<svg width="168" height="83" viewBox="0 0 168 83" fill="none" xmlns="http://www.w3.org/2000/svg">
<path d="M154.93 75.9922C156.408 75.9922 157.607 74.794 157.607 73.3158C157.607 71.8377 156.408 70.6395 154.93 70.6395C153.452 70.6395 152.254 71.8377 152.254 73.3158C152.254 74.794 153.452 75.9922 154.93 75.9922Z" fill="#F3EA1F"/>
<path d="M154.93 75.9463C156.383 75.9463 157.561 74.7686 157.561 73.3158C157.561 71.8631 156.383 70.6854 154.93 70.6854C153.477 70.6854 152.3 71.8631 152.3 73.3158C152.3 74.7686 153.477 75.9463 154.93 75.9463Z" fill="#FBCC22"/>
<path opacity="0.95" d="M154.93 75.804C156.304 75.804 157.418 74.69 157.418 73.3158C157.418 71.9416 156.304 70.8276 154.93 70.8276C153.556 70.8276 152.442 71.9416 152.442 73.3158C152.442 74.69 153.556 75.804 154.93 75.804Z" fill="#A46627"/>
<path d="M154.93 75.7122C156.254 75.7122 157.327 74.6393 157.327 73.3158C157.327 71.9923 156.254 70.9195 154.93 70.9195C153.607 70.9195 152.534 71.9923 152.534 73.3158C152.534 74.6393 153.607 75.7122 154.93 75.7122Z" fill="#D18829"/>
<g style="mix-blend-mode:screen" opacity="0.49">
<path d="M154.93 75.2393C155.993 75.2393 156.854 74.3782 156.854 73.3158C156.854 72.2535 155.993 71.3923 154.93 71.3923C153.868 71.3923 153.007 72.2535 153.007 73.3158C153.007 74.3782 153.868 75.2393 154.93 75.2393Z" fill="#D18829"/>
</g>
<g style="mix-blend-mode:screen" opacity="0.49">
<path d="M153.135 73.3755C153.136 73.0535 153.217 72.7366 153.371 72.454C153.525 72.1714 153.748 71.932 154.019 71.758C154.29 71.5839 154.6 71.4806 154.922 71.4577C155.243 71.4347 155.565 71.4927 155.858 71.6264C155.632 71.5131 155.386 71.4453 155.134 71.427C154.882 71.4087 154.629 71.4402 154.389 71.5197C154.15 71.5992 153.928 71.7252 153.737 71.8904C153.546 72.0556 153.389 72.2568 153.275 72.4826C153.162 72.7084 153.094 72.9543 153.076 73.2062C153.058 73.4582 153.089 73.7113 153.169 73.9511C153.248 74.1909 153.374 74.4126 153.539 74.6037C153.705 74.7948 153.906 74.9515 154.132 75.0649C153.83 74.8978 153.579 74.653 153.403 74.356C153.228 74.0589 153.136 73.7204 153.135 73.3755Z" fill="#D18829"/>
</g>
<g style="mix-blend-mode:screen" opacity="0.28">
<path d="M156.078 71.7688C156.456 72.0953 156.692 72.5561 156.737 73.0537C156.781 73.5512 156.63 74.0465 156.316 74.4348C156.001 74.823 155.548 75.0738 155.053 75.134C154.557 75.1942 154.057 75.0591 153.659 74.7574C153.854 74.9258 154.081 75.0534 154.326 75.1325C154.571 75.2115 154.83 75.2405 155.087 75.2176C155.344 75.1947 155.593 75.1204 155.821 74.9992C156.048 74.878 156.249 74.7123 156.411 74.5119C156.573 74.3116 156.693 74.0807 156.765 73.833C156.836 73.5852 156.857 73.3257 156.826 73.0698C156.794 72.8139 156.712 72.5669 156.584 72.3434C156.455 72.1199 156.283 71.9245 156.078 71.7688Z" fill="#D18829"/>
</g>
<path opacity="0.95" d="M154.93 71.273C154.999 71.273 155.054 71.2175 155.054 71.1491C155.054 71.0806 154.999 71.0251 154.93 71.0251C154.862 71.0251 154.806 71.0806 154.806 71.1491C154.806 71.2175 154.862 71.273 154.93 71.273Z" fill="#A46627"/>
<g style="mix-blend-mode:screen" opacity="0.66">
<path d="M154.921 71.2454C154.979 71.2454 155.027 71.1981 155.027 71.1398C155.027 71.0815 154.979 71.0342 154.921 71.0342C154.863 71.0342 154.815 71.0815 154.815 71.1398C154.815 71.1981 154.863 71.2454 154.921 71.2454Z" fill="#D18829"/>
</g>
<path opacity="0.95" d="M155.67 71.4061C155.738 71.4061 155.794 71.3506 155.794 71.2821C155.794 71.2137 155.738 71.1582 155.67 71.1582C155.601 71.1582 155.546 71.2137 155.546 71.2821C155.546 71.3506 155.601 71.4061 155.67 71.4061Z" fill="#A46627"/>
<g style="mix-blend-mode:screen" opacity="0.66">
<path d="M155.66 71.3693C155.719 71.3693 155.766 71.3221 155.766 71.2638C155.766 71.2054 155.719 71.1582 155.66 71.1582C155.602 71.1582 155.555 71.2054 155.555 71.2638C155.555 71.3221 155.602 71.3693 155.66 71.3693Z" fill="#D18829"/>
</g>
<path opacity="0.95" d="M156.317 71.778C156.385 71.778 156.441 71.7225 156.441 71.654C156.441 71.5856 156.385 71.5301 156.317 71.5301C156.248 71.5301 156.193 71.5856 156.193 71.654C156.193 71.7225 156.248 71.778 156.317 71.778Z" fill="#A46627"/>
<g style="mix-blend-mode:screen" opacity="0.66">
<path d="M156.317 71.7413C156.375 71.7413 156.422 71.694 156.422 71.6357C156.422 71.5774 156.375 71.5301 156.317 71.5301C156.258 71.5301 156.211 71.5774 156.211 71.6357C156.211 71.694 156.258 71.7413 156.317 71.7413Z" fill="#D18829"/>
</g>
<path opacity="0.95" d="M156.799 72.3472C156.867 72.3472 156.923 72.2917 156.923 72.2233C156.923 72.1548 156.867 72.0993 156.799 72.0993C156.73 72.0993 156.675 72.1548 156.675 72.2233C156.675 72.2917 156.73 72.3472 156.799 72.3472Z" fill="#A46627"/>
<g style="mix-blend-mode:screen" opacity="0.66">
<path d="M156.803 72.3105C156.862 72.3105 156.909 72.2632 156.909 72.2049C156.909 72.1466 156.862 72.0993 156.803 72.0993C156.745 72.0993 156.698 72.1466 156.698 72.2049C156.698 72.2632 156.745 72.3105 156.803 72.3105Z" fill="#D18829"/>
</g>
<path opacity="0.95" d="M157.06 73.045C157.129 73.045 157.184 72.9895 157.184 72.921C157.184 72.8526 157.129 72.7971 157.06 72.7971C156.992 72.7971 156.937 72.8526 156.937 72.921C156.937 72.9895 156.992 73.045 157.06 73.045Z" fill="#A46627"/>
<g style="mix-blend-mode:screen" opacity="0.66">
<path d="M157.07 73.0129C157.128 73.0129 157.175 72.9656 157.175 72.9073C157.175 72.849 157.128 72.8017 157.07 72.8017C157.011 72.8017 156.964 72.849 156.964 72.9073C156.964 72.9656 157.011 73.0129 157.07 73.0129Z" fill="#D18829"/>
</g>
<path opacity="0.95" d="M157.07 73.7933C157.138 73.7933 157.193 73.7378 157.193 73.6693C157.193 73.6009 157.138 73.5454 157.07 73.5454C157.001 73.5454 156.946 73.6009 156.946 73.6693C156.946 73.7378 157.001 73.7933 157.07 73.7933Z" fill="#A46627"/>
<g style="mix-blend-mode:screen" opacity="0.66">
<path d="M157.079 73.7658C157.137 73.7658 157.184 73.7185 157.184 73.6602C157.184 73.6019 157.137 73.5546 157.079 73.5546C157.02 73.5546 156.973 73.6019 156.973 73.6602C156.973 73.7185 157.02 73.7658 157.079 73.7658Z" fill="#D18829"/>
</g>
<path opacity="0.95" d="M156.822 74.5002C156.89 74.5002 156.946 74.4447 156.946 74.3762C156.946 74.3078 156.89 74.2523 156.822 74.2523C156.753 74.2523 156.698 74.3078 156.698 74.3762C156.698 74.4447 156.753 74.5002 156.822 74.5002Z" fill="#A46627"/>
<g style="mix-blend-mode:screen" opacity="0.66">
<path d="M156.835 74.4773C156.894 74.4773 156.941 74.43 156.941 74.3717C156.941 74.3134 156.894 74.2661 156.835 74.2661C156.777 74.2661 156.73 74.3134 156.73 74.3717C156.73 74.43 156.777 74.4773 156.835 74.4773Z" fill="#D18829"/>
</g>
<path opacity="0.95" d="M156.349 75.0786C156.417 75.0786 156.473 75.0231 156.473 74.9547C156.473 74.8862 156.417 74.8307 156.349 74.8307C156.28 74.8307 156.225 74.8862 156.225 74.9547C156.225 75.0231 156.28 75.0786 156.349 75.0786Z" fill="#A46627"/>
<g style="mix-blend-mode:screen" opacity="0.66">
<path d="M156.363 75.0603C156.421 75.0603 156.468 75.013 156.468 74.9547C156.468 74.8964 156.421 74.8492 156.363 74.8492C156.304 74.8492 156.257 74.8964 156.257 74.9547C156.257 75.013 156.304 75.0603 156.363 75.0603Z" fill="#D18829"/>
</g>
<path opacity="0.95" d="M155.706 75.4597C155.775 75.4597 155.83 75.4043 155.83 75.3358C155.83 75.2673 155.775 75.2119 155.706 75.2119C155.638 75.2119 155.582 75.2673 155.582 75.3358C155.582 75.4043 155.638 75.4597 155.706 75.4597Z" fill="#A46627"/>
<g style="mix-blend-mode:screen" opacity="0.66">
<path d="M155.72 75.4505C155.778 75.4505 155.825 75.4032 155.825 75.3449C155.825 75.2866 155.778 75.2393 155.72 75.2393C155.662 75.2393 155.614 75.2866 155.614 75.3449C155.614 75.4032 155.662 75.4505 155.72 75.4505Z" fill="#D18829"/>
</g>
<path opacity="0.66" d="M154.972 75.602C155.04 75.602 155.096 75.5465 155.096 75.4781C155.096 75.4096 155.04 75.3541 154.972 75.3541C154.903 75.3541 154.848 75.4096 154.848 75.4781C154.848 75.5465 154.903 75.602 154.972 75.602Z" fill="#A46627"/>
<g style="mix-blend-mode:screen" opacity="0.49">
<path d="M154.981 75.5974C155.039 75.5974 155.086 75.5501 155.086 75.4918C155.086 75.4335 155.039 75.3862 154.981 75.3862C154.923 75.3862 154.875 75.4335 154.875 75.4918C154.875 75.5501 154.923 75.5974 154.981 75.5974Z" fill="#D18829"/>
</g>
<path opacity="0.95" d="M154.232 75.4872C154.301 75.4872 154.356 75.4317 154.356 75.3633C154.356 75.2948 154.301 75.2393 154.232 75.2393C154.164 75.2393 154.108 75.2948 154.108 75.3633C154.108 75.4317 154.164 75.4872 154.232 75.4872Z" fill="#A46627"/>
<g style="mix-blend-mode:screen" opacity="0.66">
<path d="M154.242 75.4827C154.3 75.4827 154.347 75.4354 154.347 75.3771C154.347 75.3188 154.3 75.2715 154.242 75.2715C154.183 75.2715 154.136 75.3188 154.136 75.3771C154.136 75.4354 154.183 75.4827 154.242 75.4827Z" fill="#D18829"/>
</g>
<path opacity="0.95" d="M153.576 75.1292C153.645 75.1292 153.7 75.0737 153.7 75.0053C153.7 74.9368 153.645 74.8813 153.576 74.8813C153.508 74.8813 153.452 74.9368 153.452 75.0053C153.452 75.0737 153.508 75.1292 153.576 75.1292Z" fill="#A46627"/>
<g style="mix-blend-mode:screen" opacity="0.66">
<path d="M153.581 75.1246C153.639 75.1246 153.686 75.0773 153.686 75.019C153.686 74.9607 153.639 74.9134 153.581 74.9134C153.522 74.9134 153.475 74.9607 153.475 75.019C153.475 75.0773 153.522 75.1246 153.581 75.1246Z" fill="#D18829"/>
</g>
<path opacity="0.95" d="M153.085 74.5645C153.153 74.5645 153.209 74.509 153.209 74.4406C153.209 74.3721 153.153 74.3166 153.085 74.3166C153.016 74.3166 152.961 74.3721 152.961 74.4406C152.961 74.509 153.016 74.5645 153.085 74.5645Z" fill="#A46627"/>
<g style="mix-blend-mode:screen" opacity="0.66">
<path d="M153.08 74.5645C153.139 74.5645 153.186 74.5172 153.186 74.4589C153.186 74.4006 153.139 74.3533 153.08 74.3533C153.022 74.3533 152.975 74.4006 152.975 74.4589C152.975 74.5172 153.022 74.5645 153.08 74.5645Z" fill="#D18829"/>
</g>
<path opacity="0.95" d="M152.809 73.8713C152.878 73.8713 152.933 73.8158 152.933 73.7473C152.933 73.6789 152.878 73.6234 152.809 73.6234C152.741 73.6234 152.686 73.6789 152.686 73.7473C152.686 73.8158 152.741 73.8713 152.809 73.8713Z" fill="#A46627"/>
<g style="mix-blend-mode:screen" opacity="0.66">
<path d="M152.8 73.8667C152.859 73.8667 152.906 73.8195 152.906 73.7611C152.906 73.7028 152.859 73.6555 152.8 73.6555C152.742 73.6555 152.695 73.7028 152.695 73.7611C152.695 73.8195 152.742 73.8667 152.8 73.8667Z" fill="#D18829"/>
</g>
<path opacity="0.95" d="M152.791 73.123C152.859 73.123 152.915 73.0675 152.915 72.9991C152.915 72.9306 152.859 72.8751 152.791 72.8751C152.722 72.8751 152.667 72.9306 152.667 72.9991C152.667 73.0675 152.722 73.123 152.791 73.123Z" fill="#A46627"/>
<g style="mix-blend-mode:screen" opacity="0.66">
<path d="M152.777 73.1138C152.836 73.1138 152.883 73.0666 152.883 73.0082C152.883 72.9499 152.836 72.9026 152.777 72.9026C152.719 72.9026 152.672 72.9499 152.672 73.0082C152.672 73.0666 152.719 73.1138 152.777 73.1138Z" fill="#D18829"/>
</g>
<path opacity="0.95" d="M153.025 72.4161C153.094 72.4161 153.149 72.3606 153.149 72.2922C153.149 72.2237 153.094 72.1682 153.025 72.1682C152.957 72.1682 152.901 72.2237 152.901 72.2922C152.901 72.3606 152.957 72.4161 153.025 72.4161Z" fill="#A46627"/>
<g style="mix-blend-mode:screen" opacity="0.66">
<path d="M153.011 72.4023C153.07 72.4023 153.117 72.355 153.117 72.2967C153.117 72.2384 153.07 72.1911 153.011 72.1911C152.953 72.1911 152.906 72.2384 152.906 72.2967C152.906 72.355 152.953 72.4023 153.011 72.4023Z" fill="#D18829"/>
</g>
<path opacity="0.95" d="M153.489 71.8284C153.557 71.8284 153.613 71.7729 153.613 71.7045C153.613 71.636 153.557 71.5805 153.489 71.5805C153.42 71.5805 153.365 71.636 153.365 71.7045C153.365 71.7729 153.42 71.8284 153.489 71.8284Z" fill="#A46627"/>
<g style="mix-blend-mode:screen" opacity="0.66">
<path d="M153.47 71.8055C153.529 71.8055 153.576 71.7583 153.576 71.6999C153.576 71.6416 153.529 71.5944 153.47 71.5944C153.412 71.5944 153.365 71.6416 153.365 71.6999C153.365 71.7583 153.412 71.8055 153.47 71.8055Z" fill="#D18829"/>
</g>
<path opacity="0.95" d="M154.122 71.4336C154.191 71.4336 154.246 71.3781 154.246 71.3097C154.246 71.2412 154.191 71.1857 154.122 71.1857C154.054 71.1857 153.999 71.2412 153.999 71.3097C153.999 71.3781 154.054 71.4336 154.122 71.4336Z" fill="#A46627"/>
<g style="mix-blend-mode:screen" opacity="0.66">
<path d="M154.109 71.4061C154.167 71.4061 154.214 71.3588 154.214 71.3005C154.214 71.2422 154.167 71.1949 154.109 71.1949C154.05 71.1949 154.003 71.2422 154.003 71.3005C154.003 71.3588 154.05 71.4061 154.109 71.4061Z" fill="#D18829"/>
</g>
<g style="mix-blend-mode:screen" opacity="0.17">
<path d="M153.016 73.1506L155.095 75.2302C155.47 75.1985 155.828 75.0581 156.124 74.8262L153.42 72.1223C153.188 72.4184 153.048 72.7758 153.016 73.1506Z" fill="#F6EE6C"/>
</g>
<g style="mix-blend-mode:screen" opacity="0.17">
<path d="M156.836 73.5867L154.66 71.4107C154.352 71.4519 154.06 71.5703 153.81 71.755L156.496 74.436C156.677 74.1848 156.793 73.8933 156.836 73.5867Z" fill="#F6EE6C"/>
</g>
<path d="M155.522 72.7237C155.503 72.6025 155.453 72.4885 155.376 72.3931C155.373 72.3906 155.37 72.3874 155.369 72.3838C155.367 72.3802 155.366 72.3764 155.366 72.3725C155.366 72.3686 155.367 72.3647 155.369 72.3611C155.37 72.3576 155.373 72.3544 155.376 72.3518H155.835C155.838 72.3538 155.842 72.3549 155.846 72.3549C155.85 72.3549 155.854 72.3538 155.858 72.3518L155.945 72.1774C155.948 72.1752 155.95 72.1724 155.952 72.1693C155.953 72.1661 155.954 72.1626 155.954 72.159C155.954 72.1554 155.953 72.1519 155.952 72.1487C155.95 72.1455 155.948 72.1428 155.945 72.1406H153.916C153.908 72.1406 153.901 72.1435 153.896 72.1487C153.891 72.1539 153.888 72.1609 153.888 72.1682V72.338C153.888 72.3453 153.891 72.3524 153.896 72.3575C153.901 72.3627 153.908 72.3656 153.916 72.3656H154.834C154.939 72.3685 155.04 72.4048 155.122 72.4693C155.205 72.5337 155.265 72.6228 155.293 72.7237C155.294 72.7276 155.293 72.7317 155.292 72.7356C155.291 72.7395 155.289 72.7431 155.287 72.7462C155.284 72.7492 155.281 72.7517 155.277 72.7534C155.273 72.755 155.269 72.7558 155.265 72.7558H153.888C153.881 72.7558 153.874 72.7587 153.869 72.7639C153.863 72.769 153.861 72.776 153.861 72.7833V72.9945C153.861 73.0018 153.863 73.0088 153.869 73.014C153.874 73.0192 153.881 73.0221 153.888 73.0221H155.215C155.218 73.0242 155.22 73.027 155.222 73.0302C155.223 73.0333 155.224 73.0369 155.224 73.0404C155.224 73.044 155.223 73.0475 155.222 73.0507C155.22 73.0539 155.218 73.0566 155.215 73.0588C155.174 73.1454 155.109 73.2182 155.028 73.268C154.946 73.3178 154.851 73.3424 154.756 73.3388H153.879C153.875 73.3413 153.872 73.3447 153.87 73.3487C153.868 73.3527 153.867 73.3572 153.867 73.3618C153.867 73.3663 153.868 73.3708 153.87 73.3748C153.872 73.3788 153.875 73.3822 153.879 73.3847L155.21 74.7941H155.454C155.457 74.7922 155.461 74.7893 155.463 74.7856C155.465 74.782 155.467 74.7777 155.467 74.7734C155.467 74.7691 155.465 74.7649 155.463 74.7612C155.461 74.7575 155.457 74.7546 155.454 74.7527L154.366 73.6051C154.362 73.6025 154.359 73.5991 154.357 73.5951C154.354 73.5911 154.353 73.5867 154.353 73.5821C154.353 73.5776 154.354 73.5731 154.357 73.5691C154.359 73.5651 154.362 73.5617 154.366 73.5592H154.719C154.875 73.5589 155.027 73.5077 155.151 73.4132C155.276 73.3187 155.366 73.1862 155.408 73.0358C155.408 73.0358 155.408 73.0358 155.431 73.0358H155.752C155.755 73.0378 155.759 73.0389 155.763 73.0389C155.767 73.0389 155.771 73.0378 155.775 73.0358L155.867 72.8246C155.867 72.8204 155.867 72.8161 155.866 72.812C155.865 72.8078 155.863 72.8039 155.861 72.8005C155.858 72.7971 155.855 72.7942 155.851 72.792C155.848 72.7899 155.843 72.7885 155.839 72.7879H155.449C155.44 72.7782 155.436 72.7655 155.437 72.7525C155.438 72.7396 155.444 72.7276 155.454 72.7191C155.463 72.7105 155.476 72.7062 155.489 72.7071C155.502 72.708 155.514 72.7139 155.522 72.7237Z" fill="#FBCC22"/>
<g style="mix-blend-mode:screen">
<g style="mix-blend-mode:screen">
<path d="M155.261 73.0588C155.263 73.0546 155.264 73.0499 155.264 73.045C155.264 73.0402 155.263 73.0354 155.261 73.0312C155.219 73.1166 155.154 73.1881 155.072 73.237C154.991 73.2859 154.897 73.3101 154.802 73.3067H153.925C153.922 73.3093 153.92 73.3125 153.918 73.316C153.916 73.3196 153.916 73.3235 153.916 73.3274C153.916 73.3313 153.916 73.3351 153.918 73.3387C153.92 73.3422 153.922 73.3454 153.925 73.348H154.802C154.898 73.3508 154.993 73.3248 155.075 73.2733C155.157 73.2218 155.222 73.1471 155.261 73.0588Z" fill="#D18829"/>
</g>
<g style="mix-blend-mode:screen">
<path d="M155.94 72.7237H155.55C155.546 72.7257 155.541 72.7268 155.536 72.7268C155.531 72.7268 155.527 72.7257 155.522 72.7237C155.503 72.6025 155.453 72.4885 155.375 72.3932C155.375 72.3932 155.375 72.3931 155.375 72.4253C155.453 72.5206 155.503 72.6346 155.522 72.7558C155.527 72.7579 155.531 72.7589 155.536 72.7589C155.541 72.7589 155.546 72.7579 155.55 72.7558H155.94C155.943 72.7509 155.944 72.7454 155.944 72.7397C155.944 72.7341 155.943 72.7286 155.94 72.7237Z" fill="#D18829"/>
</g>
<g style="mix-blend-mode:screen">
<path d="M154.448 73.5775V73.6097L155.536 74.762V74.7298L154.448 73.5775Z" fill="#D18829"/>
</g>
<g style="mix-blend-mode:screen">
<path d="M153.911 72.1406H155.94C155.943 72.1385 155.945 72.1357 155.947 72.1326C155.949 72.1294 155.949 72.1259 155.949 72.1223C155.949 72.1187 155.949 72.1152 155.947 72.112C155.945 72.1089 155.943 72.1061 155.94 72.1039H153.911C153.904 72.1039 153.897 72.1068 153.892 72.112C153.886 72.1172 153.884 72.1242 153.884 72.1315V72.159C153.886 72.1534 153.889 72.1486 153.894 72.1452C153.899 72.1419 153.905 72.1403 153.911 72.1406Z" fill="#D18829"/>
</g>
<g style="mix-blend-mode:screen">
<path d="M153.911 72.7558H155.288C155.292 72.7559 155.296 72.7551 155.3 72.7534C155.304 72.7517 155.307 72.7493 155.31 72.7462C155.312 72.7432 155.314 72.7395 155.315 72.7357C155.316 72.7318 155.317 72.7277 155.316 72.7237H153.939C153.931 72.7237 153.924 72.7266 153.919 72.7318C153.914 72.7369 153.911 72.7439 153.911 72.7512V72.7834C153.909 72.7792 153.907 72.7744 153.907 72.7696C153.907 72.7648 153.909 72.76 153.911 72.7558Z" fill="#D18829"/>
</g>
</g>
<g style="mix-blend-mode:multiply" opacity="0.44">
<g style="mix-blend-mode:multiply" opacity="0.44">
<path d="M155.508 73.0082C155.508 73.0082 155.508 73.0082 155.531 73.0082H155.467C155.46 73.0054 155.452 73.0054 155.444 73.0082C155.403 73.159 155.313 73.2919 155.189 73.3865C155.064 73.4811 154.912 73.5321 154.756 73.5316H154.82C154.976 73.5313 155.128 73.4801 155.252 73.3856C155.376 73.2911 155.466 73.1586 155.508 73.0082Z" fill="#A46627"/>
</g>
<g style="mix-blend-mode:multiply" opacity="0.44">
<path d="M155.899 72.1452L155.816 72.3196C155.813 72.3217 155.809 72.3227 155.805 72.3227C155.801 72.3227 155.797 72.3217 155.793 72.3196H155.853C155.856 72.3217 155.86 72.3227 155.864 72.3227C155.868 72.3227 155.872 72.3217 155.876 72.3196L155.963 72.1452C155.966 72.1431 155.968 72.1403 155.97 72.1371C155.971 72.1339 155.972 72.1304 155.972 72.1268C155.972 72.1233 155.971 72.1197 155.97 72.1166C155.968 72.1134 155.966 72.1106 155.963 72.1085H155.899C155.902 72.1106 155.904 72.1134 155.906 72.1166C155.907 72.1197 155.908 72.1233 155.908 72.1268C155.908 72.1304 155.907 72.1339 155.906 72.1371C155.904 72.1403 155.902 72.1431 155.899 72.1452Z" fill="#A46627"/>
</g>
<g style="mix-blend-mode:multiply" opacity="0.44">
<path d="M154.448 73.5775C154.444 73.575 154.441 73.5716 154.439 73.5676C154.437 73.5636 154.436 73.5591 154.436 73.5546C154.436 73.55 154.437 73.5456 154.439 73.5416C154.441 73.5376 154.444 73.5342 154.448 73.5316H154.384C154.38 73.5342 154.377 73.5376 154.375 73.5416C154.373 73.5456 154.372 73.55 154.372 73.5546C154.372 73.5591 154.373 73.5636 154.375 73.5676C154.377 73.5716 154.38 73.575 154.384 73.5775L155.472 74.7252V74.7665H155.536C155.54 74.7647 155.543 74.7617 155.546 74.7581C155.548 74.7544 155.549 74.7502 155.549 74.7459C155.549 74.7416 155.548 74.7373 155.546 74.7337C155.543 74.73 155.54 74.7271 155.536 74.7252L154.448 73.5775Z" fill="#A46627"/>
</g>
<g style="mix-blend-mode:multiply" opacity="0.44">
<path d="M155.523 72.7237C155.503 72.6025 155.453 72.4885 155.376 72.3932C155.373 72.3906 155.37 72.3874 155.369 72.3838C155.367 72.3803 155.366 72.3764 155.366 72.3725C155.366 72.3686 155.367 72.3647 155.369 72.3612C155.37 72.3576 155.373 72.3544 155.376 72.3518H155.316C155.313 72.3544 155.311 72.3576 155.309 72.3612C155.307 72.3647 155.307 72.3686 155.307 72.3725C155.307 72.3764 155.307 72.3803 155.309 72.3838C155.311 72.3874 155.313 72.3906 155.316 72.3932C155.395 72.4874 155.446 72.6019 155.463 72.7237C155.467 72.7257 155.472 72.7268 155.477 72.7268C155.481 72.7268 155.486 72.7257 155.49 72.7237H155.555C155.55 72.7265 155.544 72.728 155.539 72.728C155.533 72.728 155.527 72.7265 155.523 72.7237Z" fill="#A46627"/>
</g>
<g style="mix-blend-mode:multiply" opacity="0.44">
<path d="M155.94 72.7237H155.88C155.88 72.7237 155.908 72.7237 155.88 72.7604L155.789 72.9716C155.789 72.9716 155.789 72.9716 155.766 72.9716H155.83C155.833 72.9736 155.837 72.9747 155.841 72.9747C155.845 72.9747 155.849 72.9736 155.853 72.9716L155.945 72.7604C155.948 72.7546 155.949 72.7479 155.948 72.7413C155.947 72.7347 155.945 72.7286 155.94 72.7237Z" fill="#A46627"/>
</g>
</g>
<path d="M16.6538 41.0477C16.6606 38.2707 17.1643 35.5172 18.1412 32.9176C19.1167 30.2213 20.6153 27.7444 22.551 25.6291C24.4867 23.5138 26.8212 21.8018 29.4206 20.5916C32.3544 19.245 35.5534 18.5751 38.781 18.6313C42.9157 18.6313 46.4903 19.5388 49.5049 21.3536C52.3828 23.0213 54.7217 25.4797 56.244 28.4371L49.537 33.0553C49.0069 31.8709 48.2805 30.7844 47.3886 29.8418C46.5956 29.0167 45.6767 28.3225 44.6663 27.7852C43.7076 27.2851 42.6874 26.9132 41.6318 26.6788C40.6129 26.4518 39.5725 26.3348 38.5285 26.3299C36.5391 26.2839 34.5702 26.7402 32.8039 27.6566C31.2263 28.5076 29.8465 29.6825 28.7549 31.1043C27.6634 32.55 26.8394 34.1794 26.3218 35.9153C25.7839 37.6458 25.507 39.4468 25.5001 41.2589C25.4939 43.2181 25.8182 45.1644 26.4595 47.0157C27.049 48.7802 27.9595 50.4206 29.1451 51.8542C30.2983 53.2407 31.7191 54.3805 33.3227 55.2055C34.9738 56.0575 36.8083 56.4925 38.6662 56.4725C39.7317 56.4675 40.7931 56.3397 41.8292 56.0915C44.0728 55.583 46.1186 54.4293 47.7145 52.7724C48.5816 51.8674 49.2673 50.8046 49.7344 49.6415L56.8867 53.7732C56.1721 55.4498 55.1277 56.9657 53.8156 58.2307C52.4799 59.5232 50.9684 60.6205 49.3259 61.4902C47.6359 62.3849 45.8408 63.065 43.9823 63.5146C42.1606 63.9681 40.291 64.2009 38.4137 64.2079C35.3609 64.2379 32.3451 63.5374 29.618 62.165C27.016 60.8565 24.6869 59.0649 22.7549 56.8857C20.8301 54.7038 19.3098 52.1963 18.2652 49.4809C17.2055 46.7953 16.6589 43.9348 16.6538 41.0477Z" fill="#702313"/>
<path d="M110.148 63.7947V18.8838H118.87V63.7947H110.148Z" fill="#702313"/>
<path d="M136.967 35.0156V63.7947H128.245V18.8838H135.007L158.419 48.3607V18.9481H167.142V63.7947H160.058L136.967 35.0156Z" fill="#702313"/>
<path d="M41.5399 82.0978C34.8923 82.1044 28.3448 80.4781 22.4728 77.362C16.6008 74.2458 11.5839 69.7352 7.86314 64.2265C4.14234 58.7177 1.83144 52.3794 1.1335 45.7685C0.435562 39.1577 1.37194 32.4765 3.86037 26.3123C6.3488 20.148 10.3131 14.6892 15.405 10.4155C20.4968 6.1419 26.5603 3.18424 33.0627 1.80243C39.5652 0.42063 46.3074 0.656971 52.6971 2.4907C59.0868 4.32444 64.9284 7.69944 69.7085 12.3191H69.8186C70.2272 12.3191 70.6358 12.3191 71.0398 12.3513C65.3381 6.57307 58.067 2.59395 50.1266 0.906527C42.1863 -0.7809 33.9254 -0.102534 26.3667 2.85765C18.808 5.81783 12.2834 10.9298 7.6007 17.5608C2.91802 24.1917 0.282888 32.0504 0.0215229 40.1638C-0.239842 48.2773 1.88404 56.2892 6.13024 63.2078C10.3764 70.1264 16.5585 75.6477 23.911 79.0882C31.2635 82.5287 39.4636 83.7374 47.4961 82.5645C55.5286 81.3916 63.0407 77.8887 69.1025 72.4895C68.6434 72.4895 68.2165 72.462 67.7758 72.4344C60.4594 78.6756 51.1566 82.1021 41.5399 82.0978Z" fill="#F5BE25"/>
<path d="M81.736 63.7672C94.0148 63.7672 103.969 53.8132 103.969 41.5344C103.969 29.2555 94.0148 19.3016 81.736 19.3016C69.4571 19.3016 59.5032 29.2555 59.5032 41.5344C59.5032 53.8132 69.4571 63.7672 81.736 63.7672Z" fill="#F3EA1F"/>
<path d="M81.7362 63.3724C93.797 63.3724 103.574 53.5952 103.574 41.5344C103.574 29.4736 93.797 19.6964 81.7362 19.6964C69.6754 19.6964 59.8982 29.4736 59.8982 41.5344C59.8982 53.5952 69.6754 63.3724 81.7362 63.3724Z" fill="#FBCC22"/>
<path opacity="0.95" d="M81.7362 62.2017C93.1505 62.2017 102.404 52.9486 102.404 41.5344C102.404 30.1201 93.1505 20.867 81.7362 20.867C70.3219 20.867 61.0688 30.1201 61.0688 41.5344C61.0688 52.9486 70.3219 62.2017 81.7362 62.2017Z" fill="#A46627"/>
<path d="M81.7361 61.4213C92.7193 61.4213 101.623 52.5177 101.623 41.5344C101.623 30.5511 92.7193 21.6475 81.7361 21.6475C70.7528 21.6475 61.8491 30.5511 61.8491 41.5344C61.8491 52.5177 70.7528 61.4213 81.7361 61.4213Z" fill="#D18829"/>
<g style="mix-blend-mode:screen" opacity="0.49">
<path d="M81.7362 57.51C90.5593 57.51 97.7118 50.3575 97.7118 41.5344C97.7118 32.7113 90.5593 25.5587 81.7362 25.5587C72.913 25.5587 65.7605 32.7113 65.7605 41.5344C65.7605 50.3575 72.913 57.51 81.7362 57.51Z" fill="#D18829"/>
</g>
<g style="mix-blend-mode:screen" opacity="0.49">
<path d="M66.8027 42.0531C66.8034 39.3769 67.4763 36.7437 68.7596 34.3951C70.0429 32.0466 71.8954 30.058 74.1473 28.6117C76.3991 27.1655 78.9781 26.308 81.6476 26.1178C84.3171 25.9277 86.9916 26.4111 89.4257 27.5235C87.5426 26.4855 85.4694 25.8382 83.3303 25.6203C81.1911 25.4025 79.03 25.6186 76.9764 26.2557C74.9227 26.8928 73.0187 27.9378 71.3785 29.3281C69.7382 30.7184 68.3954 32.4255 67.4305 34.347C66.4655 36.2685 65.8983 38.365 65.7627 40.511C65.6272 42.6569 65.9261 44.8081 66.6416 46.8358C67.3571 48.8635 68.4744 50.7259 69.9267 52.3116C71.379 53.8973 73.1363 55.1735 75.0935 56.064C72.5825 54.6862 70.4881 52.6588 69.0295 50.1939C67.5709 47.729 66.8018 44.9173 66.8027 42.0531Z" fill="#D18829"/>
</g>
<g style="mix-blend-mode:screen" opacity="0.28">
<path d="M91.2482 28.6942C94.2985 31.4274 96.1825 35.2277 96.5112 39.3101C96.8398 43.3926 95.588 47.4453 93.0142 50.6313C90.4405 53.8172 86.7414 55.893 82.6811 56.4299C78.6208 56.9667 74.5094 55.9236 71.196 53.5161C72.8131 54.9384 74.701 56.0191 76.7463 56.6933C78.7917 57.3674 80.9522 57.6211 83.098 57.439C85.2439 57.2569 87.3308 56.6428 89.2333 55.6337C91.1358 54.6245 92.8146 53.2412 94.1689 51.5667C95.5231 49.8922 96.5248 47.9612 97.1138 45.8898C97.7028 43.8183 97.8669 41.6492 97.5962 39.5127C97.3256 37.3762 96.6257 35.3165 95.5388 33.4573C94.4518 31.5982 93.0002 29.978 91.2712 28.6942H91.2482Z" fill="#D18829"/>
</g>
<path opacity="0.95" d="M81.7361 24.5854C82.304 24.5854 82.7644 24.1251 82.7644 23.5571C82.7644 22.9892 82.304 22.5288 81.7361 22.5288C81.1682 22.5288 80.7078 22.9892 80.7078 23.5571C80.7078 24.1251 81.1682 24.5854 81.7361 24.5854Z" fill="#A46627"/>
<g style="mix-blend-mode:screen" opacity="0.66">
<path d="M81.6396 24.3284C82.1188 24.3284 82.5073 23.9399 82.5073 23.4607C82.5073 22.9815 82.1188 22.5931 81.6396 22.5931C81.1604 22.5931 80.772 22.9815 80.772 23.4607C80.772 23.9399 81.1604 24.3284 81.6396 24.3284Z" fill="#D18829"/>
</g>
<path opacity="0.95" d="M87.8508 25.6597C88.4188 25.6597 88.8792 25.1993 88.8792 24.6314C88.8792 24.0635 88.4188 23.6031 87.8508 23.6031C87.2829 23.6031 86.8225 24.0635 86.8225 24.6314C86.8225 25.1993 87.2829 25.6597 87.8508 25.6597Z" fill="#A46627"/>
<g style="mix-blend-mode:screen" opacity="0.66">
<path d="M87.7959 25.3705C88.2751 25.3705 88.6635 24.982 88.6635 24.5028C88.6635 24.0236 88.2751 23.6352 87.7959 23.6352C87.3167 23.6352 86.9282 24.0236 86.9282 24.5028C86.9282 24.982 87.3167 25.3705 87.7959 25.3705Z" fill="#D18829"/>
</g>
<path opacity="0.95" d="M93.2405 28.7447C93.8084 28.7447 94.2688 28.2843 94.2688 27.7164C94.2688 27.1484 93.8084 26.688 93.2405 26.688C92.6726 26.688 92.2122 27.1484 92.2122 27.7164C92.2122 28.2843 92.6726 28.7447 93.2405 28.7447Z" fill="#A46627"/>
<g style="mix-blend-mode:screen" opacity="0.66">
<path d="M93.2268 28.4462C93.706 28.4462 94.0944 28.0578 94.0944 27.5786C94.0944 27.0994 93.706 26.7109 93.2268 26.7109C92.7476 26.7109 92.3591 27.0994 92.3591 27.5786C92.3591 28.0578 92.7476 28.4462 93.2268 28.4462Z" fill="#D18829"/>
</g>
<path opacity="0.95" d="M97.2527 33.4823C97.8206 33.4823 98.281 33.0219 98.281 32.454C98.281 31.8861 97.8206 31.4257 97.2527 31.4257C96.6848 31.4257 96.2244 31.8861 96.2244 32.454C96.2244 33.0219 96.6848 33.4823 97.2527 33.4823Z" fill="#A46627"/>
<g style="mix-blend-mode:screen" opacity="0.66">
<path d="M97.2849 33.1885C97.7641 33.1885 98.1525 32.8 98.1525 32.3208C98.1525 31.8416 97.7641 31.4532 97.2849 31.4532C96.8057 31.4532 96.4172 31.8416 96.4172 32.3208C96.4172 32.8 96.8057 33.1885 97.2849 33.1885Z" fill="#D18829"/>
</g>
<path opacity="0.95" d="M99.4148 39.2987C99.9827 39.2987 100.443 38.8383 100.443 38.2704C100.443 37.7025 99.9827 37.2421 99.4148 37.2421C98.8469 37.2421 98.3865 37.7025 98.3865 38.2704C98.3865 38.8383 98.8469 39.2987 99.4148 39.2987Z" fill="#A46627"/>
<g style="mix-blend-mode:screen" opacity="0.66">
<path d="M99.4929 39.0279C99.9721 39.0279 100.361 38.6394 100.361 38.1602C100.361 37.681 99.9721 37.2926 99.4929 37.2926C99.0137 37.2926 98.6252 37.681 98.6252 38.1602C98.6252 38.6394 99.0137 39.0279 99.4929 39.0279Z" fill="#D18829"/>
</g>
<path opacity="0.95" d="M99.47 45.5053C100.038 45.5053 100.498 45.0449 100.498 44.477C100.498 43.9091 100.038 43.4487 99.47 43.4487C98.902 43.4487 98.4417 43.9091 98.4417 44.477C98.4417 45.0449 98.902 45.5053 99.47 45.5053Z" fill="#A46627"/>
<g style="mix-blend-mode:screen" opacity="0.66">
<path d="M99.5849 45.2667C100.064 45.2667 100.453 44.8782 100.453 44.399C100.453 43.9198 100.064 43.5314 99.5849 43.5314C99.1057 43.5314 98.7173 43.9198 98.7173 44.399C98.7173 44.8782 99.1057 45.2667 99.5849 45.2667Z" fill="#D18829"/>
</g>
<path opacity="0.95" d="M97.4133 51.3631C97.9813 51.3631 98.4417 50.9027 98.4417 50.3347C98.4417 49.7668 97.9813 49.3064 97.4133 49.3064C96.8454 49.3064 96.385 49.7668 96.385 50.3347C96.385 50.9027 96.8454 51.3631 97.4133 51.3631Z" fill="#A46627"/>
<g style="mix-blend-mode:screen" opacity="0.66">
<path d="M97.5466 51.1657C98.0258 51.1657 98.4142 50.7772 98.4142 50.2981C98.4142 49.8189 98.0258 49.4304 97.5466 49.4304C97.0674 49.4304 96.679 49.8189 96.679 50.2981C96.679 50.7772 97.0674 51.1657 97.5466 51.1657Z" fill="#D18829"/>
</g>
<path opacity="0.95" d="M93.4836 56.1695C94.0516 56.1695 94.512 55.7091 94.512 55.1412C94.512 54.5732 94.0516 54.1129 93.4836 54.1129C92.9157 54.1129 92.4553 54.5732 92.4553 55.1412C92.4553 55.7091 92.9157 56.1695 93.4836 56.1695Z" fill="#A46627"/>
<g style="mix-blend-mode:screen" opacity="0.66">
<path d="M93.6215 56.0181C94.1007 56.0181 94.4892 55.6296 94.4892 55.1504C94.4892 54.6712 94.1007 54.2828 93.6215 54.2828C93.1424 54.2828 92.7539 54.6712 92.7539 55.1504C92.7539 55.6296 93.1424 56.0181 93.6215 56.0181Z" fill="#D18829"/>
</g>
<path opacity="0.95" d="M88.1541 59.3555C88.722 59.3555 89.1824 58.8951 89.1824 58.3272C89.1824 57.7593 88.722 57.2989 88.1541 57.2989C87.5861 57.2989 87.1257 57.7593 87.1257 58.3272C87.1257 58.8951 87.5861 59.3555 88.1541 59.3555Z" fill="#A46627"/>
<g style="mix-blend-mode:screen" opacity="0.66">
<path d="M88.2824 59.2499C88.7616 59.2499 89.1501 58.8615 89.1501 58.3823C89.1501 57.9031 88.7616 57.5146 88.2824 57.5146C87.8033 57.5146 87.4148 57.9031 87.4148 58.3823C87.4148 58.8615 87.8033 59.2499 88.2824 59.2499Z" fill="#D18829"/>
</g>
<path opacity="0.66" d="M82.062 60.5353C82.6299 60.5353 83.0903 60.0749 83.0903 59.507C83.0903 58.939 82.6299 58.4786 82.062 58.4786C81.4941 58.4786 81.0337 58.939 81.0337 59.507C81.0337 60.0749 81.4941 60.5353 82.062 60.5353Z" fill="#A46627"/>
<g style="mix-blend-mode:screen" opacity="0.49">
<path d="M82.1631 60.4711C82.6422 60.4711 83.0307 60.0826 83.0307 59.6034C83.0307 59.1242 82.6422 58.7358 82.1631 58.7358C81.6839 58.7358 81.2954 59.1242 81.2954 59.6034C81.2954 60.0826 81.6839 60.4711 82.1631 60.4711Z" fill="#D18829"/>
</g>
<path opacity="0.95" d="M75.9289 59.5759C76.4969 59.5759 76.9573 59.1155 76.9573 58.5475C76.9573 57.9796 76.4969 57.5192 75.9289 57.5192C75.361 57.5192 74.9006 57.9796 74.9006 58.5475C74.9006 59.1155 75.361 59.5759 75.9289 59.5759Z" fill="#A46627"/>
<g style="mix-blend-mode:screen" opacity="0.66">
<path d="M75.9885 59.5391C76.4677 59.5391 76.8561 59.1507 76.8561 58.6715C76.8561 58.1923 76.4677 57.8038 75.9885 57.8038C75.5093 57.8038 75.1208 58.1923 75.1208 58.6715C75.1208 59.1507 75.5093 59.5391 75.9885 59.5391Z" fill="#D18829"/>
</g>
<path opacity="0.95" d="M70.489 56.5827C71.0569 56.5827 71.5173 56.1223 71.5173 55.5544C71.5173 54.9865 71.0569 54.5261 70.489 54.5261C69.9211 54.5261 69.4607 54.9865 69.4607 55.5544C69.4607 56.1223 69.9211 56.5827 70.489 56.5827Z" fill="#A46627"/>
<g style="mix-blend-mode:screen" opacity="0.66">
<path d="M70.5027 56.5598C70.9818 56.5598 71.3703 56.1714 71.3703 55.6922C71.3703 55.213 70.9818 54.8245 70.5027 54.8245C70.0235 54.8245 69.635 55.213 69.635 55.6922C69.635 56.1714 70.0235 56.5598 70.5027 56.5598Z" fill="#D18829"/>
</g>
<path opacity="0.95" d="M66.3894 51.9231C66.9573 51.9231 67.4177 51.4627 67.4177 50.8948C67.4177 50.3268 66.9573 49.8665 66.3894 49.8665C65.8215 49.8665 65.3611 50.3268 65.3611 50.8948C65.3611 51.4627 65.8215 51.9231 66.3894 51.9231Z" fill="#A46627"/>
<g style="mix-blend-mode:screen" opacity="0.66">
<path d="M66.3574 51.8956C66.8366 51.8956 67.225 51.5071 67.225 51.028C67.225 50.5488 66.8366 50.1603 66.3574 50.1603C65.8782 50.1603 65.4897 50.5488 65.4897 51.028C65.4897 51.5071 65.8782 51.8956 66.3574 51.8956Z" fill="#D18829"/>
</g>
<path opacity="0.95" d="M64.1216 46.1434C64.6895 46.1434 65.1499 45.683 65.1499 45.1151C65.1499 44.5472 64.6895 44.0868 64.1216 44.0868C63.5537 44.0868 63.0933 44.5472 63.0933 45.1151C63.0933 45.683 63.5537 46.1434 64.1216 46.1434Z" fill="#A46627"/>
<g style="mix-blend-mode:screen" opacity="0.66">
<path d="M64.0434 46.0976C64.5226 46.0976 64.9111 45.7091 64.9111 45.2299C64.9111 44.7507 64.5226 44.3623 64.0434 44.3623C63.5642 44.3623 63.1758 44.7507 63.1758 45.2299C63.1758 45.7091 63.5642 46.0976 64.0434 46.0976Z" fill="#D18829"/>
</g>
<path opacity="0.95" d="M63.9563 39.9368C64.5242 39.9368 64.9846 39.4764 64.9846 38.9085C64.9846 38.3406 64.5242 37.8802 63.9563 37.8802C63.3884 37.8802 62.928 38.3406 62.928 38.9085C62.928 39.4764 63.3884 39.9368 63.9563 39.9368Z" fill="#A46627"/>
<g style="mix-blend-mode:screen" opacity="0.66">
<path d="M63.8415 39.8588C64.3207 39.8588 64.7092 39.4703 64.7092 38.9911C64.7092 38.5119 64.3207 38.1235 63.8415 38.1235C63.3623 38.1235 62.9739 38.5119 62.9739 38.9911C62.9739 39.4703 63.3623 39.8588 63.8415 39.8588Z" fill="#D18829"/>
</g>
<path opacity="0.95" d="M65.9075 34.047C66.4754 34.047 66.9358 33.5866 66.9358 33.0186C66.9358 32.4507 66.4754 31.9903 65.9075 31.9903C65.3395 31.9903 64.8792 32.4507 64.8792 33.0186C64.8792 33.5866 65.3395 34.047 65.9075 34.047Z" fill="#A46627"/>
<g style="mix-blend-mode:screen" opacity="0.66">
<path d="M65.7741 33.9229C66.2533 33.9229 66.6418 33.5345 66.6418 33.0553C66.6418 32.5761 66.2533 32.1877 65.7741 32.1877C65.295 32.1877 64.9065 32.5761 64.9065 33.0553C64.9065 33.5345 65.295 33.9229 65.7741 33.9229Z" fill="#D18829"/>
</g>
<path opacity="0.95" d="M69.7498 29.167C70.3177 29.167 70.7781 28.7066 70.7781 28.1387C70.7781 27.5707 70.3177 27.1104 69.7498 27.1104C69.1818 27.1104 68.7214 27.5707 68.7214 28.1387C68.7214 28.7066 69.1818 29.167 69.7498 29.167Z" fill="#A46627"/>
<g style="mix-blend-mode:screen" opacity="0.66">
<path d="M69.612 29.0017C70.0912 29.0017 70.4797 28.6133 70.4797 28.1341C70.4797 27.6549 70.0912 27.2664 69.612 27.2664C69.1328 27.2664 68.7444 27.6549 68.7444 28.1341C68.7444 28.6133 69.1328 29.0017 69.612 29.0017Z" fill="#D18829"/>
</g>
<path opacity="0.95" d="M75.0198 25.8892C75.5877 25.8892 76.0481 25.4288 76.0481 24.8609C76.0481 24.293 75.5877 23.8326 75.0198 23.8326C74.4519 23.8326 73.9915 24.293 73.9915 24.8609C73.9915 25.4288 74.4519 25.8892 75.0198 25.8892Z" fill="#A46627"/>
<g style="mix-blend-mode:screen" opacity="0.66">
<path d="M74.8913 25.6735C75.3705 25.6735 75.759 25.285 75.759 24.8058C75.759 24.3266 75.3705 23.9382 74.8913 23.9382C74.4121 23.9382 74.0237 24.3266 74.0237 24.8058C74.0237 25.285 74.4121 25.6735 74.8913 25.6735Z" fill="#D18829"/>
</g>
<g style="mix-blend-mode:screen" opacity="0.17">
<path d="M65.8201 40.1893L83.0811 57.4504C86.2005 57.1917 89.174 56.0179 91.629 54.0762L69.1988 31.6414C67.2557 34.0961 66.0804 37.0696 65.8201 40.1893Z" fill="#F6EE6C"/>
</g>
<g style="mix-blend-mode:screen" opacity="0.17">
<path d="M97.5556 43.8022L79.4866 25.7148C76.9307 26.0771 74.5013 27.0555 72.4077 28.5656L94.7048 50.8627C96.2122 48.7744 97.1904 46.3516 97.5556 43.8022Z" fill="#F6EE6C"/>
</g>
<path d="M86.6483 36.457C86.485 35.4483 86.0626 34.4992 85.4225 33.7026C85.3973 33.6715 85.3814 33.6339 85.3767 33.5942C85.3721 33.5544 85.3788 33.5142 85.3961 33.4781C85.4134 33.442 85.4406 33.4116 85.4746 33.3904C85.5085 33.3692 85.5478 33.358 85.5878 33.3583H89.3935C89.4336 33.3582 89.4728 33.3471 89.5068 33.326C89.5409 33.3049 89.5684 33.2748 89.5863 33.2389L90.2933 31.7974C90.31 31.7649 90.318 31.7285 90.3164 31.692C90.3148 31.6554 90.3038 31.6198 90.2844 31.5888C90.2649 31.5578 90.2377 31.5324 90.2055 31.515C90.1733 31.4977 90.1371 31.489 90.1005 31.4899H73.248C73.2197 31.4899 73.1916 31.4955 73.1654 31.5063C73.1392 31.5171 73.1155 31.533 73.0954 31.5531C73.0754 31.5731 73.0595 31.5969 73.0486 31.6231C73.0378 31.6492 73.0322 31.6773 73.0322 31.7056V33.1425C73.0322 33.1709 73.0378 33.1989 73.0486 33.2251C73.0595 33.2513 73.0754 33.2751 73.0954 33.2951C73.1155 33.3151 73.1392 33.331 73.1654 33.3419C73.1916 33.3527 73.2197 33.3583 73.248 33.3583H80.8364C81.724 33.3592 82.5866 33.6518 83.2917 34.1909C83.9967 34.7301 84.5051 35.4859 84.7385 36.3422C84.7478 36.3743 84.7494 36.4081 84.7434 36.4409C84.7374 36.4737 84.7238 36.5047 84.7038 36.5314C84.6838 36.5581 84.6578 36.5798 84.628 36.5947C84.5982 36.6097 84.5653 36.6176 84.5319 36.6177H73.248C73.1908 36.6177 73.1359 36.6404 73.0954 36.6809C73.055 36.7214 73.0322 36.7762 73.0322 36.8335V38.5963C73.0322 38.6535 73.055 38.7084 73.0954 38.7488C73.1359 38.7893 73.1908 38.812 73.248 38.812H84.2657C84.3018 38.8125 84.3373 38.8219 84.3688 38.8396C84.4003 38.8573 84.4269 38.8826 84.4461 38.9132C84.4653 38.9438 84.4764 38.9788 84.4786 39.0148C84.4808 39.0509 84.4739 39.0869 84.4585 39.1196C84.1313 39.8172 83.612 40.407 82.9616 40.8201C82.3111 41.2331 81.5564 41.4522 80.7859 41.4517H73.5464C73.5045 41.4508 73.4634 41.4624 73.4281 41.485C73.3929 41.5075 73.3651 41.5401 73.3484 41.5784C73.3317 41.6168 73.3267 41.6593 73.3342 41.7005C73.3416 41.7417 73.3612 41.7797 73.3903 41.8098L84.408 53.539C84.4291 53.56 84.4541 53.5766 84.4818 53.5876C84.5094 53.5986 84.5389 53.604 84.5687 53.6033L86.5886 53.5757C86.63 53.5745 86.6702 53.5614 86.7044 53.5379C86.7386 53.5144 86.7652 53.4815 86.7812 53.4432C86.7972 53.405 86.8018 53.3629 86.7945 53.3221C86.7872 53.2813 86.7683 53.2434 86.7401 53.2131L77.6964 43.6782C77.6679 43.6476 77.6489 43.6093 77.6418 43.5681C77.6347 43.5268 77.6397 43.4844 77.6562 43.446C77.6728 43.4076 77.7001 43.3748 77.735 43.3516C77.7698 43.3284 77.8106 43.3159 77.8525 43.3155H80.8364C82.1312 43.3132 83.3896 42.8869 84.4192 42.1018C85.4489 41.3168 86.1931 40.2161 86.5381 38.9681C86.551 38.9233 86.5781 38.8838 86.6154 38.8557C86.6526 38.8275 86.698 38.8122 86.7447 38.812H89.4073C89.4496 38.8117 89.4909 38.7988 89.526 38.7752C89.5611 38.7515 89.5885 38.718 89.6047 38.6789L90.3438 36.9161C90.3573 36.8835 90.3626 36.848 90.3593 36.8128C90.3559 36.7777 90.3439 36.7439 90.3244 36.7144C90.3049 36.6849 90.2785 36.6607 90.2475 36.6438C90.2164 36.627 90.1817 36.618 90.1464 36.6177H86.8778C86.8263 36.6247 86.7742 36.612 86.7316 36.5822C86.6891 36.5524 86.6593 36.5077 86.6483 36.457Z" fill="#FBCC22"/>
<g style="mix-blend-mode:screen">
<g style="mix-blend-mode:screen">
<path d="M84.4724 39.4043C84.4895 39.3698 84.4964 39.3313 84.4923 39.293C84.4883 39.2548 84.4734 39.2186 84.4494 39.1885C84.1205 39.8743 83.6049 40.4534 82.9618 40.8594C82.3187 41.2654 81.5741 41.4818 80.8136 41.4839H73.5465C73.5069 41.4834 73.468 41.4941 73.4342 41.5148C73.4003 41.5354 73.373 41.5651 73.3553 41.6006C73.3376 41.636 73.3302 41.6757 73.334 41.7151C73.3377 41.7546 73.3525 41.7921 73.3766 41.8236C73.3968 41.7978 73.4226 41.777 73.452 41.7627C73.4815 41.7484 73.5138 41.7409 73.5465 41.7409H80.8365C81.6015 41.7352 82.3492 41.5126 82.9928 41.099C83.6363 40.6854 84.1494 40.0977 84.4724 39.4043Z" fill="#D18829"/>
</g>
<g style="mix-blend-mode:screen">
<path d="M90.1235 36.6453H86.8549C86.8046 36.6457 86.7558 36.6278 86.7178 36.5948C86.6797 36.5619 86.655 36.5161 86.6483 36.4662C86.485 35.4575 86.0627 34.5084 85.4226 33.7118C85.3932 33.7491 85.3772 33.7952 85.3772 33.8427C85.3772 33.8901 85.3932 33.9362 85.4226 33.9735C86.0627 34.7701 86.485 35.7192 86.6483 36.7279C86.655 36.7778 86.6797 36.8235 86.7178 36.8565C86.7558 36.8895 86.8046 36.9074 86.8549 36.907H90.1235C90.1578 36.9069 90.1917 36.9153 90.2221 36.9313C90.2525 36.9473 90.2785 36.9704 90.2979 36.9988V36.9437C90.311 36.9128 90.3167 36.8792 90.3145 36.8458C90.3124 36.8123 90.3024 36.7798 90.2855 36.7508C90.2685 36.7218 90.2451 36.6972 90.217 36.6789C90.1888 36.6606 90.1568 36.6491 90.1235 36.6453Z" fill="#D18829"/>
</g>
<g style="mix-blend-mode:screen">
<path d="M77.7147 43.7058C77.6814 43.7448 77.6631 43.7945 77.6631 43.8458C77.6631 43.8971 77.6814 43.9468 77.7147 43.9858L86.7584 53.5207C86.7917 53.4816 86.81 53.432 86.81 53.3807C86.81 53.3294 86.7917 53.2797 86.7584 53.2407L77.7147 43.7058Z" fill="#D18829"/>
</g>
<g style="mix-blend-mode:screen">
<path d="M73.248 31.7791H90.1005C90.1342 31.7796 90.1674 31.7877 90.1976 31.8028C90.2278 31.8179 90.2543 31.8396 90.2749 31.8663V31.825C90.2916 31.7924 90.2996 31.7561 90.298 31.7195C90.2965 31.6829 90.2854 31.6474 90.266 31.6164C90.2465 31.5854 90.2194 31.5599 90.1871 31.5426C90.1549 31.5252 90.1187 31.5166 90.0821 31.5174H73.248C73.1908 31.5174 73.1359 31.5402 73.0954 31.5806C73.055 31.6211 73.0322 31.676 73.0322 31.7332V31.9903C73.0334 31.9338 73.0567 31.8801 73.097 31.8407C73.1374 31.8012 73.1916 31.7791 73.248 31.7791Z" fill="#D18829"/>
</g>
<g style="mix-blend-mode:screen">
<path d="M73.248 36.9161H84.509C84.5424 36.916 84.5752 36.9081 84.6051 36.8931C84.6349 36.8782 84.6608 36.8565 84.6808 36.8298C84.7009 36.8031 84.7144 36.7721 84.7204 36.7393C84.7265 36.7065 84.7248 36.6727 84.7156 36.6406C84.7085 36.6109 84.6993 36.5818 84.688 36.5534C84.6696 36.5844 84.6434 36.61 84.612 36.6278C84.5806 36.6455 84.5451 36.6547 84.509 36.6544H73.248C73.1908 36.6544 73.1359 36.6771 73.0954 36.7176C73.055 36.7581 73.0322 36.8129 73.0322 36.8702V37.1318C73.0322 37.0746 73.055 37.0197 73.0954 36.9793C73.1359 36.9388 73.1908 36.9161 73.248 36.9161Z" fill="#D18829"/>
</g>
</g>
<g style="mix-blend-mode:multiply" opacity="0.44">
<g style="mix-blend-mode:multiply" opacity="0.44">
<path d="M86.515 38.9957C86.5279 38.9509 86.5551 38.9114 86.5923 38.8832C86.6296 38.8551 86.6749 38.8398 86.7216 38.8396H86.1983C86.152 38.8393 86.1069 38.8544 86.0703 38.8827C86.0337 38.911 86.0076 38.9508 85.9963 38.9957C85.6511 40.2445 84.9062 41.3457 83.8756 42.1308C82.8451 42.916 81.5856 43.3418 80.29 43.3431H80.8363C82.1272 43.3358 83.3803 42.9072 84.4053 42.1225C85.4303 41.3378 86.1711 40.2399 86.515 38.9957Z" fill="#A46627"/>
</g>
<g style="mix-blend-mode:multiply" opacity="0.44">
<path d="M89.7745 31.825L89.0676 33.2665C89.0497 33.3023 89.0221 33.3324 88.9881 33.3535C88.954 33.3746 88.9148 33.3858 88.8748 33.3858H89.3935C89.4336 33.3858 89.4728 33.3746 89.5068 33.3535C89.5409 33.3324 89.5684 33.3023 89.5863 33.2665L90.2933 31.825C90.31 31.7924 90.318 31.7561 90.3164 31.7195C90.3148 31.6829 90.3038 31.6474 90.2844 31.6163C90.2649 31.5853 90.2377 31.5599 90.2055 31.5426C90.1732 31.5252 90.1371 31.5165 90.1005 31.5174H89.5817C89.6178 31.5178 89.6533 31.5273 89.6848 31.5449C89.7163 31.5626 89.7429 31.5879 89.7621 31.6185C89.7813 31.6492 89.7925 31.6841 89.7947 31.7202C89.7968 31.7562 89.7899 31.7923 89.7745 31.825Z" fill="#A46627"/>
</g>
<g style="mix-blend-mode:multiply" opacity="0.44">
<path d="M77.7146 43.7057C77.6861 43.6751 77.6672 43.6368 77.66 43.5956C77.6529 43.5544 77.6579 43.512 77.6745 43.4735C77.691 43.4351 77.7184 43.4023 77.7532 43.3792C77.788 43.356 77.8289 43.3435 77.8707 43.3431H77.3474C77.3055 43.3435 77.2647 43.356 77.2299 43.3792C77.195 43.4023 77.1677 43.4351 77.1511 43.4735C77.1346 43.512 77.1296 43.5544 77.1367 43.5956C77.1438 43.6368 77.1628 43.6751 77.1913 43.7057L86.235 53.2406C86.2632 53.271 86.2821 53.3088 86.2894 53.3497C86.2967 53.3905 86.2921 53.4325 86.2761 53.4708C86.2601 53.5091 86.2335 53.5419 86.1993 53.5654C86.1651 53.5889 86.1249 53.6021 86.0835 53.6033H84.5502H84.5869L86.6068 53.5758C86.6483 53.5745 86.6885 53.5614 86.7226 53.5379C86.7568 53.5144 86.7835 53.4815 86.7995 53.4432C86.8155 53.405 86.8201 53.3629 86.8128 53.3221C86.8055 53.2813 86.7866 53.2435 86.7583 53.2131L77.7146 43.7057Z" fill="#A46627"/>
</g>
<g style="mix-blend-mode:multiply" opacity="0.44">
<path d="M86.6482 36.4571C86.4849 35.4483 86.0625 34.4992 85.4224 33.7026C85.3972 33.6716 85.3813 33.634 85.3766 33.5942C85.372 33.5545 85.3787 33.5142 85.396 33.4781C85.4133 33.442 85.4405 33.4116 85.4745 33.3904C85.5084 33.3692 85.5477 33.3581 85.5877 33.3583H85.069C85.0289 33.3581 84.9897 33.3692 84.9557 33.3904C84.9218 33.4116 84.8946 33.442 84.8772 33.4781C84.8599 33.5142 84.8532 33.5545 84.8579 33.5942C84.8626 33.634 84.8785 33.6716 84.9037 33.7026C85.5407 34.5006 85.9613 35.4492 86.1248 36.4571C86.1334 36.5069 86.1593 36.5522 86.1979 36.5849C86.2365 36.6176 86.2854 36.6358 86.336 36.6361H86.8547C86.8044 36.6366 86.7557 36.6186 86.7176 36.5856C86.6796 36.5527 86.6549 36.507 86.6482 36.4571Z" fill="#A46627"/>
</g>
<g style="mix-blend-mode:multiply" opacity="0.44">
<path d="M90.1233 36.6452H89.6C89.6353 36.6455 89.67 36.6545 89.7011 36.6714C89.7321 36.6883 89.7586 36.7125 89.778 36.7419C89.7975 36.7714 89.8095 36.8052 89.8129 36.8404C89.8162 36.8755 89.8109 36.911 89.7974 36.9436L89.0629 38.7065C89.0467 38.7456 89.0193 38.779 88.9842 38.8027C88.9491 38.8264 88.9078 38.8392 88.8655 38.8396H89.3842C89.4266 38.8392 89.4678 38.8264 89.5029 38.8027C89.538 38.779 89.5654 38.7456 89.5816 38.7065L90.3207 36.9436C90.3343 36.911 90.3396 36.8755 90.3362 36.8404C90.3328 36.8052 90.3209 36.7714 90.3014 36.7419C90.2819 36.7125 90.2555 36.6883 90.2244 36.6714C90.1934 36.6545 90.1587 36.6455 90.1233 36.6452Z" fill="#A46627"/>
</g>
</g>
<path d="M76.8516 75.602V70.7817H77.7697V74.7802H80.2257V75.602H76.8516Z" fill="#231F20"/>
<path d="M82.4431 75.602V70.7817H83.3613V75.602H82.4431Z" fill="#231F20"/>
<path d="M86.0103 75.602V70.7817H89.2467V71.6035H86.9514V72.8476H88.8657V73.605H86.9514V75.602H86.0103Z" fill="#231F20"/>
<path d="M94.8748 74.7802V75.602H91.5327V70.7817H94.8151V71.6035H92.4692V72.7649H94.4983V73.5224H92.4692V74.7802H94.8748Z" fill="#231F20"/>
<path d="M100.494 75.602V70.7817H101.412V75.602H100.494Z" fill="#231F20"/>
<path d="M106.93 72.0442C106.877 71.9964 106.82 71.9534 106.76 71.9157C106.661 71.8555 106.558 71.8019 106.453 71.755C106.326 71.7026 106.195 71.6596 106.062 71.6264C105.923 71.5895 105.78 71.571 105.635 71.5714C105.434 71.5542 105.232 71.6043 105.062 71.7137C104.998 71.7585 104.947 71.8187 104.914 71.8885C104.88 71.9584 104.865 72.0356 104.869 72.113C104.864 72.2016 104.89 72.2891 104.942 72.361C104.997 72.4338 105.068 72.4934 105.149 72.5354C105.257 72.5923 105.371 72.6369 105.489 72.6685L105.948 72.7971C106.165 72.855 106.38 72.924 106.59 73.0036C106.768 73.0658 106.934 73.1573 107.081 73.2745C107.212 73.3796 107.317 73.513 107.389 73.6647C107.464 73.8417 107.5 74.0327 107.495 74.2248C107.502 74.4534 107.453 74.6804 107.352 74.8859C107.261 75.0696 107.126 75.2275 106.958 75.3449C106.785 75.4631 106.592 75.5472 106.388 75.5928C106.167 75.6469 105.941 75.6732 105.713 75.6708C105.349 75.6722 104.987 75.618 104.639 75.5102C104.3 75.4087 103.979 75.2537 103.689 75.0511L104.107 74.2477C104.174 74.3081 104.248 74.3605 104.327 74.4038C104.447 74.4798 104.573 74.5459 104.703 74.6012C104.858 74.674 105.019 74.7295 105.186 74.7665C105.362 74.8128 105.544 74.8359 105.727 74.8353C106.241 74.8353 106.498 74.6701 106.498 74.3396C106.502 74.2446 106.471 74.1516 106.411 74.0779C106.342 73.9963 106.256 73.9305 106.159 73.8851C106.033 73.8246 105.903 73.7754 105.769 73.7382L105.25 73.5867C105.046 73.532 104.847 73.463 104.653 73.3801C104.498 73.3157 104.354 73.2274 104.226 73.1184C104.118 73.0195 104.032 72.8991 103.974 72.765C103.914 72.6194 103.884 72.4632 103.886 72.3059C103.882 72.0809 103.929 71.8578 104.024 71.654C104.113 71.4746 104.242 71.3176 104.401 71.1949C104.569 71.0662 104.758 70.9683 104.961 70.9057C105.183 70.84 105.413 70.8075 105.645 70.8093C105.958 70.8087 106.268 70.863 106.563 70.97C106.827 71.0646 107.078 71.191 107.311 71.3464L106.93 72.0442Z" fill="#231F20"/>
<path d="M113.104 75.602V70.7817H114.023V74.7802H116.479V75.602H113.104Z" fill="#231F20"/>
<path d="M118.696 75.602V70.7817H119.614V75.602H118.696Z" fill="#231F20"/>
<path d="M122.263 75.6019V70.7909H123.181V73.0862L125.201 70.7909H126.234L124.398 72.9301L126.358 75.6111H125.307L123.805 73.5269L123.19 74.1696V75.6111L122.263 75.6019Z" fill="#231F20"/>
<path d="M131.793 74.7802V75.602H128.451V70.7817H131.734V71.6035H129.388V72.7649H131.417V73.5224H129.388V74.7802H131.793Z" fill="#231F20"/>
<path d="M138.551 70.7817H139.377L141.213 75.602H140.249L139.79 74.3992H138.11L137.651 75.602H136.687L138.551 70.7817ZM139.63 73.7427L138.964 71.8468L138.271 73.7427H139.63Z" fill="#231F20"/>
<path d="M146.121 73.1827C146.12 72.8845 146.174 72.5887 146.282 72.3105C146.382 72.0257 146.538 71.7636 146.741 71.5392C146.95 71.3088 147.203 71.1216 147.484 70.9883C147.8 70.8444 148.143 70.7723 148.49 70.7772C148.892 70.7683 149.289 70.8699 149.637 71.071C149.947 71.2501 150.199 71.5146 150.363 71.833L149.642 72.3242C149.585 72.1989 149.507 72.0841 149.412 71.9845C149.326 71.8965 149.227 71.8221 149.119 71.7642C149.017 71.7082 148.907 71.668 148.793 71.6448C148.684 71.619 148.573 71.6067 148.462 71.6081C148.248 71.6023 148.036 71.6512 147.847 71.7504C147.679 71.8407 147.531 71.9659 147.415 72.1177C147.299 72.274 147.21 72.4495 147.154 72.6364C147.096 72.8206 147.066 73.0126 147.067 73.2057C147.065 73.415 147.099 73.623 147.168 73.8208C147.23 74.0108 147.328 74.187 147.457 74.3396C147.583 74.4909 147.739 74.6144 147.916 74.7022C148.094 74.7909 148.291 74.8365 148.49 74.8353C148.604 74.8347 148.718 74.8208 148.829 74.794C148.946 74.767 149.059 74.7237 149.165 74.6655C149.273 74.6055 149.372 74.5297 149.458 74.4406C149.552 74.3438 149.627 74.2301 149.679 74.1054L150.445 74.5645C150.366 74.7373 150.253 74.8931 150.115 75.0236C149.978 75.1599 149.824 75.2772 149.656 75.3725C149.294 75.5605 148.893 75.6596 148.485 75.6617C148.166 75.6634 147.852 75.5895 147.567 75.4459C147.287 75.3057 147.037 75.1142 146.828 74.8813C146.633 74.6431 146.478 74.3748 146.369 74.0871C146.23 73.804 146.145 73.4971 146.121 73.1827Z" fill="#231F20"/>
<path d="M159.402 75.602V70.7817H160.32V75.602H159.402Z" fill="#231F20"/>
<path d="M163.928 72.5124V75.602H163.01V70.7817H163.735L166.246 73.9447V70.7909H167.165V75.602H166.407L163.928 72.5124Z" fill="#231F20"/>
<path d="M81.1485 0.0803528L83.8295 5.32293L86.5564 0.0803528H88.8517L84.8991 7.15921V10.9557H82.8012V7.12708L78.8669 0.0803528H81.1485Z" fill="#FAB417"/>
<path d="M102.486 9.10568V10.942H94.9343V0.0803528H102.348V1.91664H97.0506V4.53792H101.641V6.25026H97.0506V9.08732L102.486 9.10568Z" fill="#FAB417"/>
<path d="M109.042 10.9557V0.0803528H111.158V9.10568H116.704V10.942L109.042 10.9557Z" fill="#FAB417"/>
<path d="M122.887 10.9557V0.0803528H125.004V9.10568H130.549V10.942L122.887 10.9557Z" fill="#FAB417"/>
<path d="M140.69 11.0337C139.941 11.0469 139.198 10.8899 138.519 10.5746C137.886 10.276 137.32 9.85468 136.852 9.33516C135.917 8.28709 135.396 6.93397 135.388 5.52946C135.387 4.81473 135.525 4.10669 135.796 3.44528C136.058 2.79487 136.436 2.19753 136.912 1.68245C137.392 1.17024 137.967 0.756954 138.606 0.465911C139.274 0.159696 140.001 0.00302527 140.736 0.00684058C141.478 -0.00956688 142.214 0.147634 142.884 0.465911C143.516 0.773616 144.08 1.20258 144.546 1.72836C145.007 2.25164 145.371 2.85334 145.62 3.50496C146.008 4.48865 146.108 5.56213 145.91 6.60067C145.712 7.63921 145.223 8.60016 144.5 9.37188C144.024 9.88308 143.452 10.295 142.815 10.5838C142.148 10.8862 141.423 11.0397 140.69 11.0337ZM137.532 5.52486C137.53 5.99247 137.603 6.45734 137.747 6.90208C137.881 7.32387 138.091 7.71754 138.367 8.06352C138.637 8.40292 138.977 8.68009 139.363 8.87609C139.783 9.07996 140.244 9.18587 140.711 9.18587C141.177 9.18587 141.638 9.07996 142.058 8.87609C142.445 8.67025 142.784 8.38562 143.054 8.04058C143.328 7.68871 143.536 7.29069 143.669 6.86536C143.806 6.43804 143.876 5.99199 143.876 5.54323C143.879 5.07477 143.803 4.60917 143.651 4.16602C143.512 3.74314 143.299 3.34831 143.022 2.99998C142.753 2.66452 142.414 2.3906 142.03 2.1966C141.618 1.9941 141.163 1.89187 140.704 1.89821C140.225 1.88752 139.752 1.9964 139.327 2.21497C138.938 2.41358 138.597 2.69576 138.33 3.04129C138.06 3.38899 137.855 3.7824 137.724 4.20274C137.593 4.62951 137.528 5.07383 137.532 5.52027V5.52486Z" fill="#FAB417"/>
<path d="M155.885 0.112477H157.827L159.053 3.7116L160.278 0.112477H162.239L160.402 5.06126L161.78 8.53643L164.846 0.0803528H167.142L162.716 10.9557H160.94L159.053 6.39257L157.171 10.9557H155.394L150.996 0.0803528H153.264L156.358 8.53643L157.708 5.06126L155.885 0.112477Z" fill="#FAB417"/>
</svg>
